<svg width="1920" height="1058" viewBox="0 0 1920 1058" fill="none" xmlns="http://www.w3.org/2000/svg">
<path d="M-0.00167059 619.074L77.212 542.908C84.4366 549.135 97.6668 547.646 102.092 538.486L738.133 840.895C737.636 842.384 737.366 844.098 737.366 845.948C737.366 866.073 768.567 866.073 768.567 845.948C768.567 844.64 768.432 843.421 768.206 842.293L1227.24 666.904C1231.58 678.275 1248.56 679.222 1254.97 669.701L1796.1 1036.23C1795.24 1038.12 1794.74 1040.33 1794.74 1042.91C1794.74 1063.03 1825.94 1063.03 1825.94 1042.91C1825.94 1035.82 1822.1 1031.26 1817.09 1029.19L1919.95 783.093L1919.95 779.844L1815.92 1028.69C1815.15 1028.42 1814.38 1028.24 1813.57 1028.11L1880.94 661.354C1887.8 663.023 1895.84 660.542 1899.18 653.864L1919.91 657.97L1919.91 656.706L1899.68 652.69C1900.18 651.472 1900.49 650.119 1900.67 648.675L1919.91 654.089L1919.91 652.781L1900.72 647.411C1900.72 647.411 1900.72 647.005 1900.72 646.78C1900.72 646.103 1900.72 645.471 1900.63 644.884L1919.95 644.884L1919.95 643.621L1900.54 643.621C1899.27 636.627 1893.72 632.701 1887.67 631.844L1880.04 224.798C1880.04 224.798 1880.44 224.843 1880.67 224.888L1919.95 430.554L1919.95 423.876L1881.98 225.023C1890.11 225.475 1898.64 220.466 1898.64 209.998C1898.64 209.231 1898.6 208.464 1898.5 207.742L1908.39 204.267C1910.38 209.456 1914.94 212.434 1920 213.292L1920 183.601C1918.37 183.872 1916.84 184.368 1915.39 185.09L1848.02 73.4584C1851.68 71.0218 1854.25 66.9157 1854.25 61.095C1854.25 56.673 1852.72 53.1986 1850.37 50.7169L1909.88 0.0446769L1904.1 0.0446763L1849.15 49.5888C1842.24 43.9034 1830.23 44.9864 1825.31 52.8376L1707.14 0.0446591L1704.07 0.0446589L1824.68 53.9656C1823.64 55.951 1823.05 58.3425 1823.05 61.1401C1823.05 63.712 1823.55 65.923 1824.45 67.8181L1637.15 182.654C1634.13 178.548 1629.07 176.517 1624.01 176.607L1629.07 0.0446523L1627.81 0.0446522L1622.75 176.653C1617.1 177.149 1611.73 180.307 1609.65 186.173L1319.94 71.8339C1320.4 70.39 1320.62 68.7656 1320.62 67.0059C1320.62 65.1108 1320.35 63.3961 1319.85 61.8619L1520.7 0.0898089L1516.46 0.0898085L1319.4 60.6887C1315.79 52.2509 1305 49.9045 1297.37 53.6948L1266.8 0.0897867L1265.35 0.0897866L1296.28 54.2814C1292.31 56.6729 1289.42 60.9144 1289.42 67.0059C1289.42 71.6986 1291.14 75.2632 1293.71 77.7449L1036.42 401.451C1035.74 400.819 1034.98 400.232 1034.16 399.781L1218.3 0.0897824L1216.95 0.0897823L1033.08 399.195C1030.51 397.886 1027.53 397.299 1024.59 397.435L990.681 163.161C997.183 161.898 1002.78 156.979 1002.78 148.451C1002.78 144.616 1001.65 141.502 999.802 139.156L1161.68 0.134944L1159.78 0.134943L999.034 138.208C992.171 130.854 977.902 131.937 973.161 141.457L647.96 0.134899L644.845 0.134898L972.664 142.585C971.987 144.3 971.58 146.24 971.58 148.451C971.58 149.354 971.671 150.166 971.761 150.978L691.941 204.403C689.909 194.385 679.072 190.821 670.808 193.754L605.471 0.0897289L604.161 0.0897288L669.68 194.205C664.983 196.281 661.416 200.612 661.145 207.155L358.297 197.093C358.116 193.122 356.716 189.918 354.504 187.617L573.863 0.0445601L571.921 0.04456L353.555 186.715C349.446 183.105 343.351 181.977 338.022 183.421L307.092 97.3729C312.33 95.3424 316.394 90.74 316.394 83.4302C316.394 81.3546 316.032 79.4595 315.445 77.8351L538.778 -0.000486875L534.985 -0.000487207L314.994 76.6619C310.343 66.7351 295.487 65.6972 288.669 73.5485L174.068 -0.000518737L171.765 -0.000518938L287.901 74.5412C286.231 76.8424 285.237 79.8205 285.237 83.4302C285.237 85.0095 285.463 86.4534 285.824 87.807L2.61738 204.809C1.94002 203.41 1.08211 202.237 0.043532 201.199L0.0435301 222.361C0.630566 221.774 1.17244 221.098 1.66914 220.376L211.365 349.876C210.417 351.816 209.83 354.163 209.83 356.825C209.83 361.608 211.591 365.263 214.3 367.744L96.8992 518.949C93.2417 516.692 88.6359 515.97 84.3914 516.828L-0.00163801 246.772L-0.00163838 250.968L83.1723 517.144C77.8893 518.633 73.4642 522.603 72.5611 529.056L-0.00166211 522.242L-0.00166222 523.506L72.4256 530.274C72.4256 530.68 72.3804 531.086 72.3804 531.538C72.3804 536.005 73.9157 539.479 76.3539 541.961L0.0434956 617.224L0.0434954 618.984L-0.00167059 619.074ZM741.339 835.525L236.516 367.835C239.225 365.308 241.031 361.653 241.031 356.87C241.031 356.735 241.031 356.644 241.031 356.509L518.729 342.025C519.181 353.621 530.244 358.179 539.049 355.742L745.99 832.321C744.274 833.088 742.694 834.171 741.339 835.525ZM747.119 831.87L540.223 355.381C541.893 354.794 543.429 353.937 544.783 352.809L674.782 478.925C672.705 481.362 671.35 484.611 671.35 488.762C671.35 499.32 679.929 504.284 688.057 503.788L749.512 831.238C748.699 831.419 747.887 831.599 747.119 831.87ZM549.705 339.227L792.499 309.311C792.77 311.974 793.628 314.23 794.847 316.125L715.737 378.98C708.151 372.753 694.469 374.648 690.631 384.71L549.479 344.687C549.705 343.649 549.795 342.521 549.795 341.348C549.795 340.626 549.75 339.949 549.66 339.272L549.705 339.227ZM1009.78 414.22C1009.92 415.484 1010.14 416.657 1010.55 417.74L702.055 484.656C700.475 478.158 695.101 474.548 689.277 473.781L701.739 405.105C710.363 406.865 720.478 402.127 720.839 391.027L1009.78 414.175L1009.78 414.22ZM1009.69 412.46C1009.69 412.46 1009.69 412.821 1009.69 413.002L720.839 389.854C720.704 385.568 719.123 382.229 716.685 379.837L795.615 317.163C802.207 325.239 817.108 324.427 822.03 314.726L1010.37 407.768C1009.96 409.212 1009.69 410.791 1009.69 412.506L1009.69 412.46ZM690.27 385.838C689.864 387.237 689.638 388.726 689.638 390.396C689.638 398.382 694.56 403.165 700.475 404.835L687.967 473.646C683.452 473.375 678.801 474.819 675.55 477.933L545.641 351.861C547.267 350.282 548.486 348.252 549.208 345.77L690.27 385.748L690.27 385.838ZM750.731 831.013L689.277 503.652C696.23 502.75 702.507 497.786 702.507 488.762C702.507 487.769 702.416 486.822 702.281 485.919L1011 418.958C1012.54 422.432 1015.33 424.869 1018.59 426.223L761.478 833.088C758.317 831.238 754.434 830.562 750.731 831.058L750.731 831.013ZM1796.68 1035.1L1255.6 668.573C1256.73 666.498 1257.41 664.016 1257.41 661.083C1257.41 657.293 1256.32 654.225 1254.52 651.878L1478.3 480.098C1483.09 485.017 1491.17 485.964 1497.31 483.077L1801.2 1030.41C1799.39 1031.58 1797.81 1033.16 1796.68 1035.1ZM1504.58 475.27C1505.17 473.601 1505.53 471.751 1505.53 469.63C1505.53 463.223 1502.37 458.891 1498.03 456.545L1606.04 241.493C1611.05 244.11 1617.51 243.975 1622.39 241.177L1879 632.837C1876.6 633.739 1874.44 635.228 1872.77 637.214L1504.53 475.27L1504.58 475.27ZM1872.04 638.251C1871.05 639.74 1870.33 641.455 1869.92 643.486L1559.67 500.855L1872.04 638.251ZM1812.35 1027.93C1808.87 1027.52 1805.31 1028.15 1802.28 1029.78L1498.48 482.535C1500.83 481.181 1502.77 479.241 1504.04 476.669L1869.74 644.794C1869.65 645.426 1869.61 646.103 1869.61 646.825C1869.61 654.495 1874.12 659.233 1879.77 661.038L1812.35 1027.93ZM1886.4 631.754C1884.33 631.618 1882.25 631.844 1880.26 632.431L1623.52 240.591C1627.08 238.109 1629.61 234.048 1629.61 228.362C1629.61 227.505 1629.52 226.693 1629.43 225.881L1868.16 215.006C1869.79 220.24 1873.99 223.399 1878.77 224.572L1886.4 631.754ZM1875.34 196.687L1844.27 77.8803L1883.2 194.927C1880.44 194.927 1877.73 195.468 1875.3 196.687L1875.34 196.687ZM1846.89 74.0901L1914.26 185.677C1910.24 188.068 1907.35 192.31 1907.35 198.446C1907.35 199.214 1907.4 199.981 1907.49 200.658L1896.88 202.598C1894.4 197.95 1889.61 195.423 1884.6 194.972L1844.73 75.0828C1845.49 74.812 1846.22 74.4961 1846.94 74.0901L1846.89 74.0901ZM1824.95 68.9011C1828.43 74.9023 1835.92 77.2035 1842.42 75.7596L1874.17 197.318C1870.19 199.71 1867.35 203.951 1867.35 210.043C1867.35 210.81 1867.39 211.577 1867.53 212.299L1639.77 192.942C1639.77 192.535 1639.82 192.129 1639.82 191.723C1639.82 188.565 1639.05 185.903 1637.74 183.737L1824.9 68.9913L1824.95 68.9011ZM1639.68 194.115L1867.75 213.517C1867.75 213.517 1867.75 213.698 1867.8 213.743L1629.16 224.617C1627.76 218.3 1622.88 214.645 1617.37 213.562L1619.5 206.072C1627.85 208.373 1638.24 204.403 1639.64 194.115L1639.68 194.115ZM1319.45 72.962L1609.2 187.301C1608.84 188.61 1608.66 190.054 1608.66 191.633C1608.66 199.078 1612.95 203.771 1618.32 205.711L1616.16 213.382C1610.6 212.705 1604.69 214.6 1601.3 219.112L1319.27 73.4132C1319.27 73.4132 1319.4 73.0974 1319.45 72.962ZM1318.68 74.5413L1600.53 220.15C1599.18 222.361 1598.32 225.069 1598.32 228.317C1598.32 234.273 1601.07 238.47 1604.96 240.906L1496.9 456.003C1493.11 454.334 1488.64 454.108 1484.62 455.372L1311.18 80.9035C1314.3 79.7303 1316.96 77.6096 1318.68 74.5864L1318.68 74.5413ZM1294.57 78.5571C1298.77 81.9413 1304.82 82.8437 1310.01 81.3096L1483.45 455.823C1478.89 457.628 1475.23 461.463 1474.46 467.329L1040.53 415.98C1040.76 414.897 1040.89 413.724 1040.89 412.46C1040.89 408.174 1039.45 404.79 1037.23 402.353L1294.57 78.6022L1294.57 78.5571ZM1040.21 417.198L1474.37 468.547C1474.37 468.908 1474.33 469.269 1474.33 469.675C1474.33 473.646 1475.55 476.805 1477.49 479.196L1253.75 650.931C1248.6 645.29 1239.21 644.523 1232.8 648.539L1035.38 424.237C1037.6 422.523 1039.31 420.221 1040.21 417.198ZM1034.39 424.959L1231.8 649.261C1228.51 651.743 1226.25 655.714 1226.25 661.083C1226.25 662.753 1226.48 664.287 1226.88 665.686L767.89 841.075C766.897 837.871 765 835.435 762.562 833.72L1019.8 426.629C1024.59 428.208 1030.19 427.667 1034.43 424.959L1034.39 424.959ZM989.371 163.296L1023.24 397.48C1017.91 398.066 1012.9 401.09 1010.77 406.504L822.527 313.508C823.204 311.748 823.61 309.808 823.61 307.552C823.61 303.039 822.03 299.565 819.591 297.083L976.186 159.551C979.708 162.665 984.675 163.928 989.326 163.341L989.371 163.296ZM692.257 207.787C692.257 207.02 692.212 206.298 692.121 205.576L971.942 152.151C972.529 154.768 973.703 156.934 975.328 158.649L818.733 296.226C812.412 290.856 801.665 291.308 796.066 297.489L688.78 217.714C690.902 215.277 692.257 211.983 692.257 207.832L692.257 207.787ZM687.922 218.616L795.253 298.437C793.492 300.783 792.409 303.806 792.409 307.552C792.409 307.732 792.409 307.867 792.409 308.048L549.479 338.009C548.847 334.715 547.267 332.143 545.144 330.248L664.984 218.345C670.854 224.301 681.736 224.392 687.786 218.616L687.922 218.616ZM358.252 198.311L661.055 208.373C661.191 212.073 662.365 215.097 664.261 217.398L544.241 329.436C537.784 324.563 527.354 325.285 522.026 331.511L355.768 206.523C357.258 204.357 358.161 201.605 358.252 198.311ZM355.045 207.516L521.258 332.504C519.723 334.715 518.774 337.468 518.684 340.807L240.941 355.291C240.489 349.921 237.69 346.176 233.942 344.01L333.372 210.268C339.919 214.645 349.943 213.743 355.045 207.516ZM305.918 97.779L336.848 183.782C331.43 185.677 327.095 190.37 327.095 197.86C327.095 203.094 329.217 206.974 332.378 209.501L232.813 343.424C231.458 342.792 229.969 342.296 228.433 342.07L297.158 98.1851C300.048 98.7717 303.118 98.6815 305.918 97.8242L305.918 97.779ZM211.907 348.838L2.30122 219.383C3.43013 217.307 4.15254 214.781 4.15254 211.848C4.15254 209.682 3.74617 207.742 3.11397 206.027L286.185 89.0705C287.856 93.7181 291.649 96.651 295.984 97.8693L227.214 341.889C221.344 341.303 215.113 343.604 211.952 348.838L211.907 348.838ZM215.248 368.602C220.938 373.024 229.833 373.024 235.522 368.647L740.481 836.427C739.714 837.375 739.081 838.458 738.54 839.676L102.544 537.313C103.176 535.644 103.537 533.748 103.537 531.583C103.537 526.123 101.234 522.152 97.8926 519.67L215.203 368.557L215.248 368.602Z" fill="#BB94FF" fill-opacity="0.1"/>
<path d="M0.00104792 1.90936L0.00100779 307.768C0.00100779 307.768 0.00100779 307.768 0.0461651 307.768C0.0461651 307.768 0.0461651 307.768 0.0913225 307.768L18.1543 301.451C20.0509 306.821 27.4115 307.814 31.2499 304.339L269.139 515.751C268.145 516.969 267.468 518.594 267.468 520.669C267.468 531.003 283.454 531.003 283.454 520.669C283.454 519.947 283.363 519.225 283.183 518.594L449.271 474.732C451.213 482.945 465.031 482.313 465.031 472.701C465.031 471.393 464.76 470.219 464.309 469.227L646.112 384.166C648.641 391.701 661.646 390.844 661.646 381.503C661.646 380.33 661.421 379.292 661.014 378.344L972.961 271.578C974.632 274.421 978.019 275.639 981.18 275.188L1048.51 437.278C1045.94 438.361 1043.95 440.662 1043.95 444.272C1043.95 453.568 1056.91 454.471 1059.48 446.98L1277.23 515.074C1277.14 515.57 1277.05 516.112 1277.05 516.653C1277.05 526.987 1293.04 526.987 1293.04 516.653C1293.04 516.067 1292.99 515.525 1292.86 515.029L1384.66 487.773C1386.96 494.271 1397.26 494.316 1399.61 487.863L1555.17 536.193C1555.04 536.734 1554.99 537.366 1554.99 537.998C1554.99 548.286 1570.98 548.286 1570.98 537.998C1570.98 537.772 1570.98 537.637 1570.93 537.411L1708.44 518.458C1710.2 526.897 1724.24 526.31 1724.24 516.653C1724.24 515.886 1724.11 515.164 1723.97 514.487L1877.87 456.817C1880.62 464.037 1893.31 463.045 1893.31 453.839C1893.31 453.568 1893.27 453.343 1893.22 453.117L1919.96 450.003L1919.96 1.50343L1337.83 1.50335L0.00104798 1.50317L0.00104794 1.81909L0.00104792 1.90936ZM0.317149 1.90936L1.89766 1.90936L22.941 30.3834C21.3153 31.692 20.2315 33.6324 20.2315 36.3399C20.2315 40.3561 22.67 42.7928 25.6053 43.6502L0.317118 243.826L0.317149 1.95447L0.317149 1.90936ZM262.185 27.1344L180.224 1.90939L298.627 1.9094L274.874 23.4341C270.81 20.4107 263.81 21.6291 262.185 27.1344ZM262.004 27.7661C261.914 28.1723 261.914 28.6235 261.868 29.0747L138.724 27.5857C137.731 23.2536 133.486 21.3584 129.648 21.8999L127.887 1.86421L178.011 1.86422L261.959 27.721L262.004 27.7661ZM270.719 37.2425L309.193 165.488C307.839 165.849 306.619 166.526 305.671 167.519L137.821 33.7678C138.544 32.6397 138.995 31.2859 138.995 29.5711C138.995 29.1199 138.905 28.7138 138.86 28.2625L261.868 29.7517C261.959 35.1667 266.52 37.6486 270.719 37.2425ZM460.967 42.7477L581.086 152.538C580.092 153.756 579.46 155.38 579.46 157.411C579.46 157.592 579.46 157.772 579.505 157.907L319.534 171.986C319.354 170.136 318.676 168.692 317.638 167.564L449.813 42.3868C452.749 45.1845 457.896 45.3199 461.012 42.7026L460.967 42.7477ZM1758.2 368.372L1575.99 61.4749C1577.71 60.5724 1579.02 59.0381 1579.56 56.8721L1871.95 123.251C1871.86 123.703 1871.82 124.154 1871.82 124.605C1871.82 128.17 1873.76 130.517 1876.29 131.6L1765.29 368.056C1763.03 367.199 1760.37 367.334 1758.2 368.372ZM1575.41 61.7457L1757.66 368.688C1756.89 369.139 1756.21 369.726 1755.63 370.448L1470.23 162.42C1471.14 161.202 1471.68 159.667 1471.68 157.772C1471.68 155.426 1470.82 153.621 1469.56 152.357L1566.19 60.3468C1568.59 62.5579 1572.42 63.0091 1575.41 61.7005L1575.41 61.7457ZM1561.23 530.552L1465.63 165.308C1467.21 164.947 1468.7 164.18 1469.78 162.962L1755.27 371.034C1754.54 372.162 1754.09 373.561 1754.09 375.231C1754.09 377.352 1754.82 379.021 1755.85 380.285L1569.13 532.808C1567.14 530.732 1564.07 529.965 1561.23 530.552ZM1281.66 509.704L1157.16 247.301C1159.33 246.398 1161.09 244.638 1161.63 241.886L1333.5 270.63C1333.5 270.946 1333.41 271.307 1333.41 271.668C1333.41 275.955 1336.16 278.437 1339.41 279.159L1286.4 509.072C1284.82 508.847 1283.15 509.072 1281.7 509.704L1281.66 509.704ZM453.787 465.617L315.425 179.703C317.818 178.575 319.579 176.273 319.579 172.844C319.579 172.754 319.579 172.709 319.579 172.618L579.55 158.539C579.957 161.608 581.808 163.593 584.201 164.496L459.341 465.301C457.535 464.804 455.548 464.94 453.787 465.617ZM30.979 43.6502L140.44 253.708C138.77 255.017 137.641 257.002 137.641 259.71C137.641 260.612 137.821 261.425 138.047 262.192L33.1917 295.765C32.0176 292.561 28.9017 290.937 25.7407 290.892L27.2761 44.0112C28.5405 44.1466 29.8049 44.0112 30.979 43.6502ZM144.143 252.084L130.777 37.2876C133.306 37.3327 135.879 36.3399 137.46 34.3093L305.219 167.97C304.226 169.189 303.594 170.813 303.594 172.844C303.594 174.153 303.865 175.281 304.316 176.273L152.633 255.829C150.962 252.851 147.395 251.587 144.143 252.129L144.143 252.084ZM130.144 37.2424L143.511 252.264C142.608 252.49 141.75 252.851 140.982 253.347L31.566 43.4246C34.1851 42.3867 36.2172 40.0402 36.2172 36.3399C36.2172 35.8435 36.1269 35.3923 36.0818 34.941L123.055 28.6235C123.055 28.9394 122.964 29.2101 122.964 29.526C122.964 34.3093 126.442 36.8814 130.144 37.1973L130.144 37.2424ZM153.626 259.71C153.626 258.446 153.355 257.318 152.949 256.371L304.632 176.815C305.897 178.981 308.155 180.244 310.548 180.515L275.37 512.953C274.151 512.953 272.977 513.224 271.848 513.72L147.982 267.111C151.052 266.298 153.626 263.816 153.626 259.71ZM595.401 157.411C595.401 157.14 595.355 156.915 595.31 156.689L747.31 129.163C747.31 129.433 747.219 129.659 747.219 129.93C747.219 132.863 748.529 134.939 750.38 136.202L654.06 373.832C652.57 373.787 651.079 374.057 649.77 374.689L589.62 164.812C592.736 163.999 595.401 161.563 595.401 157.366L595.401 157.411ZM763.25 129.975C763.25 128.531 762.889 127.313 762.347 126.275L914.527 94.6418C915.476 99.0641 919.811 100.959 923.694 100.373L975.941 260.793C974.361 261.56 973.096 262.869 972.419 264.674L762.754 132.637C763.025 131.825 763.205 130.968 763.205 129.975L763.25 129.975ZM983.573 260.703L1088.07 47.847C1089.78 48.6141 1091.72 48.7946 1093.58 48.3885L1150.79 233.041C1147.99 233.989 1145.73 236.425 1145.73 240.306C1145.73 240.622 1145.78 240.893 1145.82 241.209L987.863 267.472C987.773 264.087 985.966 261.831 983.528 260.748L983.573 260.703ZM1264.9 65.491L1338.42 264.448C1337.97 264.584 1337.56 264.809 1337.15 264.99L1221.37 98.6581C1223.27 97.3946 1224.58 95.3188 1224.58 92.3405C1224.58 90.4904 1224.04 89.0013 1223.22 87.828L1256.37 62.964C1258.4 65.3556 1261.83 66.1679 1264.86 65.4459L1264.9 65.491ZM1208.59 92.3856C1208.59 96.0859 1210.67 98.4324 1213.29 99.4703L1156.21 232.906C1154.67 232.454 1153 232.454 1151.47 232.906L1094.25 48.2531C1096.42 47.6214 1098.27 46.1774 1099.13 43.876L1209.09 89.6781C1208.82 90.4904 1208.59 91.3929 1208.59 92.4308L1208.59 92.3856ZM1161.76 240.261C1161.76 236.471 1159.6 234.079 1156.84 233.086L1213.92 99.6959C1216.18 100.418 1218.8 100.192 1220.87 99.0642L1336.66 265.396C1335.12 266.389 1333.95 267.968 1333.54 270.089L1161.67 241.344C1161.67 240.983 1161.76 240.667 1161.76 240.306L1161.76 240.261ZM1343.57 279.159C1346.73 278.392 1349.39 275.91 1349.39 271.713C1349.39 269.502 1348.62 267.788 1347.45 266.524L1457.91 163.368C1458.9 164.315 1460.07 164.902 1461.38 165.263L1393.6 477.485C1392.65 477.349 1391.66 477.349 1390.67 477.485L1343.48 279.159L1343.57 279.159ZM1455.65 157.817C1455.65 159.983 1456.37 161.653 1457.45 162.871L1347 266.028C1344.92 264.132 1341.76 263.546 1339.05 264.268L1265.54 65.3105C1267.25 64.7239 1268.74 63.5957 1269.69 61.9712L1456.28 154.659C1455.92 155.561 1455.69 156.599 1455.69 157.772L1455.65 157.817ZM1256.05 62.5127L1222.86 87.3767C1219.38 83.2704 1211.62 83.8118 1209.27 89.0464L1099.31 43.2442C1099.49 42.7027 1099.58 42.1161 1099.63 41.4843L1254.79 57.6392C1254.79 57.6392 1254.74 57.9551 1254.74 58.1356C1254.74 59.9406 1255.24 61.4297 1256.05 62.603L1256.05 62.5127ZM1087.53 47.5311L983.031 260.387C980.954 259.62 978.606 259.665 976.574 260.522L924.372 100.192C927.578 99.4703 930.378 96.9884 930.378 92.7015C930.378 91.8892 930.242 91.2123 930.062 90.5355L1083.96 42.8832C1084.5 45.0492 1085.81 46.5835 1087.53 47.5311ZM914.482 91.077C914.392 91.6185 914.302 92.16 914.302 92.7466C914.302 93.1978 914.347 93.604 914.437 94.0101L761.986 125.688C760.315 123.116 757.199 122.033 754.219 122.349L750.019 49.6971C753.406 49.9227 756.883 48.3433 758.148 44.9138L914.437 91.1221L914.482 91.077ZM749.432 49.6068L753.632 122.394C750.651 122.935 747.987 124.966 747.4 128.531L595.31 156.057C595.13 154.974 594.768 154.027 594.272 153.26L743.923 46.1773C745.142 48.1177 747.22 49.291 749.432 49.6068ZM129.016 22.0803C126.171 22.667 123.687 24.6525 123.1 28.0369L35.9463 34.3544C35.7205 33.3616 35.3141 32.5043 34.7722 31.7822L94.2896 1.99959L127.254 1.99959L129.016 22.1254L129.016 22.0803ZM34.3658 31.2408C31.7015 28.2625 26.7342 27.8563 23.4829 30.0223L2.71049 1.90936L92.8897 1.90937L34.3658 31.1956L34.3658 31.2408ZM0.317109 307.001L0.317117 248.88L26.1923 43.7856C26.1923 43.7856 26.4632 43.8758 26.5536 43.8758L25.0182 290.892C21.225 291.162 17.6575 293.689 17.6575 298.563C17.6575 299.375 17.793 300.097 17.9736 300.774L0.317109 306.956L0.317109 307.001ZM31.7015 303.842C32.8756 302.579 33.6432 300.864 33.6432 298.608C33.6432 297.796 33.5078 297.029 33.3271 296.352L138.182 262.778C139.673 266.434 143.737 267.923 147.349 267.246L271.306 513.991C270.674 514.352 270.087 514.803 269.59 515.299L31.7015 303.842ZM449.046 472.746C449.046 473.243 449.136 473.694 449.181 474.145L283.002 518.007C281.963 514.848 279.028 513.179 276.003 512.998L311.18 180.56C312.445 180.605 313.664 180.425 314.838 179.974L453.2 465.887C450.807 467.015 449.046 469.317 449.046 472.746ZM645.661 381.548C645.661 382.27 645.751 382.947 645.932 383.579L463.993 468.73C463.089 467.151 461.644 466.068 459.974 465.481L584.789 164.766C586.143 165.173 587.633 165.263 589.033 165.037L649.183 375.05C647.106 376.269 645.615 378.435 645.615 381.593L645.661 381.548ZM660.743 377.848C659.524 375.501 657.221 374.238 654.737 373.922L750.968 136.608C754.851 138.819 760.676 137.691 762.618 133.269L972.284 265.306C972.103 266.028 971.922 266.75 971.922 267.607C971.922 268.916 972.193 270.089 972.645 271.037L660.788 377.803L660.743 377.848ZM1049.1 437.098L981.812 275.143C984.928 274.466 987.637 272.12 987.818 268.103L1145.87 241.84C1146.32 244.322 1147.77 246.037 1149.66 247.03L1054.97 437.188C1053.12 436.511 1050.99 436.511 1049.1 437.143L1049.1 437.098ZM1059.71 446.438C1059.89 445.807 1059.98 445.085 1059.98 444.318C1059.98 440.753 1058.08 438.451 1055.6 437.368L1150.29 247.256C1152.24 248.068 1154.54 248.203 1156.57 247.526L1281.07 509.975C1279.35 510.877 1278 512.366 1277.41 514.532L1059.71 446.484L1059.71 446.438ZM1292.77 514.487C1291.95 511.554 1289.65 509.794 1286.99 509.208L1340 279.294C1340.95 279.43 1341.94 279.43 1342.94 279.294L1390.12 477.62C1386.96 478.387 1384.25 480.824 1384.25 485.066C1384.25 485.878 1384.39 486.6 1384.57 487.277L1292.81 514.532L1292.77 514.487ZM1399.92 487.322C1400.1 486.6 1400.24 485.878 1400.24 485.021C1400.24 480.734 1397.49 478.252 1394.28 477.53L1462.02 165.353C1463.01 165.534 1464 165.534 1465 165.353L1560.59 530.687C1558.25 531.364 1556.26 532.989 1555.45 535.606L1399.88 487.322L1399.92 487.322ZM1708.35 516.744C1708.35 517.15 1708.39 517.556 1708.48 517.917L1570.98 536.87C1570.8 535.471 1570.3 534.252 1569.53 533.305L1756.31 380.736C1757.21 381.594 1758.29 382.225 1759.47 382.541L1718.42 509.298C1713.86 508.215 1708.3 510.697 1708.3 516.744L1708.35 516.744ZM1877.42 453.929C1877.42 454.787 1877.55 455.554 1877.78 456.276L1723.88 513.946C1723.07 511.599 1721.26 510.065 1719.1 509.388L1760.14 382.631C1763.17 383.308 1766.56 382.451 1768.54 379.969L1878.5 449.823C1877.87 450.951 1877.42 452.26 1877.42 453.839L1877.42 453.929ZM1919.73 447.476L1919.73 449.507L1893.27 452.576C1892.18 445.356 1882.47 444.273 1878.77 449.372L1768.86 379.518C1768.86 379.518 1769.04 379.247 1769.08 379.112L1919.73 447.476ZM1919.73 417.062L1919.73 446.754L1769.4 378.525C1769.85 377.577 1770.08 376.449 1770.08 375.141C1770.08 371.666 1768.23 369.365 1765.83 368.236L1876.83 131.78C1878 132.186 1879.31 132.322 1880.53 132.186L1919.68 416.972L1919.73 417.062ZM1919.73 412.369L1881.21 132.231C1884.69 131.69 1887.8 129.163 1887.8 124.605C1887.8 120.905 1885.73 118.558 1883.11 117.52L1919.73 26.8638L1919.73 412.369ZM1919.73 1.90961L1919.73 25.1491L1882.52 117.295C1879.09 116.212 1874.98 117.295 1872.99 120.409L1666.04 1.90958L1919.77 1.90961L1919.73 1.90961ZM1664.73 1.90958L1872.63 120.95C1872.36 121.446 1872.18 121.988 1872 122.62L1579.65 56.2855C1579.74 55.7891 1579.79 55.3379 1579.79 54.7963C1579.79 52.2693 1578.84 50.3741 1577.35 49.0654L1621.87 1.95468L1664.68 1.95469L1664.73 1.90958ZM1621.06 1.90958L1576.94 48.6593C1572.83 45.6359 1565.79 46.8994 1564.21 52.4498L1373.51 1.90954L1621.06 1.90958ZM1371.02 1.90954L1564.03 53.0365C1563.94 53.578 1563.84 54.1195 1563.84 54.7512C1563.84 56.9172 1564.57 58.632 1565.74 59.8955L1469.06 151.906C1466.26 149.559 1461.74 149.469 1458.72 151.545L1338.92 1.86437L1370.98 1.86438L1371.02 1.90954ZM1338.15 1.90954L1458.27 151.951C1457.59 152.538 1457 153.26 1456.6 154.072L1270.1 61.4297C1270.55 60.4821 1270.77 59.354 1270.77 58.0453C1270.77 55.6086 1269.87 53.8035 1268.52 52.4949L1318.73 1.90954L1338.19 1.90954L1338.15 1.90954ZM1317.74 1.90954L1267.97 52.0888C1263.64 48.6593 1255.65 50.2838 1254.79 56.9172L1099.63 40.7624C1099.63 40.0855 1099.54 39.4537 1099.4 38.8671L1276.64 1.86436L1317.69 1.86437L1317.74 1.90954ZM1273.57 1.90953L1099.27 38.2804C1097.14 31.5568 1086.71 31.3763 1084.23 37.8743L957.337 1.90949L1273.57 1.90953ZM954.943 1.90949L1084 38.4609C1083.78 39.1829 1083.64 39.9501 1083.64 40.8075C1083.64 41.3038 1083.73 41.8002 1083.78 42.2515L929.791 89.9037C928.617 86.6547 925.546 84.985 922.385 84.985L927.578 1.90948L954.898 1.90949L954.943 1.90949ZM926.991 1.90948L921.798 85.0302C918.637 85.2107 915.656 87.0157 914.708 90.4452L758.464 44.2821C758.644 43.5601 758.78 42.8381 758.78 41.9807C758.78 41.1684 758.644 40.4916 758.464 39.8147L899.219 1.95459L926.991 1.95459L926.991 1.90948ZM896.735 1.90948L758.238 39.1829C756.161 33.3617 747.761 32.6849 744.284 37.1974L703.191 1.90945L896.735 1.90948ZM702.243 1.90945L743.968 37.7389C743.246 38.867 742.794 40.2659 742.794 41.9807C742.794 43.3796 743.11 44.5979 743.652 45.6358L594.001 152.718C593.459 151.996 592.781 151.455 592.059 151.003L685.805 1.95456L702.288 1.95456L702.243 1.90945ZM684.948 1.90945L591.427 150.642C588.266 149.018 583.976 149.469 581.492 152.086L461.419 42.2965C462.683 41.033 463.541 39.228 463.541 36.8815C463.541 36.4753 463.496 36.0692 463.406 35.6631L641.958 1.86428L684.948 1.86429L684.948 1.90945ZM638.526 1.90945L463.36 35.0313C461.735 27.36 450.039 27.2247 447.917 34.4898L336.559 1.90941L638.526 1.90945ZM334.256 1.90941L447.691 35.1216C447.555 35.6631 447.51 36.2497 447.51 36.8815C447.51 39.0024 448.233 40.672 449.317 41.9355L317.141 167.113C315.696 165.849 313.799 165.173 311.812 165.127L308.426 1.9094L334.256 1.90941ZM307.793 1.9094L311.18 165.127C310.684 165.127 310.232 165.218 309.78 165.308L271.351 37.1522C274.783 36.5656 277.809 34.0385 277.809 29.5711C277.809 27.0442 276.861 25.1488 275.416 23.8854L299.62 1.95451L307.839 1.95451L307.793 1.9094Z" fill="#BB94FF" fill-opacity="0.3"/>
</svg>
