<svg width="58" height="59" viewBox="0 0 58 59" fill="none" xmlns="http://www.w3.org/2000/svg">
<g clip-path="url(#clip0_77_719)">
<g filter="url(#filter0_d_77_719)">
<path d="M44.4515 19.82C44.4515 10.9576 36.9927 3.84098 28.0143 4.39778C20.4337 4.86758 14.2219 10.9576 13.6013 18.5208C13.1373 24.1816 15.7299 29.2566 19.9059 32.3016C21.1065 33.1774 21.8373 33.3282 21.8373 34.813V41.3496H36.1691V34.813C36.1691 33.3282 36.9057 33.1774 38.1063 32.3016C41.9575 29.4944 44.4573 24.953 44.4573 19.82H44.4515Z" fill="#FFBB0A"/>
</g>
<path d="M35.3337 21.6525C35.3337 19.6863 33.7329 18.0913 31.7725 18.0913C30.6589 18.0913 29.6787 18.6133 29.0233 19.4137C28.3679 18.6133 27.3877 18.0913 26.2741 18.0913C24.3079 18.0913 22.7129 19.6921 22.7129 21.6525C22.7129 22.6037 23.0899 23.4621 23.6989 24.1001L26.4655 40.9723C26.5409 41.4595 26.9643 41.8133 27.4399 41.8133C27.4921 41.8133 27.5385 41.8133 27.5907 41.8017C28.1301 41.7205 28.5013 41.2159 28.4201 40.6707L25.8623 25.1731C25.9957 25.1905 26.1291 25.2137 26.2741 25.2137C27.3877 25.2137 28.3679 24.6917 29.0233 23.8913C29.6787 24.6917 30.6589 25.2137 31.7725 25.2137C31.9291 25.2137 32.0857 25.1847 32.2365 25.1673L29.6787 40.6707C29.5975 41.2101 29.9687 41.7147 30.5081 41.8017C30.5603 41.8075 30.6067 41.8133 30.6589 41.8133C31.1403 41.8133 31.5637 41.4653 31.6333 40.9723L34.4115 24.0131C34.9741 23.3809 35.3279 22.5573 35.3279 21.6467L35.3337 21.6525ZM30.1891 21.6525C30.1891 20.7825 30.8967 20.0691 31.7725 20.0691C32.6483 20.0691 33.3559 20.7767 33.3559 21.6525C33.3559 22.5283 32.6483 23.2359 31.7725 23.2359C30.8967 23.2359 30.1891 22.5283 30.1891 21.6525ZM26.2741 23.2359C25.8739 23.2359 25.5143 23.0851 25.2359 22.8357C25.2243 22.8299 25.2185 22.8183 25.2069 22.8125C24.8937 22.5225 24.6907 22.1107 24.6907 21.6525C24.6907 20.7825 25.3983 20.0691 26.2741 20.0691C27.1499 20.0691 27.8575 20.7767 27.8575 21.6525C27.8575 22.5283 27.1499 23.2359 26.2741 23.2359Z" fill="white"/>
<path d="M37.9785 41.3496H20.0159C18.8179 41.3496 17.8467 42.3208 17.8467 43.5188V43.6058C17.8467 44.8038 18.8179 45.775 20.0159 45.775H37.9785C39.1765 45.775 40.1477 44.8038 40.1477 43.6058V43.5188C40.1477 42.3208 39.1765 41.3496 37.9785 41.3496Z" fill="#004A7E"/>
<path d="M37.9785 45.7749H20.0159C18.8179 45.7749 17.8467 46.7461 17.8467 47.9441V48.0311C17.8467 49.2291 18.8179 50.2003 20.0159 50.2003H37.9785C39.1765 50.2003 40.1477 49.2291 40.1477 48.0311V47.9441C40.1477 46.7461 39.1765 45.7749 37.9785 45.7749Z" fill="#004A7E"/>
<path d="M37.9785 50.2061H20.0159C18.8179 50.2061 17.8467 51.1772 17.8467 52.3753V52.4623C17.8467 53.6603 18.8179 54.6315 20.0159 54.6315H37.9785C39.1765 54.6315 40.1477 53.6603 40.1477 52.4623V52.3753C40.1477 51.1772 39.1765 50.2061 37.9785 50.2061Z" fill="#004A7E"/>
<path d="M44.4515 19.82C44.4515 10.9576 36.9927 3.84098 28.0143 4.39778C20.4337 4.86758 14.2219 10.9576 13.6013 18.5208C13.1373 24.1816 15.7299 29.2566 19.9059 32.3016C21.1065 33.1774 21.8373 33.3282 21.8373 34.813V41.3496H36.1691V34.813C36.1691 33.3282 36.9057 33.1774 38.1063 32.3016C41.9575 29.4944 44.4573 24.953 44.4573 19.82H44.4515Z" fill="url(#paint0_linear_77_719)"/>
<path d="M35.3337 21.6525C35.3337 19.6863 33.7329 18.0913 31.7725 18.0913C30.6589 18.0913 29.6787 18.6133 29.0233 19.4137C28.3679 18.6133 27.3877 18.0913 26.2741 18.0913C24.3079 18.0913 22.7129 19.6921 22.7129 21.6525C22.7129 22.6037 23.0899 23.4621 23.6989 24.1001L26.4655 40.9723C26.5409 41.4595 26.9643 41.8133 27.4399 41.8133C27.4921 41.8133 27.5385 41.8133 27.5907 41.8017C28.1301 41.7205 28.5013 41.2159 28.4201 40.6707L25.8623 25.1731C25.9957 25.1905 26.1291 25.2137 26.2741 25.2137C27.3877 25.2137 28.3679 24.6917 29.0233 23.8913C29.6787 24.6917 30.6589 25.2137 31.7725 25.2137C31.9291 25.2137 32.0857 25.1847 32.2365 25.1673L29.6787 40.6707C29.5975 41.2101 29.9687 41.7147 30.5081 41.8017C30.5603 41.8075 30.6067 41.8133 30.6589 41.8133C31.1403 41.8133 31.5637 41.4653 31.6333 40.9723L34.4115 24.0131C34.9741 23.3809 35.3279 22.5573 35.3279 21.6467L35.3337 21.6525ZM30.1891 21.6525C30.1891 20.7825 30.8967 20.0691 31.7725 20.0691C32.6483 20.0691 33.3559 20.7767 33.3559 21.6525C33.3559 22.5283 32.6483 23.2359 31.7725 23.2359C30.8967 23.2359 30.1891 22.5283 30.1891 21.6525ZM26.2741 23.2359C25.8739 23.2359 25.5143 23.0851 25.2359 22.8357C25.2243 22.8299 25.2185 22.8183 25.2069 22.8125C24.8937 22.5225 24.6907 22.1107 24.6907 21.6525C24.6907 20.7825 25.3983 20.0691 26.2741 20.0691C27.1499 20.0691 27.8575 20.7767 27.8575 21.6525C27.8575 22.5283 27.1499 23.2359 26.2741 23.2359Z" fill="white"/>
<path d="M37.9785 41.3496H20.0159C18.8179 41.3496 17.8467 42.3208 17.8467 43.5188V43.6058C17.8467 44.8038 18.8179 45.775 20.0159 45.775H37.9785C39.1765 45.775 40.1477 44.8038 40.1477 43.6058V43.5188C40.1477 42.3208 39.1765 41.3496 37.9785 41.3496Z" fill="#022E9E"/>
<path d="M37.9785 45.7749H20.0159C18.8179 45.7749 17.8467 46.7461 17.8467 47.9441V48.0311C17.8467 49.2291 18.8179 50.2003 20.0159 50.2003H37.9785C39.1765 50.2003 40.1477 49.2291 40.1477 48.0311V47.9441C40.1477 46.7461 39.1765 45.7749 37.9785 45.7749Z" fill="#022E9E"/>
<path d="M37.9785 50.2061H20.0159C18.8179 50.2061 17.8467 51.1772 17.8467 52.3753V52.4623C17.8467 53.6603 18.8179 54.6315 20.0159 54.6315H37.9785C39.1765 54.6315 40.1477 53.6603 40.1477 52.4623V52.3753C40.1477 51.1772 39.1765 50.2061 37.9785 50.2061Z" fill="#022E9E"/>
</g>
<defs>
<filter id="filter0_d_77_719" x="9.54785" y="0.367188" width="38.9092" height="44.9824" filterUnits="userSpaceOnUse" color-interpolation-filters="sRGB">
<feFlood flood-opacity="0" result="BackgroundImageFix"/>
<feColorMatrix in="SourceAlpha" type="matrix" values="0 0 0 0 0 0 0 0 0 0 0 0 0 0 0 0 0 0 127 0" result="hardAlpha"/>
<feOffset/>
<feGaussianBlur stdDeviation="2"/>
<feComposite in2="hardAlpha" operator="out"/>
<feColorMatrix type="matrix" values="0 0 0 0 1 0 0 0 0 0.733333 0 0 0 0 0.0392157 0 0 0 0.6 0"/>
<feBlend mode="normal" in2="BackgroundImageFix" result="effect1_dropShadow_77_719"/>
<feBlend mode="normal" in="SourceGraphic" in2="effect1_dropShadow_77_719" result="shape"/>
</filter>
<linearGradient id="paint0_linear_77_719" x1="29.0003" y1="41.3496" x2="29.0003" y2="4.36878" gradientUnits="userSpaceOnUse">
<stop stop-color="#FF990A"/>
<stop offset="0.4" stop-color="#FFBA0A"/>
<stop offset="1" stop-color="#FFBA0A"/>
</linearGradient>
<clipPath id="clip0_77_719">
<rect width="58" height="58" fill="white" transform="translate(0 0.5)"/>
</clipPath>
</defs>
</svg>
