<svg width="26" height="26" viewBox="0 0 26 26" fill="none" xmlns="http://www.w3.org/2000/svg">
<g clip-path="url(#clip0_71_605)">
<path d="M13 0C5.8188 0 0 5.8188 0 13C0 20.1812 5.8188 26 13 26C20.1812 26 26 20.1812 26 13C26 5.8188 20.1812 0 13 0ZM12.9948 20.9664C12.168 20.9664 11.5024 20.2956 11.5024 19.474C11.5024 18.6524 12.1732 17.9816 12.9948 17.9816C13.8164 17.9816 14.4872 18.6524 14.4872 19.474C14.4872 20.2956 13.8164 20.9664 12.9948 20.9664ZM14.4872 14.7524C14.4872 15.5792 13.8164 16.2448 12.9948 16.2448C12.1732 16.2448 11.5024 15.574 11.5024 14.7524V6.6092C11.5024 5.7824 12.1732 5.1168 12.9948 5.1168C13.8164 5.1168 14.4872 5.7876 14.4872 6.6092V14.7524Z" fill="url(#paint0_linear_71_605)"/>
</g>
<defs>
<linearGradient id="paint0_linear_71_605" x1="13" y1="0" x2="13" y2="26" gradientUnits="userSpaceOnUse">
<stop stop-color="#FF5900"/>
<stop offset="1" stop-color="#FF1500"/>
</linearGradient>
<clipPath id="clip0_71_605">
<rect width="26" height="26" fill="white"/>
</clipPath>
</defs>
</svg>
