<svg width="58" height="59" viewBox="0 0 58 59" fill="none" xmlns="http://www.w3.org/2000/svg">
<g clip-path="url(#clip0_77_736)">
<path d="M19.2913 8.5152C19.9177 7.8946 20.3295 7.0478 20.3933 6.114C20.5267 4.0608 18.7867 2.17 16.7277 2.141C14.6687 2.112 12.9519 3.7882 12.9519 5.8646C12.9519 6.9028 13.3753 7.8366 14.0597 8.5152H8.22488C7.23888 8.5152 6.43848 9.3156 6.43848 10.3016V28.9892H26.9183V8.5152H19.2971H19.2913Z" fill="#004A7E"/>
<path d="M53.1569 19.4308C52.9249 20.7474 51.9621 21.861 50.6977 22.2844C49.4333 22.7078 48.2965 22.441 47.3975 21.832V28.995H39.9967C40.6521 28.1946 40.9769 27.1042 40.7739 25.9558C40.5071 24.471 39.3181 23.2704 37.8391 22.9862C35.4669 22.5338 33.3905 24.3434 33.3905 26.646C33.3905 27.5334 33.7037 28.357 34.2257 28.995H26.9235V21.7624C26.3899 22.151 25.7577 22.4062 25.0617 22.47C22.9969 22.6556 21.0655 20.9446 21.0017 18.8682C20.9379 16.7918 22.6315 15.0286 24.7195 15.0286C25.5431 15.0286 26.2971 15.3012 26.9177 15.7536V8.521H45.6111C46.5971 8.521 47.3975 9.3214 47.3975 10.3074V15.684C47.9949 15.2722 48.7199 15.0344 49.4913 15.0344C51.7707 15.0344 53.5745 17.0818 53.1569 19.4366V19.4308Z" fill="url(#paint0_linear_77_736)"/>
<path d="M32.7589 39.2499C32.7125 41.2915 30.8159 43.0141 28.7801 42.8749C28.0899 42.8285 27.4577 42.5907 26.9183 42.2253V47.6889C26.9183 48.6749 26.1179 49.4753 25.1319 49.4753H8.22488C7.23888 49.4753 6.43848 48.6749 6.43848 47.6889V42.5443C6.95468 42.8459 7.54628 43.0199 8.18428 43.0431C10.2143 43.1069 11.9775 41.4365 12.0239 39.4065C12.0703 37.3765 10.3883 35.5901 8.30028 35.5901C7.62168 35.5901 6.98368 35.7699 6.43848 36.0889V29.0013H13.4681C13.1491 28.4619 12.9577 27.8413 12.9461 27.1743C12.9113 25.1443 14.6049 23.4043 16.6349 23.3869C18.6649 23.3695 20.3991 25.0399 20.3991 27.1105C20.3991 27.8007 20.2077 28.4445 19.8713 29.0013H26.9067V36.1063C27.5099 35.6829 28.2349 35.4393 29.0295 35.4393C31.1175 35.4393 32.7995 37.1561 32.7473 39.2557L32.7589 39.2499Z" fill="#53BDFF"/>
<g filter="url(#filter0_d_77_736)">
<path d="M52.4014 27.9494H46.787C47.4366 27.149 47.7672 26.0818 47.5642 24.9334C47.309 23.4428 46.1258 22.2306 44.641 21.9464C42.2572 21.4882 40.175 23.2978 40.175 25.6004C40.175 26.4936 40.4882 27.3114 41.0102 27.9494H33.708V35.0544C34.2416 34.6832 34.8738 34.4454 35.564 34.399C37.5998 34.254 39.4906 35.9708 39.5486 38.0066C39.6066 40.0424 37.9246 41.8346 35.8308 41.8346C35.042 41.8346 34.3112 41.591 33.708 41.1734V46.637C33.708 47.623 34.5084 48.4234 35.4944 48.4234H41.2248C40.494 49.2122 40.088 50.3142 40.262 51.509C40.4824 53.0344 41.6714 54.3046 43.1852 54.6062C45.569 55.0818 47.6686 53.2606 47.6686 50.958C47.6686 49.9778 47.2916 49.0846 46.6652 48.4234H52.3956C53.3816 48.4234 54.182 47.623 54.182 46.637V29.7358C54.182 28.7498 53.3816 27.9494 52.3956 27.9494H52.4014Z" fill="#81E8C7"/>
</g>
<path d="M19.2913 8.5152C19.9177 7.8946 20.3295 7.0478 20.3933 6.114C20.5267 4.0608 18.7867 2.17 16.7277 2.141C14.6687 2.112 12.9519 3.7882 12.9519 5.8646C12.9519 6.9028 13.3753 7.8366 14.0597 8.5152H8.22488C7.23888 8.5152 6.43848 9.3156 6.43848 10.3016V28.9892H26.9183V8.5152H19.2971H19.2913Z" fill="#022E9E"/>
<path d="M53.1569 19.4308C52.9249 20.7474 51.9621 21.861 50.6977 22.2844C49.4333 22.7078 48.2965 22.441 47.3975 21.832V28.995H39.9967C40.6521 28.1946 40.9769 27.1042 40.7739 25.9558C40.5071 24.471 39.3181 23.2704 37.8391 22.9862C35.4669 22.5338 33.3905 24.3434 33.3905 26.646C33.3905 27.5334 33.7037 28.357 34.2257 28.995H26.9235V21.7624C26.3899 22.151 25.7577 22.4062 25.0617 22.47C22.9969 22.6556 21.0655 20.9446 21.0017 18.8682C20.9379 16.7918 22.6315 15.0286 24.7195 15.0286C25.5431 15.0286 26.2971 15.3012 26.9177 15.7536V8.521H45.6111C46.5971 8.521 47.3975 9.3214 47.3975 10.3074V15.684C47.9949 15.2722 48.7199 15.0344 49.4913 15.0344C51.7707 15.0344 53.5745 17.0818 53.1569 19.4366V19.4308Z" fill="url(#paint1_linear_77_736)"/>
<path d="M32.7589 39.2499C32.7125 41.2915 30.8159 43.0141 28.7801 42.8749C28.0899 42.8285 27.4577 42.5907 26.9183 42.2253V47.6889C26.9183 48.6749 26.1179 49.4753 25.1319 49.4753H8.22488C7.23888 49.4753 6.43848 48.6749 6.43848 47.6889V42.5443C6.95468 42.8459 7.54628 43.0199 8.18428 43.0431C10.2143 43.1069 11.9775 41.4365 12.0239 39.4065C12.0703 37.3765 10.3883 35.5901 8.30028 35.5901C7.62168 35.5901 6.98368 35.7699 6.43848 36.0889V29.0013H13.4681C13.1491 28.4619 12.9577 27.8413 12.9461 27.1743C12.9113 25.1443 14.6049 23.4043 16.6349 23.3869C18.6649 23.3695 20.3991 25.0399 20.3991 27.1105C20.3991 27.8007 20.2077 28.4445 19.8713 29.0013H26.9067V36.1063C27.5099 35.6829 28.2349 35.4393 29.0295 35.4393C31.1175 35.4393 32.7995 37.1561 32.7473 39.2557L32.7589 39.2499Z" fill="#336CFF"/>
<path d="M52.4014 27.9494H46.787C47.4366 27.149 47.7672 26.0818 47.5642 24.9334C47.309 23.4428 46.1258 22.2306 44.641 21.9464C42.2572 21.4882 40.175 23.2978 40.175 25.6004C40.175 26.4936 40.4882 27.3114 41.0102 27.9494H33.708V35.0544C34.2416 34.6832 34.8738 34.4454 35.564 34.399C37.5998 34.254 39.4906 35.9708 39.5486 38.0066C39.6066 40.0424 37.9246 41.8346 35.8308 41.8346C35.042 41.8346 34.3112 41.591 33.708 41.1734V46.637C33.708 47.623 34.5084 48.4234 35.4944 48.4234H41.2248C40.494 49.2122 40.088 50.3142 40.262 51.509C40.4824 53.0344 41.6714 54.3046 43.1852 54.6062C45.569 55.0818 47.6686 53.2606 47.6686 50.958C47.6686 49.9778 47.2916 49.0846 46.6652 48.4234H52.3956C53.3816 48.4234 54.182 47.623 54.182 46.637V29.7358C54.182 28.7498 53.3816 27.9494 52.3956 27.9494H52.4014Z" fill="white"/>
</g>
<defs>
<filter id="filter0_d_77_736" x="29.708" y="17.875" width="28.4736" height="40.8071" filterUnits="userSpaceOnUse" color-interpolation-filters="sRGB">
<feFlood flood-opacity="0" result="BackgroundImageFix"/>
<feColorMatrix in="SourceAlpha" type="matrix" values="0 0 0 0 0 0 0 0 0 0 0 0 0 0 0 0 0 0 127 0" result="hardAlpha"/>
<feOffset/>
<feGaussianBlur stdDeviation="2"/>
<feComposite in2="hardAlpha" operator="out"/>
<feColorMatrix type="matrix" values="0 0 0 0 0.454167 0 0 0 0 0.606679 0 0 0 0 1 0 0 0 0.6 0"/>
<feBlend mode="normal" in2="BackgroundImageFix" result="effect1_dropShadow_77_736"/>
<feBlend mode="normal" in="SourceGraphic" in2="effect1_dropShadow_77_736" result="shape"/>
</filter>
<linearGradient id="paint0_linear_77_736" x1="37.1087" y1="8.521" x2="37.1087" y2="28.995" gradientUnits="userSpaceOnUse">
<stop stop-color="#53BDFF"/>
<stop offset="1" stop-color="#81E8C7"/>
</linearGradient>
<linearGradient id="paint1_linear_77_736" x1="37.1087" y1="8.521" x2="37.1087" y2="28.995" gradientUnits="userSpaceOnUse">
<stop stop-color="#336CFF"/>
<stop offset="1" stop-color="#799FFF"/>
</linearGradient>
<clipPath id="clip0_77_736">
<rect width="58" height="58" fill="white" transform="translate(0 0.5)"/>
</clipPath>
</defs>
</svg>
