<svg width="58" height="58" viewBox="0 0 58 58" fill="none" xmlns="http://www.w3.org/2000/svg">
<g clip-path="url(#clip0_70_44)">
<path d="M32.8397 31.5053L28.8725 33.2917L21.0309 36.8181L9.81371 11.8781C9.13511 10.3759 9.55271 8.6069 10.8287 7.5571L19.0415 0.829102L28.8725 22.6893L32.8397 31.5053Z" fill="#004A7E"/>
<path d="M48.2387 11.2053L36.7141 36.8181L28.8725 33.2917L24.9053 31.5053L28.8725 22.6893L38.7035 0.829102L47.0207 6.7335C48.4417 7.7427 48.9521 9.6161 48.2387 11.2053Z" fill="#004A7E"/>
<g filter="url(#filter0_d_70_44)">
<path d="M28.8782 57.166C39.6123 57.166 48.314 48.4643 48.314 37.7302C48.314 26.9961 39.6123 18.2944 28.8782 18.2944C18.1441 18.2944 9.44238 26.9961 9.44238 37.7302C9.44238 48.4643 18.1441 57.166 28.8782 57.166Z" fill="url(#paint0_linear_70_44)"/>
</g>
<path d="M28.8787 23.8203L33.1011 32.3753L42.5377 33.7499L35.7053 40.4083L37.3177 49.8101L28.8787 45.3731L20.4339 49.8101L22.0463 40.4083L15.2139 33.7499L24.6563 32.3753L28.8787 23.8203Z" fill="white"/>
<path d="M38.704 0.829102H19.042L23.6936 11.1647H34.0582L38.704 0.829102Z" fill="#0C3049"/>
<path d="M32.8397 31.5053L28.8725 33.2917L21.0309 36.8181L9.81371 11.8781C9.13511 10.3759 9.55271 8.6069 10.8287 7.5571L19.0415 0.829102L28.8725 22.6893L32.8397 31.5053Z" fill="#022E9E"/>
<path d="M48.2387 11.2053L36.7141 36.8181L28.8725 33.2917L24.9053 31.5053L28.8725 22.6893L38.7035 0.829102L47.0207 6.7335C48.4417 7.7427 48.9521 9.6161 48.2387 11.2053Z" fill="#022E9E"/>
<path d="M28.8782 57.166C39.6123 57.166 48.314 48.4643 48.314 37.7302C48.314 26.9961 39.6123 18.2944 28.8782 18.2944C18.1441 18.2944 9.44238 26.9961 9.44238 37.7302C9.44238 48.4643 18.1441 57.166 28.8782 57.166Z" fill="url(#paint1_linear_70_44)"/>
<path d="M28.8787 23.8203L33.1011 32.3753L42.5377 33.7499L35.7053 40.4083L37.3177 49.8101L28.8787 45.3731L20.4339 49.8101L22.0463 40.4083L15.2139 33.7499L24.6563 32.3753L28.8787 23.8203Z" fill="white"/>
<path d="M38.704 0.829102H19.042L23.6936 11.1647H34.0582L38.704 0.829102Z" fill="#1A253F"/>
</g>
<defs>
<filter id="filter0_d_70_44" x="5.44238" y="14.2944" width="46.8721" height="46.8716" filterUnits="userSpaceOnUse" color-interpolation-filters="sRGB">
<feFlood flood-opacity="0" result="BackgroundImageFix"/>
<feColorMatrix in="SourceAlpha" type="matrix" values="0 0 0 0 0 0 0 0 0 0 0 0 0 0 0 0 0 0 127 0" result="hardAlpha"/>
<feOffset/>
<feGaussianBlur stdDeviation="2"/>
<feComposite in2="hardAlpha" operator="out"/>
<feColorMatrix type="matrix" values="0 0 0 0 0 0 0 0 0 0.704167 0 0 0 0 0.303391 0 0 0 0.6 0"/>
<feBlend mode="normal" in2="BackgroundImageFix" result="effect1_dropShadow_70_44"/>
<feBlend mode="normal" in="SourceGraphic" in2="effect1_dropShadow_70_44" result="shape"/>
</filter>
<linearGradient id="paint0_linear_70_44" x1="28.8782" y1="18.2944" x2="28.8782" y2="57.166" gradientUnits="userSpaceOnUse">
<stop stop-color="#53BDFF"/>
<stop offset="0.6" stop-color="#53BDFF"/>
<stop offset="1" stop-color="#81E8C7"/>
</linearGradient>
<linearGradient id="paint1_linear_70_44" x1="28.8782" y1="18.2944" x2="28.8782" y2="57.166" gradientUnits="userSpaceOnUse">
<stop stop-color="#02BE53"/>
<stop offset="0.6" stop-color="#29B866"/>
<stop offset="1" stop-color="#00A748"/>
</linearGradient>
<clipPath id="clip0_70_44">
<rect width="58" height="58" fill="white"/>
</clipPath>
</defs>
</svg>
