<svg width="44" height="30" viewBox="0 0 44 30" fill="none" xmlns="http://www.w3.org/2000/svg">
<g clip-path="url(#clip0_56_973)">
<path d="M2.61283 27.0629C0.94062 25.1748 1.96243e-06 22.4476 1.65981e-06 18.986C1.27466e-06 14.5804 1.35867 10.5944 4.18052 6.92308C6.89786 3.35664 10.3468 1.04895 14.4228 -1.26088e-06L15.677 3.35664C13.7957 3.98601 12.228 5.03496 10.8694 6.29371C9.51069 7.55245 8.7791 8.70629 8.7791 9.75524C8.7791 10.8042 9.19715 11.4336 10.1378 11.4336C12.7506 11.4336 14.8409 12.2727 16.5131 13.8462C18.1853 15.4196 18.9169 17.5175 18.9169 20.1399C18.9169 22.972 18.0808 25.3846 16.304 27.1678C14.6318 29.0559 12.4371 29.8951 9.71972 29.8951C6.58433 29.8951 4.18052 28.951 2.50832 26.958L2.61283 27.0629ZM29.3682 6.71328C32.19 3.14685 35.639 0.944053 39.5059 -3.45372e-06L40.7601 3.35664C38.8789 3.98601 37.3112 5.03496 35.9525 6.2937C34.5938 7.55244 33.8622 8.70629 33.8622 9.75524C33.8622 10.8042 34.3848 11.4336 35.3254 11.4336C37.8337 11.4336 39.924 12.2727 41.4917 13.8462C43.1639 15.4196 43.8955 17.5175 43.8955 20.1399C43.8955 22.972 43.0594 25.3846 41.2827 27.1678C39.6104 29.0559 37.4157 29.8951 34.6983 29.8951C31.5629 29.8951 29.0546 28.8462 27.3824 26.8531C25.7102 24.8601 24.8741 21.9231 24.8741 18.042C24.8741 14.1608 26.3373 10.1748 29.1591 6.60839L29.3682 6.71328Z" fill="white"/>
</g>
<defs>
<clipPath id="clip0_56_973">
<rect width="44" height="30" fill="white"/>
</clipPath>
</defs>
</svg>
