<svg width="98" height="48" viewBox="0 0 98 48" fill="none" xmlns="http://www.w3.org/2000/svg">
<g clip-path="url(#clip0_70_547)">
<path d="M53.3174 48L97.075 42.7117L98 25.0753L47.9082 31.6514L53.3174 48Z" fill="#D9DDE8"/>
<path d="M57.5996 34.9591L59.6293 34.5897L60.4497 41.2377C60.4562 41.29 60.4824 41.3357 60.5248 41.3684C60.5575 41.3946 60.6 41.4076 60.6392 41.4076C60.649 41.4076 60.6588 41.4076 60.6687 41.4076L63.7017 40.937L63.9109 42.6464L58.6913 43.4602L57.5996 34.9656V34.9591Z" fill="white"/>
<path d="M64.2996 37.4756L66.0155 37.2338L66.5156 42.2377L64.8356 42.509L64.2964 37.4756H64.2996ZM64.9174 36.6814C64.4532 36.6814 63.9434 36.3578 63.8682 35.7368C63.7865 35.057 64.2865 34.5537 64.7964 34.472C64.8487 34.4654 64.8977 34.4622 64.95 34.4622C65.4142 34.4622 65.924 34.7857 65.9992 35.4067C66.0809 36.0866 65.5841 36.5899 65.071 36.6716C65.0187 36.6781 64.9664 36.6814 64.9174 36.6847V36.6814Z" fill="white"/>
<path d="M66.6494 33.7039L68.4895 33.449L68.7477 36.0376C68.6889 35.9951 68.7216 36.0474 68.7706 36.0768C68.7968 36.0931 68.8262 36.0997 68.8556 36.1029C68.8817 36.1029 68.9079 36.0997 68.934 36.0866C69.055 36.0343 69.189 36.0016 69.372 35.9787C69.5289 35.9591 69.6858 35.9526 69.8427 35.9559C71.052 35.9918 72.3463 36.8122 72.5064 38.5608C72.66 40.2506 71.7906 41.4108 70.3852 41.5873C70.2872 41.6004 70.1891 41.6037 70.0943 41.6004C69.8884 41.5939 69.6956 41.5547 69.5093 41.4729C69.4864 41.4631 69.4668 41.4599 69.4439 41.4566C69.4047 41.4566 69.3622 41.4697 69.3295 41.4926C69.2772 41.5285 69.2511 41.5939 69.2576 41.656L69.3034 42.143L67.7476 42.4469L66.6494 33.7039ZM69.4733 37.7764C69.3426 37.7698 69.2086 37.7764 69.0746 37.7927C68.9602 37.8058 68.8785 37.9038 68.8883 38.0182L69.0909 40.2015C69.0975 40.2996 69.1726 40.378 69.2707 40.3911C69.3785 40.4074 69.4929 40.4238 69.6106 40.4271C69.689 40.4271 69.7708 40.427 69.8492 40.4205C70.5879 40.3388 70.9735 39.8159 70.9082 38.9857C70.8461 38.149 70.3166 37.8123 69.4766 37.7764H69.4733Z" fill="white"/>
<path d="M72.7646 35.0538L74.3694 34.8577L74.5034 35.7434C74.5132 35.8088 74.5623 35.8643 74.6309 35.8839C74.6473 35.8872 74.6636 35.8905 74.6767 35.8905C74.729 35.8905 74.7845 35.8709 74.8172 35.8317C75.2944 35.3054 75.752 35.0309 76.2553 34.9688C76.3207 34.959 76.3795 34.9524 76.4351 34.9557C76.4776 34.9557 76.4939 34.9623 76.4939 34.9623L76.6671 36.5049C76.0233 36.5899 75.1963 36.8547 74.8205 37.5999C74.8041 37.6293 74.8009 37.6652 74.8041 37.6979L75.3434 41.1919L73.6994 41.4272L72.7646 35.0538Z" fill="white"/>
<path d="M82.181 33.7595L83.7858 33.5536L83.9263 34.4393C83.9361 34.5047 83.9884 34.5603 84.0538 34.5799C84.0702 34.5799 84.0865 34.5831 84.0996 34.5831C84.1519 34.5831 84.2042 34.5635 84.2401 34.5243C84.714 33.9948 85.1683 33.717 85.6717 33.6516C85.737 33.6418 85.7959 33.6353 85.8514 33.6353C85.8939 33.6353 85.9103 33.6418 85.9103 33.6418L86.0933 35.1845C85.4494 35.276 84.6225 35.5408 84.2532 36.2925C84.2368 36.3219 84.2336 36.3546 84.2368 36.3906L84.7957 39.8812L83.1517 40.1264L82.1777 33.7595H82.181Z" fill="white"/>
<path d="M80.8349 40.3389C80.812 40.2212 80.799 40.1035 80.7859 39.9859L80.7597 39.7865C80.7499 39.7244 80.7107 39.6688 80.6519 39.646C80.6257 39.6329 80.5963 39.6296 80.5669 39.6329C80.5342 39.6329 80.5015 39.646 80.4754 39.6623C80.1028 39.9205 79.6844 40.1035 79.2334 40.2049C79.07 40.2408 78.9131 40.2637 78.7595 40.2735C78.0894 40.316 77.2429 40.1199 77.0174 38.9367C76.6775 37.126 78.9883 36.5148 79.4556 36.4135C79.6289 36.3743 79.8152 36.3481 80.0374 36.335L80.0962 36.3318C80.1485 36.3318 80.1943 36.3024 80.227 36.2631C80.2597 36.2206 80.2727 36.1684 80.2629 36.1193C80.2531 36.067 80.2466 36.018 80.2401 35.9657C80.2335 35.9069 80.2237 35.848 80.2139 35.7892C80.1191 35.2957 79.7269 34.9558 79.2759 34.9852C79.2334 34.9852 79.1909 34.9917 79.1484 35.0048C78.6255 35.1225 78.5078 35.5147 78.4457 35.7271C78.4359 35.7631 78.4228 35.8088 78.413 35.835L76.9814 36.3906C77.0926 35.1388 77.7887 34.2531 78.8542 34.0177C79.0569 33.972 79.253 33.9426 79.436 33.9295C80.5702 33.8576 81.2598 34.4296 81.4853 35.6356C81.6684 36.6129 81.7926 37.6195 81.9102 38.5935C81.9527 38.9465 81.9952 39.3028 82.0442 39.6525C82.0508 39.7081 82.0606 39.7702 82.0704 39.8323C82.0834 39.9074 82.0965 39.9826 82.0998 40.0512C82.0998 40.0512 82.0998 40.0512 82.0998 40.0545L80.8316 40.3519L80.8349 40.3389ZM80.2597 37.3221C80.1453 37.3352 80.0211 37.3515 79.9067 37.3744C79.1059 37.5509 78.6876 37.9921 78.7922 38.5478C78.8706 38.9629 79.1844 39.1851 79.655 39.1557C79.7498 39.1492 79.8413 39.1361 79.9296 39.1165C80.1093 39.0772 80.2989 39.0151 80.5211 38.9171C80.5963 38.8844 80.6388 38.8092 80.629 38.7275L80.459 37.479C80.446 37.3842 80.361 37.3156 80.2695 37.3221H80.2597Z" fill="white"/>
<path d="M89.5023 41.3782C89.3356 41.3782 89.2016 41.3651 89.1166 41.3389L88.9303 39.708C88.9696 39.7243 89.0284 39.7243 89.0872 39.7276H89.1395C89.2376 39.7276 89.3389 39.7243 89.4337 39.708C90.3619 39.5642 90.8195 39.0543 90.7247 38.2699C90.7051 38.1065 90.6822 37.9463 90.6593 37.7894C90.6365 37.626 90.6136 37.4593 90.594 37.2926C90.5842 37.2175 90.5286 37.1554 90.4567 37.139C90.4436 37.139 90.4273 37.1325 90.4142 37.1358C90.3554 37.1358 90.2966 37.1652 90.2639 37.2175C89.9011 37.7633 89.5906 37.9855 89.0774 38.0673C88.9663 38.0836 88.8617 38.0934 88.7604 38.0934C87.3909 38.0934 86.917 36.5409 86.7569 35.2368C86.6621 34.4524 86.6457 34.5635 86.5902 33.7758C86.5673 33.4588 86.5411 33.1221 86.5117 32.7495L88.1002 32.609L88.208 33.5993C88.2865 34.3151 88.3257 34.557 88.4107 35.2695C88.5218 36.1879 88.8258 36.3546 89.2833 36.3546C89.316 36.3546 89.3487 36.3546 89.3814 36.3481C89.8945 36.2664 90.2443 35.9068 90.3358 35.3643C90.3358 35.3447 90.339 35.3283 90.3358 35.3087L89.839 32.0141L91.5091 31.7657C91.7183 33.4719 91.8915 34.4132 92.0582 36.1225L92.0974 36.5213C92.1759 37.3024 92.2674 38.1882 92.2347 38.8974C92.1726 40.3617 91.3065 41.133 89.9828 41.3389C89.8749 41.3553 89.6919 41.3749 89.4958 41.3749L89.5023 41.3782Z" fill="white"/>
<path d="M8.24949 38.3386L87.8126 28.1149L92.9375 0H0L8.24949 38.3386Z" fill="#BDC7D6"/>
<path d="M26.9644 10.4655C25.7943 10.4491 25.1995 11.2368 25.1962 12.0997C25.2224 13.1979 26.1898 13.5214 26.5722 13.5508C26.9579 13.5835 28.1541 13.4855 28.3993 12.2533C28.6411 11.0146 27.556 10.5112 26.9644 10.4687V10.4655ZM27.5952 15.1654C27.1867 14.9007 26.6474 14.8517 26.2911 14.8125C24.7419 14.8321 25.0786 15.5577 25.1374 15.6982C25.1962 15.8355 25.1603 17.1526 25.1603 17.1526C25.1603 17.1526 25.0851 20.5747 25.0884 20.9015C25.0884 21.2284 24.9772 22.6109 25.1145 23.0031C25.2485 23.3986 25.3793 23.4607 26.0166 23.5522C26.6507 23.6503 27.3665 23.6503 27.4612 23.3038C27.5626 22.9541 27.4089 22.7613 27.3763 22.4704C27.2586 21.6533 27.4286 18.9307 27.4612 18.2312C27.4972 17.5285 27.6737 16.2244 27.7064 16.0316C27.7391 15.8355 28.079 15.4759 27.5985 15.1622L27.5952 15.1654Z" fill="white"/>
<path d="M35.9464 21.3493C35.8908 20.2446 35.8777 17.3749 35.8777 17.3749C35.8777 17.3749 35.9268 16.1754 35.9333 16.0283C35.9464 15.8813 36.3549 15.3747 35.8287 15.0576C35.2992 14.7373 34.5834 14.9432 34.4135 14.9661C34.2435 14.9857 34.0801 14.7733 34.0801 14.7733C34.0801 14.7733 33.9951 14.6393 33.4493 14.3124C32.2498 13.7045 31.4981 13.9071 30.913 14.149C29.3147 14.9596 28.6545 17.5514 28.6545 17.5514C28.6545 17.5514 28.0564 20.0289 28.4421 21.199C28.831 22.3691 29.7756 22.977 30.7855 23.3136C31.7922 23.6536 32.7368 23.2581 32.9623 23.1306C33.1911 23.0031 33.7892 22.6142 33.7892 22.6142C33.7892 22.6142 33.8677 23.5032 33.8284 23.9216C33.7892 24.3334 34.1324 26.4677 33.0734 27.0102C32.0177 27.5495 31.0339 26.3337 30.949 26.2421C30.8672 26.1506 30.73 25.9872 30.8215 25.7225C30.913 25.4577 30.8771 25.2518 30.7627 25.1243C30.645 25.0001 30.3182 24.7681 29.3017 25.1276C28.2917 25.4904 28.3506 25.8597 28.38 26.131C28.4061 26.4056 28.6774 27.0494 28.9781 27.3338C30.2953 28.834 31.2823 29.0497 32.7172 29.0072C33.3382 28.9843 34.8678 28.1869 35.5019 27.1704C35.7764 26.7291 35.9071 26.1931 35.9562 25.6571C36.1163 23.8758 36.0052 22.454 35.9496 21.3559L35.9464 21.3493ZM33.6487 19.6988C33.6356 20.5224 32.5864 21.6925 31.4948 21.6206C30.7725 21.5748 30.5633 20.4734 30.6646 19.2183C30.7692 17.9632 31.3771 15.927 32.508 16.0937C32.508 16.0937 33.214 16.1427 33.5016 17.0677C33.5735 17.2475 33.714 19.5452 33.6454 19.6988H33.6487Z" fill="white"/>
<path d="M37.1585 8.3051C37.1585 8.3051 37.1683 7.86059 37.0833 7.76254C36.9983 7.66775 36.6878 7.35725 37.0898 7.02388C37.4951 6.69377 38.5769 6.63167 39.0672 6.80162C39.5607 6.97485 39.7209 7.27881 39.6588 7.67429C39.6 8.0665 39.5836 8.60252 39.5313 9.03069C39.4758 9.45885 39.3548 11.4657 39.3548 11.4657L39.2077 15.5218L39.2404 16.2572C39.2404 16.2572 40.6883 14.7602 42.3487 14.9629C43.2737 15.1394 44.1725 15.7865 44.1725 15.7865C44.1725 15.7865 45.0549 16.231 45.2445 18.1169C45.3851 19.5321 45.3197 20.9996 45.3197 20.9996C45.3197 20.9996 45.3393 22.4247 45.2772 22.7875C45.2151 23.1535 44.8294 23.2124 44.8294 23.2124C44.8294 23.2124 44.2869 23.3954 43.4011 23.2973C42.5187 23.2025 42.718 22.4966 42.8422 22.0619C42.9076 21.735 42.9076 19.4079 42.8815 18.9373C42.8553 18.4666 42.6755 16.8487 41.7898 16.8585C40.9073 16.8651 40.3223 17.7999 40.0575 18.3228C39.7928 18.8457 39.6261 19.1105 39.5444 19.4962C39.4398 20.006 39.4398 20.6565 39.4169 20.9604C39.394 21.2578 39.3679 22.5652 39.515 23.3692C39.6588 23.6863 39.734 23.513 39.7536 23.8105C39.7732 24.1046 39.479 24.2648 38.3187 24.2648C37.1584 24.2648 37.2402 23.3529 37.2238 23.1405C37.2009 22.9313 37.1879 21.4278 37.1879 21.4278L37.116 17.1429L37.0637 13.4234L37.1585 10.1452V8.30836V8.3051Z" fill="white"/>
<path d="M47.5161 6.85066C48.2253 6.90295 48.8954 7.23633 48.9248 7.7266C48.9248 8.09266 48.8006 8.12861 48.7777 8.29203C48.7483 8.44238 48.6894 9.49481 48.6502 9.9099C48.611 10.3283 48.5652 13.7438 48.5652 13.7438L48.575 17.8325L48.6437 20.8526L48.7712 24.0556C48.7712 24.0556 48.8431 24.4315 49.0555 24.7224C49.2745 25.01 49.281 25.2126 49.0882 25.3466C48.8954 25.4774 48.4541 25.6637 47.6403 25.582C46.4963 25.461 46.3885 24.9087 46.4015 24.6668C46.4114 24.4217 46.444 23.2875 46.444 23.2875L46.4081 19.9113C46.4081 19.9113 46.3394 15.8355 46.3133 15.2766C46.2872 14.7177 46.3264 11.2728 46.3264 11.2728C46.3264 11.2728 46.3002 8.42604 46.297 8.18744C46.297 7.95212 46.0747 7.82792 46.1205 7.39975C46.1695 6.97486 46.797 6.79837 47.5095 6.8572L47.5161 6.85066Z" fill="white"/>
<path d="M50.6902 12.7959C51.3243 12.8645 52.1316 12.7698 52.3702 11.6225C52.648 10.2563 51.5923 9.91643 50.919 9.9197C49.5887 9.92624 49.3992 10.9852 49.4547 11.7108C49.5103 12.4331 50.0594 12.7273 50.6902 12.7992V12.7959ZM52.38 22.124C52.2819 21.9377 52.2165 21.7089 52.174 21.2415C52.1348 20.7708 52.0695 18.8392 52.0891 18.3097C52.1087 17.7802 52.1937 16.4467 52.2231 16.0316C52.2558 15.6133 52.5597 15.0217 52.2623 14.6851C51.9681 14.3517 51.0007 14.149 50.4745 14.1686C49.9483 14.1883 49.5593 14.2634 49.5299 14.6033C49.5005 14.94 49.6378 15.2603 49.6378 15.2603C49.6378 15.2603 49.726 15.8486 49.7129 16.3421C49.6999 16.8357 49.7358 19.4602 49.7358 19.4602C49.7358 19.4602 49.7358 21.856 49.7587 22.124C49.7816 22.392 49.5168 22.8234 51.0301 22.9051C52.5434 22.9901 52.4715 22.3135 52.3734 22.124H52.38Z" fill="white"/>
<path d="M71.8297 14.9955C71.8297 14.9955 72.0062 14.9857 72.0323 14.7602C72.0683 14.4398 72.4997 10.6681 72.4997 10.6681C72.4997 10.6681 72.4539 9.68103 73.0978 9.53068C73.7384 9.38033 74.1862 9.38033 74.6863 9.59278C75.1831 9.80523 75.3465 10.3511 75.1079 10.7073C74.8693 11.0636 74.7353 12.0147 74.6797 12.2696C74.6209 12.5278 74.3464 14.6065 74.3464 14.6065L74.3365 14.7177L75.5753 14.6686C75.5753 14.6686 76.5002 14.4529 76.8892 14.7896C77.2716 15.1262 77.5102 15.3419 77.5265 15.7047C77.5429 16.061 77.52 16.3421 77.118 16.3519C76.716 16.3649 75.0883 16.4565 75.0883 16.4565C75.0883 16.4565 74.3039 16.499 74.245 16.5807C74.1862 16.6656 74.0718 18.5744 74.0783 19.8458C74.0849 21.1205 74.8007 21.5781 75.1961 21.48C75.5884 21.382 75.9838 20.6302 76.1799 20.5191C76.376 20.408 76.4676 20.2805 77.1016 20.8263C77.7063 21.3493 77.6311 21.6631 77.2422 22.2252C77.082 22.454 76.1995 23.3986 74.4608 23.026C72.1173 22.5226 71.8264 21.1891 71.7708 20.4799C71.712 19.7641 71.7447 18.6398 71.8003 18.29C71.8525 17.9403 71.9048 17.0578 71.8591 16.8487C71.8427 16.7539 71.1923 16.9892 70.5779 16.7833C69.9634 16.5774 69.8621 16.0741 69.8457 15.8616C69.8261 15.6492 69.7673 15.306 69.9536 15.2341C70.1464 15.1589 71.8329 14.9955 71.8329 14.9955H71.8297Z" fill="white"/>
<path d="M64.0577 16.1067C64.0577 16.1067 65.4108 14.5902 67.2706 14.9889C69.2937 15.4236 69.7971 17.0448 69.8265 18.2737C69.8494 19.5092 69.7611 21.3493 69.7578 21.7055C69.7578 22.0618 69.6467 22.7907 69.6467 22.7907C69.6467 22.7907 69.6271 23.2221 68.4341 23.111C67.4503 23.0194 67.2346 23.0816 67.1692 22.6044C67.0973 22.1272 67.2771 22.0422 67.3425 20.9081C67.4046 19.7674 67.4438 19.1791 67.4438 19.1791C67.4438 19.1791 67.5647 16.9435 66.7803 16.7996C65.8586 16.6264 65.0448 17.6069 64.8127 17.9076C64.5774 18.2116 64.2506 18.7999 64.1656 20.0125C64.0773 21.2284 64.0741 22.0455 64.0741 22.0455C64.0741 22.0455 63.9989 22.7809 64.0642 22.8756C64.1263 22.9639 64.4467 23.3528 64.025 23.6143C63.5969 23.8758 62.8451 23.879 62.2437 23.6568C61.6391 23.4345 61.7012 23.1208 61.6783 22.5847C61.6587 22.0487 61.8319 18.7149 61.8319 18.7149L61.943 12.3546L62.0411 8.29849C62.0411 8.29849 62.0869 7.83764 61.9463 7.49446C61.8058 7.15455 61.8777 6.48452 63.2308 6.62179C64.7081 6.76887 64.7277 7.0663 64.6558 7.45524C64.5807 7.84091 64.5153 7.65134 64.4728 8.07624C64.4303 8.49786 64.1688 12.5246 64.1688 12.5246L64.0577 16.1002V16.1067Z" fill="white"/>
<path d="M60.7372 24.1536C60.7012 23.2351 60.6881 21.0355 60.6881 21.0355L60.6424 18.8391C60.6424 18.8391 60.7045 16.7637 60.7306 16.4532C60.7535 16.1427 60.8516 15.9335 60.9986 15.6786C61.1457 15.4269 60.5999 15.136 60.1096 15.0477C59.6194 14.9595 59.2893 15.0477 59.1226 15.1295C58.9951 15.1916 58.7336 14.8974 58.7336 14.8974C58.7336 14.8974 58.2139 14.4856 57.2367 14.3287C55.2168 14.0084 54.2722 15.2471 53.5434 17.5644C52.7394 20.3034 53.125 21.3231 53.4486 21.918C53.7722 22.5095 54.988 23.4541 56.1712 23.6208C57.3576 23.794 58.4493 22.9606 58.4362 22.9737C58.5408 23.5489 58.4689 25.5263 58.4689 25.5263C58.4689 25.5263 58.4264 26.8729 57.4132 27.0232C56.4 27.1769 56.1156 26.0656 55.9718 25.7551C55.828 25.4413 55.8999 25.2321 55.9326 24.8955C55.9653 24.5621 55.6875 24.451 55.2528 24.4477C54.8213 24.4445 53.9585 24.6013 53.6251 25.0262C53.2917 25.4544 53.4486 25.6113 53.5303 25.7943C53.6153 25.9741 53.7493 26.2323 53.8931 26.5297C54.3736 27.9319 55.913 28.8405 57.0014 28.7914C58.093 28.7457 59.2075 28.3371 59.9397 27.5102C60.6685 26.6768 60.7731 25.072 60.7306 24.1568L60.7372 24.1536ZM58.2891 20.153C58.2074 20.4668 57.5766 21.6303 56.5634 21.7643C55.5535 21.8885 55.2854 20.3622 55.56 18.8555C55.8313 17.352 56.6026 16.1852 57.1452 16.2244C57.6877 16.2669 58.3545 16.6264 58.3872 17.7507C58.4166 18.8751 58.3872 19.7314 58.2924 20.1498L58.2891 20.153Z" fill="white"/>
<path d="M5.43206 11.0407C5.43206 11.0407 4.85682 11.5832 4.83394 12.0114C4.81106 12.4395 5.21308 12.7697 5.5628 13.2893C5.61183 13.3809 6.59235 14.6425 7.55 15.587C8.50764 16.5316 10.5667 17.7115 11.325 17.9763C11.3708 18.0155 11.3316 18.1756 11.3316 18.1756C11.3316 18.1756 11.2074 19.6105 11.0341 21.0518C10.8642 22.4932 10.8021 23.2025 10.8021 23.2025C10.8021 23.2025 10.5929 25.0164 11.6159 25.34C12.0212 25.4642 12.4886 25.6407 13.2403 25.4315C13.9921 25.2191 13.7535 24.8203 13.7535 24.8203C13.7535 24.8203 13.59 24.5458 13.4201 24.1601C13.2469 23.781 13.5051 21.212 13.5051 21.212L13.6162 19.9013L13.7437 18.7999C13.7437 18.7999 13.6946 18.7411 13.9496 18.7836C14.2078 18.8293 16.1655 18.9568 16.1655 18.9568C16.1655 18.9568 17.6592 19.032 19.081 18.7836C19.5353 18.679 20.1824 18.4763 20.1824 18.4763C20.1824 18.4763 20.2445 18.4763 20.2347 18.7541C20.2217 19.0352 20.3524 20.1628 20.3622 20.555C20.372 20.9505 20.4668 22.3232 20.4831 22.5749C20.506 22.8266 20.6041 23.9477 20.6041 23.9477C20.6041 23.9477 20.7054 25.4054 21.0028 25.7486C21.3002 26.0885 22.1402 25.997 22.1402 25.997C22.1402 25.997 22.4671 26.0133 23.0619 25.7257C23.66 25.4413 23.4443 24.9347 23.4443 24.9347C23.4443 24.9347 23.4051 24.8465 23.2809 24.683C23.1567 24.5164 23.0652 23.9738 23.0129 23.5391C22.9606 23.1077 22.8887 22.3331 22.8887 22.3331L22.7155 19.9406L22.6011 18.4763C22.6011 18.4763 22.5651 17.4893 22.6305 17.3912C22.6926 17.2964 23.2057 16.9336 23.2057 16.9336C23.2057 16.9336 24.2353 16.0544 24.4347 15.4694C24.6275 14.8876 24.5425 14.5706 24.5425 14.5706C24.5425 14.5706 24.4575 13.943 23.9934 13.5541C23.83 13.4103 23.5358 13.5279 23.4411 13.6979C23.3463 13.8646 23.294 14.0019 23.2286 14.0803C23.1665 14.162 22.8004 14.5771 22.7547 14.6163C22.7122 14.6555 22.637 14.7863 22.5815 14.7242C22.5292 14.6686 22.4703 13.4854 22.4736 13.2861C22.4769 13.0932 22.4017 10.9753 22.4017 10.9753C22.4017 10.9753 22.418 9.49797 22.4017 9.04039C22.3886 8.58281 22.5096 6.60869 22.539 6.35702C22.5749 6.23282 22.6893 6.24263 22.7514 5.84388C22.8168 5.44186 22.0912 5.06926 21.1956 4.98755C20.7087 4.94506 20.3818 4.94833 20.1563 5.07907C19.9014 5.22615 19.8948 5.45821 19.885 5.60855C19.8556 5.8831 20.0288 6.05306 20.055 6.35702C20.0844 6.65772 20.0157 7.24276 20.0157 7.24276L20.0256 8.29846V10.1843L20.0452 12.8612L20.0942 14.6784C20.0942 14.6784 20.153 16.0871 20.1694 16.1427C20.1857 16.2015 20.1628 16.2375 20.1301 16.2636C20.1007 16.293 19.2117 16.8356 16.7114 16.865C15.4988 16.8519 14.4398 16.6918 14.0215 16.5153C14.0215 16.4336 14.1522 15.355 14.1522 15.355C14.1522 15.355 14.6882 11.4558 14.8647 10.606C15.0412 9.75945 15.2537 8.39651 15.4138 7.70034C15.574 7.00417 15.7864 6.77211 15.8583 6.66425C15.9335 6.55639 16.2505 5.95501 15.4628 5.68373C14.3385 5.62816 13.5998 6.03998 13.5998 6.03998C13.5998 6.03998 12.9462 6.38644 12.9985 6.90611C13.054 7.42253 12.9952 7.79186 12.9756 7.90625C12.956 8.02391 12.7435 8.6776 12.5899 9.64505C12.433 10.619 12.3317 11.3937 12.3317 11.3937L12.0473 13.1292L11.7859 14.6784L11.6257 15.7145C11.6257 15.7145 10.7825 15.5511 9.26265 14.0672C7.74283 12.5834 7.22316 11.6322 7.06627 11.2498C7.04339 11.1714 7.08915 10.7628 6.45508 10.6354C5.79812 10.5602 5.42553 11.0243 5.42553 11.0243L5.43206 11.0407Z" fill="white"/>
<path d="M83.0468 13.2142C83.0468 13.2142 84.5209 13.2763 85.4785 14.3549C86.1584 15.3158 86.2172 16.3552 86.2172 16.3552C86.2172 16.3552 86.1812 16.6918 85.5472 16.7474C84.9131 16.803 84.413 16.9566 83.9554 16.4206C83.4979 15.8911 83.5698 15.1786 82.9161 15.293C82.2559 15.4106 81.0956 16.0937 81.0106 16.7834C80.9289 17.4566 82.2036 17.8096 83.0893 18.0973C84.4032 18.5222 86.4852 18.7771 86.1812 20.5355C85.8773 22.3004 83.4783 22.9966 81.5597 22.7744C81.1119 22.7253 80.7034 22.6763 80.3275 22.5783C78.9809 22.2253 78.1573 21.6696 78.1475 20.9506C78.0037 20.3132 79.2228 19.9603 79.6183 19.9733C80.0105 19.9864 79.9778 19.9505 80.3536 20.4146C80.7295 20.8787 81.1087 20.9539 82.0205 21.0323C82.9324 21.1107 83.3639 20.7545 83.3639 20.7545C83.3639 20.7545 83.8051 20.4211 83.1449 20.1335C82.4847 19.8491 79.1803 19.1595 78.641 18.0319C78.0984 16.8977 78.5005 15.5773 79.3339 14.8517C80.1706 14.1229 81.0988 13.0966 83.0534 13.2142H83.0468Z" fill="white"/>
<path d="M84.6193 9.69737H84.2434V10.6975H83.9101V9.69737H83.5342V9.41956H84.6193V9.69737ZM86.247 10.7008H85.9299V9.83138H85.9234L85.6031 10.7008H85.4135L85.0932 9.83138H85.0867V10.7008H84.7696V9.42282H85.2174L85.505 10.1484L85.7927 9.42282H86.2404V10.7008H86.247Z" fill="white"/>
</g>
<defs>
<clipPath id="clip0_70_547">
<rect width="98.0003" height="48" fill="white"/>
</clipPath>
</defs>
</svg>
