<svg width="104" height="48" viewBox="0 0 104 48" fill="none" xmlns="http://www.w3.org/2000/svg">
<g clip-path="url(#clip0_70_586)">
<path d="M98.4164 10.892H57.5404L53.1676 1.87956C52.1952 0.00889389 49.7286 0.00296461 49.7286 0.00296461H17.3166C17.3166 0.00296461 17.3166 0.00296461 17.3166 0H6.12812C3.19908 0 0.824428 2.37465 0.824428 5.30369V15.7806C0.81257 15.917 0.806641 16.0563 0.806641 16.1957V42.6993C0.806641 45.6283 3.18129 48.003 6.11033 48.003H98.4164C101.345 48.003 103.72 45.6283 103.72 42.6993V16.1957C103.72 13.2666 101.345 10.892 98.4164 10.892Z" fill="#BDC7D6"/>
<path d="M67.1726 32.4951C68.1895 32.1216 72.3696 29.9811 72.3696 24.7841C72.3696 24.7308 72.337 24.0163 72.337 24.0163C72.165 21.8759 71.2845 20.0645 69.8556 18.6355C68.2576 17.0376 67.2111 16.1542 64.7861 15.3982L57.001 16.1542L52.8002 20.3521L51.5254 43.1262L52.8002 44.146H58.7116V33.2066H60.9884L65.3879 43.1262L66.6627 44.146H73.1848L67.1726 32.4951ZM63.9441 27.2952H58.7116V22.0982H63.9441C65.4057 22.0982 66.3899 23.287 66.3899 24.713C66.3899 26.139 65.4057 27.2952 63.9441 27.2952Z" fill="#E3E2E2"/>
<path d="M49.2064 22.0981V16.1541L47.9316 15.1343L36.0791 16.1541L31.8812 20.352L30.6064 43.1943L31.8812 44.2141H49.2064V38.2701L47.9316 37.2503L37.8253 38.2701V32.4268H47.6767V26.5154L46.4019 25.4956L37.8253 26.5154V22.0981H49.2064Z" fill="#E3E2E2"/>
<path d="M22.2053 16.1541V26.379H13.2048V16.1541L11.93 15.1343L7.29037 20.2808L6.01855 43.1261L7.29037 44.1459H13.2048V32.2905H22.2053L20.9305 43.1261L22.2053 44.1459H28.1523V16.1541L26.8776 15.1343L22.2053 16.1541Z" fill="#E3E2E2"/>
<path d="M86.5792 15.247C79.8673 14.2301 75.1358 22.8749 73.9233 30.9891C73.1821 35.9577 78.7793 44.1223 86.5466 44.1223C93.6616 44.1223 98.4732 38.0923 98.5088 30.2153C98.4762 22.4065 94.6252 16.4654 86.5792 15.247ZM85.3281 22.1397L81.237 29.2133L82.5118 30.2331H87.1869L82.5266 36.4914L82.3665 36.3342C81.1747 34.8875 80.4187 32.7589 80.4187 30.156C80.4187 26.2842 82.3754 22.9046 85.3281 22.1456V22.1397ZM86.5792 38.4213C85.6157 38.4302 83.7361 37.6357 82.912 37.1288L91.0824 28.3802L89.8077 27.3604L87.2255 28.3802L89.2888 22.8067C91.4056 24.1705 92.7041 27.055 92.7041 30.1827C92.7041 34.8638 89.9025 38.4539 86.5762 38.4213H86.5792Z" fill="#E3E2E2"/>
<g opacity="0.2">
<path d="M67.1726 32.495C68.1895 32.1214 72.3696 29.981 72.3696 24.784C72.3696 24.7307 72.337 24.0162 72.337 24.0162C72.165 21.8757 71.2845 20.0644 69.8556 18.6354C68.2576 17.0375 67.2111 16.154 64.7861 15.3981L57.001 16.154L52.8002 20.3519L51.5254 43.1261L52.8002 44.1459H58.7116V33.2065H60.9884L65.3879 43.1261L66.6627 44.1459H73.1848L67.1726 32.495ZM63.9441 27.2951H58.7116V22.0981H63.9441C65.4057 22.0981 66.3899 23.2869 66.3899 24.7129C66.3899 26.1389 65.4057 27.2951 63.9441 27.2951Z" fill="url(#paint0_linear_70_586)"/>
<path d="M49.2074 22.0981V16.1541L47.9326 15.1343L36.0801 16.1541L31.8822 20.352L30.6074 43.1943L31.8822 44.2141H49.2074V38.2701L47.9326 37.2503L37.8262 38.2701V32.4268H47.6776V26.5154L46.4029 25.4956L37.8262 26.5154V22.0981H49.2074Z" fill="url(#paint1_linear_70_586)"/>
<path d="M22.2053 16.1541V26.379H13.2048V16.1541L11.93 15.1343L7.29037 20.2808L6.01855 43.1261L7.29037 44.1459H13.2048V32.2905H22.2053L20.9305 43.1261L22.2053 44.1459H28.1523V16.1541L26.8776 15.1343L22.2053 16.1541Z" fill="url(#paint2_linear_70_586)"/>
<path d="M86.5792 15.247C79.8673 14.2301 75.1358 22.8749 73.9233 30.9891C73.1821 35.9577 78.7793 44.1223 86.5466 44.1223C93.6616 44.1223 98.4732 38.0923 98.5088 30.2153C98.4762 22.4065 94.6252 16.4654 86.5792 15.247ZM85.3281 22.1397L81.237 29.2133L82.5118 30.2331H87.1869L82.5266 36.4914L82.3665 36.3342C81.1747 34.8875 80.4187 32.7589 80.4187 30.156C80.4187 26.2842 82.3754 22.9046 85.3281 22.1456V22.1397ZM86.5792 38.4213C85.6157 38.4302 83.7361 37.6357 82.912 37.1288L91.0824 28.3802L89.8077 27.3604L87.2255 28.3802L89.2888 22.8067C91.4056 24.1705 92.7041 27.055 92.7041 30.1827C92.7041 34.8638 89.9025 38.4539 86.5762 38.4213H86.5792Z" fill="url(#paint3_linear_70_586)"/>
</g>
<path d="M65.8978 31.4752C66.9176 31.1017 71.0948 28.9612 71.0948 23.7643C71.0948 23.7109 71.0622 22.9964 71.0622 22.9964C70.8902 20.856 70.0097 19.0446 68.5808 17.6157C66.9829 16.0177 64.9788 15.1343 62.7049 15.1343H55.7262L51.5254 19.3322V43.1261H57.4368V32.1867H59.7136L65.3879 43.1261H71.91L65.8978 31.4752ZM62.6694 26.2782H57.4368V21.0813H62.6694C64.1309 21.0813 65.1152 22.2701 65.1152 23.6961C65.1152 25.122 64.1309 26.2782 62.6694 26.2782Z" fill="white"/>
<path d="M47.9316 21.0783V15.1343H34.8043L30.6064 19.3322V43.1943H47.9316V37.2503H36.5505V31.407H46.4019V25.4956H36.5505V21.0783H47.9316Z" fill="white"/>
<path d="M20.9305 15.1343V25.3592H11.93V15.1343H10.1453L6.01855 19.261V22.3264V43.1261H11.93V31.2707H20.9305V43.1261H26.8775V15.1343H20.9305Z" fill="white"/>
<path d="M85.3067 15.1936C78.5177 15.1936 73.3445 20.9924 73.3771 29.1984C73.3445 37.3363 78.6156 43.138 85.2711 43.1054C92.3892 43.1054 97.1978 37.0754 97.2333 29.1984C97.2007 21.3896 92.1905 15.1936 85.3037 15.1936H85.3067ZM84.0527 21.1199L81.2333 29.2103H85.9085L82.0486 36.2542C80.3202 34.8905 79.1403 32.3794 79.1403 29.1302C79.1403 25.2585 81.094 21.8788 84.0497 21.1199H84.0527ZM85.3067 37.4015C84.3432 37.4104 83.4182 37.1406 82.5941 36.6337L89.8099 27.3574H85.953L88.0164 21.7839C90.1331 23.1477 91.4316 26.0322 91.4316 29.1599C91.4316 33.838 88.63 37.4311 85.3037 37.3985L85.3067 37.4015Z" fill="white"/>
<path d="M26.6908 8.30382C26.6789 10.4294 25.3567 11.9058 23.3289 11.8969C21.5442 11.9088 20.056 10.5302 20.0678 8.372C20.0678 6.29085 21.6094 4.93306 23.3289 4.92416C25.0484 4.93602 26.6789 6.20191 26.6908 8.30678V8.30382ZM24.7845 8.43426C24.7727 7.53006 24.1442 6.83634 23.3734 6.82448C22.6471 6.83634 21.9859 7.54191 21.9948 8.4224C21.9948 9.40369 22.733 10.0322 23.4386 10.0203C24.156 9.99957 24.7816 9.37108 24.7816 8.43426H24.7845ZM27.8648 4.97456H29.7829V5.71275C29.9696 5.35996 30.5092 5.02792 31.2474 5.02792C31.8077 5.02792 32.2613 5.22655 32.7238 5.67717C33.1862 6.13965 33.4293 6.7889 33.4293 7.5182V11.7368H31.5023V7.8028C31.5023 7.25138 31.1169 6.92231 30.6426 6.92231C30.1683 6.92231 29.7829 7.25435 29.7829 7.8028V11.7368H27.8648V4.9716V4.97456ZM34.7901 4.97456V11.7517H36.7082V4.97456H34.7901ZM40.9506 4.93009C42.4151 4.93009 43.7165 5.75722 44.0249 7.55081L42.1423 7.56267C41.9674 7.04386 41.5138 6.85709 40.995 6.85709C40.411 6.85709 39.7499 7.45297 39.7499 8.38979C39.7499 9.41555 40.3991 9.97586 40.995 9.97586C41.5138 9.97586 41.9644 9.78909 42.1423 9.27028L44.0249 9.28214C43.6839 11.0668 42.5248 11.9058 40.9506 11.894C39.3971 11.894 37.8199 10.6162 37.8199 8.38979C37.8199 6.31753 39.4297 4.93009 40.9506 4.93009ZM45.9311 9.31771C46.5685 9.79205 47.3067 9.99958 47.8818 10.0114C48.365 10.0233 48.7623 9.9225 48.786 9.70311C48.8305 9.51634 48.6526 9.41555 48.368 9.32957L46.5181 8.8997C45.5279 8.66847 45.0625 7.91842 45.0625 7.00532C45.0625 5.78093 45.9993 5.11983 47.4519 4.97753C48.5429 4.87673 49.7554 5.1643 50.802 5.91434L49.7554 7.41147C49.0706 6.9816 48.3443 6.80669 47.8373 6.78297C47.3096 6.77111 47.0665 6.93713 47.0547 7.1239C47.0428 7.2247 47.111 7.32253 47.3185 7.37886L49.2574 7.86209C50.0934 8.06072 50.7782 8.62103 50.7782 9.75648C50.7782 10.296 50.547 10.7467 50.2268 11.0994C49.622 11.7279 48.7178 11.8702 47.8462 11.8702C46.779 11.8702 45.8184 11.6153 44.8935 10.9008L45.9281 9.31475L45.9311 9.31771ZM16.537 4.97456C16.1308 4.97456 15.5468 5.2058 15.3245 5.37182V2.67106H14.7879L13.4093 4.0496V11.7606H15.3274V7.72868C15.3274 7.25435 15.7128 6.89266 16.1664 6.89266C16.62 6.89266 17.0262 7.20098 17.0262 7.72868V11.7606H18.9443V7.42926C18.9443 6.24045 18.0638 4.9716 16.5429 4.9716L16.537 4.97456ZM11.5713 3.30549C11.0317 2.81929 10.3825 2.51097 9.65317 2.51097H7.3971L6.01855 3.88951V11.5797H7.94555V8.03107H9.7421C10.3825 8.03107 11.0317 7.73461 11.5713 7.24842C12.0664 6.72072 12.3865 6.0685 12.3865 5.34217C12.3865 4.53876 12.0901 3.82133 11.5713 3.30252V3.30549ZM9.64131 6.11594H7.94555V4.44093H9.64131C10.1156 4.44093 10.4566 4.80558 10.4566 5.26806C10.4566 5.73054 10.1156 6.11594 9.64131 6.11594ZM36.1686 2.39832L34.7901 3.77686V4.36978H36.7082V2.39832H36.1686Z" fill="#8D9FB5"/>
</g>
<defs>
<linearGradient id="paint0_linear_70_586" x1="62.3551" y1="41.6882" x2="62.3551" y2="12.134" gradientUnits="userSpaceOnUse">
<stop stop-color="#1C1C1B"/>
<stop offset="0.27" stop-color="#1C1C1B" stop-opacity="0.47"/>
<stop offset="0.59" stop-color="#1C1C1B" stop-opacity="0.11"/>
<stop offset="1" stop-color="#1C1C1B" stop-opacity="0"/>
</linearGradient>
<linearGradient id="paint1_linear_70_586" x1="39.9074" y1="41.6883" x2="39.9074" y2="12.1341" gradientUnits="userSpaceOnUse">
<stop stop-color="#1C1C1B"/>
<stop offset="0.27" stop-color="#1C1C1B" stop-opacity="0.47"/>
<stop offset="0.59" stop-color="#1C1C1B" stop-opacity="0.11"/>
<stop offset="1" stop-color="#1C1C1B" stop-opacity="0"/>
</linearGradient>
<linearGradient id="paint2_linear_70_586" x1="17.0854" y1="41.6883" x2="17.0854" y2="12.1341" gradientUnits="userSpaceOnUse">
<stop stop-color="#1C1C1B"/>
<stop offset="0.27" stop-color="#1C1C1B" stop-opacity="0.47"/>
<stop offset="0.59" stop-color="#1C1C1B" stop-opacity="0.11"/>
<stop offset="1" stop-color="#1C1C1B" stop-opacity="0"/>
</linearGradient>
<linearGradient id="paint3_linear_70_586" x1="86.1849" y1="41.6883" x2="86.1849" y2="12.1341" gradientUnits="userSpaceOnUse">
<stop stop-color="#1C1C1B"/>
<stop offset="0.27" stop-color="#1C1C1B" stop-opacity="0.47"/>
<stop offset="0.59" stop-color="#1C1C1B" stop-opacity="0.11"/>
<stop offset="1" stop-color="#1C1C1B" stop-opacity="0"/>
</linearGradient>
<clipPath id="clip0_70_586">
<rect width="102.913" height="48" fill="white" transform="translate(0.806641)"/>
</clipPath>
</defs>
</svg>
