<svg width="96" height="48" viewBox="0 0 96 48" fill="none" xmlns="http://www.w3.org/2000/svg">
<g clip-path="url(#clip0_70_525)">
<path d="M71.9517 33.8151C72.3341 33.7562 72.6283 33.5765 72.8342 33.279C73.0205 33.0078 73.0892 32.7234 73.0434 32.4227C72.9944 32.1155 72.8375 31.8638 72.5695 31.6677C72.2753 31.4487 71.9321 31.367 71.5399 31.4291C71.1575 31.4879 70.8634 31.6644 70.6575 31.9586C70.4712 32.2266 70.4025 32.5077 70.4483 32.8084C70.4973 33.1156 70.6542 33.3706 70.9255 33.5699C71.2229 33.7954 71.5661 33.8739 71.955 33.8151H71.9517Z" fill="white"/>
<path d="M69.3696 31.1644L67.2452 31.4357C67.3465 32.4293 67.4576 33.4033 67.5851 34.3609C67.5949 34.423 67.5557 34.4623 67.4707 34.4753C67.4478 34.4786 67.3563 34.4753 67.2027 34.4688C67.0458 34.4623 66.9248 34.4655 66.8333 34.4786C65.7776 34.642 64.9867 35.1029 64.467 35.8513C64.0029 36.5246 63.8362 37.2764 63.9669 38.1065C64.0846 38.855 64.3951 39.4695 64.905 39.9499C65.5162 40.5285 66.2842 40.7442 67.2125 40.6004C67.5491 40.5481 67.8596 40.4304 68.144 40.2441C68.1603 40.2343 68.1832 40.2245 68.2126 40.2212C68.3335 40.2016 68.3989 40.3356 68.4087 40.62C68.4251 40.9403 68.4577 41.1135 68.5035 41.1364L70.3665 40.8324C70.3665 40.8324 70.3828 40.8063 70.3796 40.7834L69.4121 31.2233C69.4088 31.2004 69.3958 31.1808 69.3729 31.1644H69.3696ZM67.3922 39.0903C66.4771 39.2309 65.9509 38.8681 65.8136 38.002C65.6469 36.943 66.245 36.3089 67.6112 36.0965C67.7191 36.0801 67.7779 36.1128 67.791 36.1978L68.1472 38.7864C68.1603 38.9073 67.9086 39.0054 67.389 39.0871L67.3922 39.0903Z" fill="white"/>
<path d="M73.1712 34.5079L71.1088 34.8054L71.0859 34.8217C71.3115 36.5703 71.5501 38.3026 71.805 40.0218C71.805 40.0381 71.8213 40.0512 71.8409 40.0642L73.8641 39.7374C73.8674 39.7178 73.8674 39.7015 73.8641 39.6884L73.2039 34.5504C73.2039 34.5504 73.1908 34.521 73.1679 34.5079H73.1712Z" fill="white"/>
<path d="M57.0155 40.6133C56.4533 40.9206 55.9663 41.1036 55.5545 41.169C54.8028 41.2866 54.257 41.0676 53.9138 40.5185C53.7928 40.3224 53.7209 40.1786 53.7079 40.0773C53.6948 40.0021 53.734 39.9597 53.8255 39.9498L56.5122 39.6263C56.607 39.5511 56.6658 39.2994 56.6919 38.8745C56.7115 38.5183 56.705 38.247 56.6789 38.0672C56.3814 36.1585 55.4663 35.325 53.9334 35.5636C53.0117 35.7074 52.394 36.3121 52.0769 37.3776C51.8481 38.1522 51.7991 38.9661 51.9331 39.8256C52.0737 40.731 52.4691 41.4337 53.1163 41.9338C53.8517 42.4959 54.793 42.6888 55.9435 42.509C56.1396 42.4796 56.401 42.4077 56.7279 42.3031C57.1332 42.1658 57.3358 42.0514 57.3391 41.9599C57.3227 41.8488 57.2704 41.6069 57.1855 41.2343C57.094 40.8389 57.0384 40.6329 57.0188 40.6199L57.0155 40.6133ZM53.5314 39.087C53.4791 38.7471 53.5085 38.4137 53.6196 38.0901C53.77 37.662 54.0412 37.4168 54.4302 37.3547C54.9433 37.2763 55.244 37.5279 55.3355 38.1163C55.4107 38.6 55.3617 38.8582 55.1852 38.8941L53.6817 39.1785C53.5935 39.1916 53.5412 39.1622 53.5281 39.087H53.5314Z" fill="white"/>
<path d="M63.0943 36.9887C62.859 35.4885 61.8523 34.8773 60.071 35.1551C58.8356 35.3479 58.0544 36.1585 57.7276 37.5901C57.7243 37.6031 57.7178 37.6129 57.7112 37.6162C57.7178 37.6391 57.7309 37.6522 57.7472 37.6587L59.5187 37.1325C59.5514 37.0704 59.571 37.0246 59.5775 36.9887C59.7279 36.6193 59.9959 36.4036 60.3848 36.3415C60.6692 36.2958 60.9176 36.3546 61.1267 36.5147C61.3163 36.6586 61.4274 36.8416 61.4634 37.0606C61.5124 37.3743 61.4961 37.541 61.4111 37.5541C61.3327 37.5672 61.2019 37.577 61.0254 37.5835C60.8489 37.5901 60.7149 37.6031 60.6299 37.6162C59.6984 37.76 58.9598 38.0378 58.4074 38.4398C57.7799 38.9105 57.5184 39.4792 57.623 40.1525C57.7112 40.7179 57.9793 41.133 58.427 41.3912C58.8748 41.6494 59.4664 41.7213 60.205 41.6069C60.6953 41.5318 61.1888 41.3651 61.6856 41.1167C61.7085 41.1036 61.7249 41.0971 61.7347 41.0971C61.8164 41.084 61.8654 41.1101 61.8752 41.1788C61.885 41.2409 61.8948 41.3389 61.9014 41.4729C61.9079 41.6069 61.9177 41.7083 61.9275 41.7736C61.9308 41.7998 61.9438 41.8194 61.9667 41.8292L63.516 41.5743C63.5617 41.5318 63.516 40.8225 63.3721 39.4498C63.2447 38.198 63.1499 37.3776 63.0878 36.9821L63.0943 36.9887ZM61.0189 40.3878C60.3096 40.4989 59.9207 40.3159 59.8455 39.8387C59.803 39.5707 59.8913 39.3452 60.107 39.1556C60.3096 38.9824 60.5907 38.868 60.9535 38.8124C61.4144 38.7405 61.6497 38.7471 61.6562 38.8353L61.7837 40.1035C61.7935 40.2113 61.5386 40.3061 61.0189 40.3845V40.3878Z" fill="white"/>
<path d="M51.2265 41.6592C50.4388 40.914 50.0401 40.5153 50.0303 40.4597C50.0303 40.4434 50.0368 40.4237 50.0597 40.3943C50.8997 39.5086 51.2331 38.5183 51.0631 37.4233C50.9454 36.6585 50.5826 36.0245 49.9813 35.5244C49.1478 34.8282 47.8927 34.6092 46.216 34.8707C45.2192 35.0276 44.5851 35.1812 44.3106 35.3316C44.2779 35.3479 44.2648 35.3675 44.2681 35.3871L45.6539 44.0059C45.6539 44.0255 45.6702 44.0419 45.6931 44.055L47.6574 43.5484C47.677 43.532 47.6836 43.5124 47.677 43.483L47.3731 41.401C47.3665 41.3324 47.4025 41.2931 47.4809 41.2801C47.5267 41.2735 47.5659 41.2866 47.5986 41.3226L49.9682 43.3849L52.3966 42.9143C52.4162 42.8979 52.4228 42.8816 52.4195 42.862C52.4097 42.8032 52.0109 42.4011 51.2233 41.6559L51.2265 41.6592ZM48.821 38.9824C48.5726 39.3452 47.8895 39.6001 47.3763 39.7603L47.3404 39.7668C47.2521 39.7799 47.2031 39.7505 47.19 39.6753L46.7913 36.7174C46.7815 36.6422 46.824 36.5964 46.9253 36.5801C47.1116 36.5507 47.6051 36.5507 47.798 36.5768C48.553 36.6912 48.9844 37.1096 49.0922 37.8319C49.1543 38.2535 49.0661 38.6392 48.821 38.9856V38.9824Z" fill="white"/>
<path d="M84.4111 29.9551C84.3915 29.978 84.385 30.0172 84.3948 30.0728C84.3981 30.1055 84.4111 30.1578 84.4307 30.2297C84.4504 30.3016 84.4634 30.3571 84.47 30.3931C84.4896 30.5107 84.4536 30.5761 84.3621 30.5925C84.3131 30.599 84.2183 30.6023 84.0778 30.6023C83.9372 30.6023 83.8326 30.6023 83.7575 30.6153C82.7279 30.7755 81.9664 31.2069 81.4761 31.9031C81.0381 32.5241 80.8812 33.2399 81.0087 34.0472C81.1296 34.8153 81.4532 35.4363 81.9794 35.9102C82.607 36.4756 83.3979 36.6815 84.3588 36.5312C84.5092 36.5083 84.6955 36.4495 84.921 36.3579C85.1465 36.2664 85.274 36.2174 85.3001 36.2141C85.3917 36.2011 85.4407 36.2239 85.4505 36.286L85.5878 37.1652C85.6466 37.5378 85.5485 37.8483 85.3001 38.0935C85.0485 38.3386 84.6726 38.4988 84.1758 38.5772C84.1104 38.587 84.0091 38.5935 83.8751 38.6001C83.7411 38.6033 83.6431 38.6132 83.581 38.623C83.5613 38.623 83.5515 38.6426 83.5548 38.6753L83.8522 40.5775C83.8719 40.7115 84.2314 40.7246 84.9243 40.6167C85.7643 40.486 86.4147 40.133 86.869 39.5643C87.2579 39.0707 87.4671 38.4791 87.4965 37.7895C87.5129 37.4071 87.4933 36.9626 87.4377 36.456C87.3821 36.018 87.3266 35.5768 87.2743 35.1388C87.0782 33.5798 86.9049 32.3051 86.7481 31.3115C86.5781 30.2329 86.4768 29.6806 86.4376 29.6544L84.4144 29.9584L84.4111 29.9551ZM84.7412 34.8708C83.9372 34.995 83.4829 34.7205 83.375 34.0439C83.3162 33.6746 83.3979 33.3575 83.6136 33.0928C83.849 32.8052 84.2052 32.6254 84.689 32.5502C84.7674 32.5372 84.8164 32.5633 84.8295 32.6254L85.1727 34.6845C85.1857 34.763 85.0419 34.8251 84.7412 34.8741V34.8708Z" fill="white"/>
<path d="M77.6387 32.5436C77.3282 32.5927 77.057 32.7005 76.8151 32.8705C76.6647 32.9751 76.5111 33.1189 76.3575 33.3052C76.23 33.4522 76.1516 33.5307 76.1222 33.534C76.0307 33.547 75.9718 33.4947 75.9555 33.3738C75.949 33.3379 75.9457 33.279 75.9424 33.1973C75.9424 33.1156 75.9359 33.0568 75.9293 33.0208C75.9195 32.962 75.9032 32.9228 75.8771 32.9064L73.9356 33.2104C73.9193 33.23 73.9095 33.2463 73.9127 33.2627L74.9161 39.4956C74.9161 39.4956 74.9325 39.5282 74.9554 39.5446L76.9295 39.2014C76.9295 39.2014 76.936 39.1752 76.9295 39.1458L76.3052 35.4689V35.446C76.3902 34.8904 76.7334 34.5668 77.338 34.472C77.8937 34.3837 78.2467 34.8184 78.397 35.7728C78.4951 36.4102 78.6519 37.4855 78.8644 38.9988C78.8677 39.0314 78.8742 39.051 78.884 39.0576L80.8124 38.8713C80.8287 38.8517 80.8385 38.8288 80.8385 38.7994C80.6457 36.9887 80.5149 35.8774 80.4496 35.4656C80.1097 33.279 79.1716 32.3083 77.6387 32.5469V32.5436Z" fill="white"/>
<path d="M34.8809 32.0763L40.1496 48L94.6897 41.6037L95.5885 24.4249L34.8809 32.0763ZM87.4926 37.7862C87.4632 38.4759 87.254 39.0674 86.8651 39.561C86.4107 40.1329 85.7603 40.4827 84.9204 40.6134C84.2242 40.7213 83.8679 40.7082 83.8483 40.5742L83.5509 38.672C83.5509 38.6393 83.5574 38.6229 83.577 38.6197C83.6391 38.6099 83.7372 38.6033 83.8712 38.5968C84.0052 38.5935 84.1065 38.5837 84.1719 38.5739C84.672 38.4955 85.0446 38.3353 85.2962 38.0902C85.5479 37.8451 85.6427 37.5346 85.5838 37.162L85.4466 36.2828C85.4368 36.2207 85.3877 36.1945 85.2962 36.2108C85.2701 36.2141 85.1426 36.2631 84.9171 36.3547C84.6916 36.4462 84.5053 36.505 84.3549 36.5279C83.394 36.6782 82.5998 36.4723 81.9755 35.9069C81.4493 35.433 81.1257 34.812 81.0048 34.0439C80.8773 33.2366 81.0342 32.5241 81.4722 31.8998C81.9624 31.2036 82.724 30.7722 83.7535 30.612C83.8254 30.6022 83.9333 30.5957 84.0738 30.599C84.2144 30.599 84.3092 30.599 84.3582 30.5892C84.4464 30.5761 84.4824 30.5107 84.466 30.3898C84.4595 30.3538 84.4464 30.2983 84.4268 30.2264C84.4072 30.1512 84.3941 30.0989 84.3909 30.0695C84.3811 30.0139 84.3909 29.9747 84.4072 29.9518L86.4304 29.6479C86.4696 29.674 86.5709 30.2264 86.7409 31.3049C86.8945 32.2985 87.071 33.5732 87.2671 35.1323C87.3226 35.5702 87.3782 36.0115 87.4305 36.4494C87.4861 36.956 87.5057 37.4005 87.4893 37.783L87.4926 37.7862ZM80.4492 35.4624C80.5145 35.8742 80.642 36.9855 80.8381 38.7962C80.8381 38.8256 80.8316 38.8485 80.8119 38.8681L78.8836 39.0544C78.8836 39.0544 78.8705 39.0282 78.864 38.9955C78.6515 37.4823 78.4946 36.4102 78.3966 35.7696C78.2462 34.8152 77.8965 34.3838 77.3376 34.4688C76.733 34.5636 76.3898 34.8871 76.3015 35.4428V35.4656L76.9291 39.1426C76.9323 39.1688 76.9323 39.1884 76.9291 39.1982L74.9549 39.5414C74.9321 39.525 74.919 39.5087 74.9157 39.4923L73.9123 33.2595C73.9123 33.2595 73.9189 33.2268 73.9352 33.2072L75.8766 32.9032C75.9028 32.9195 75.9224 32.9555 75.9289 33.0176C75.9355 33.0536 75.9387 33.1124 75.942 33.1941C75.942 33.2758 75.9485 33.3346 75.9551 33.3706C75.9747 33.4915 76.0303 33.5471 76.1218 33.5307C76.1512 33.5275 76.2296 33.449 76.3571 33.302C76.5107 33.1157 76.6643 32.9718 76.8147 32.8673C77.0533 32.6973 77.3278 32.5862 77.6383 32.5404C79.1712 32.3018 80.1092 33.2758 80.4492 35.4591V35.4624ZM71.1047 34.8054L73.1671 34.508C73.1933 34.5211 73.2063 34.5341 73.2031 34.5505L73.8633 39.6884C73.8633 39.6884 73.8633 39.7179 73.8633 39.7375L71.8401 40.0643C71.8173 40.0512 71.8042 40.0382 71.8042 40.0218C71.5493 38.3026 71.3107 36.5704 71.0851 34.8218L71.108 34.8054H71.1047ZM70.925 33.57C70.6537 33.3706 70.4968 33.1157 70.4478 32.8084C70.402 32.5077 70.4707 32.2266 70.657 31.9586C70.8629 31.6645 71.157 31.488 71.5394 31.4291C71.9317 31.367 72.2748 31.4488 72.569 31.6677C72.837 31.8638 72.9972 32.1155 73.0429 32.4227C73.0887 32.7234 73.02 33.0078 72.8337 33.2791C72.6278 33.5765 72.3337 33.7563 71.9513 33.8151C71.5623 33.8772 71.2191 33.7955 70.9217 33.57H70.925ZM67.2447 31.4357L69.3692 31.1644C69.3921 31.1807 69.4052 31.2004 69.4084 31.2232L70.3759 40.7834C70.3792 40.8062 70.3759 40.8226 70.3628 40.8324L68.4998 41.1364C68.4508 41.1102 68.4181 40.9402 68.405 40.6199C68.3952 40.3356 68.3299 40.2016 68.2089 40.2212C68.1795 40.2245 68.1566 40.2343 68.1403 40.2441C67.8559 40.4304 67.5454 40.548 67.2088 40.6003C66.2806 40.7441 65.5125 40.5284 64.9013 39.9499C64.3947 39.4695 64.0809 38.855 63.9632 38.1065C63.8325 37.2763 63.9992 36.5246 64.4633 35.8513C64.983 35.0996 65.7707 34.642 66.8297 34.4786C66.9179 34.4655 67.0421 34.4622 67.199 34.4688C67.3559 34.4753 67.4441 34.4786 67.467 34.4753C67.552 34.4622 67.5912 34.423 67.5814 34.3609C67.4572 33.4033 67.3428 32.4293 67.2415 31.4357H67.2447ZM63.0939 36.9887C63.156 37.3842 63.2507 38.2046 63.3782 39.4564C63.5187 40.8291 63.5645 41.5384 63.522 41.5809L61.9728 41.8358C61.9499 41.826 61.9368 41.8096 61.9336 41.7802C61.9238 41.7149 61.914 41.6135 61.9074 41.4795C61.9009 41.3455 61.8911 41.2475 61.8813 41.1854C61.8715 41.12 61.8224 41.0906 61.7407 41.1037C61.7309 41.1037 61.7146 41.1102 61.6917 41.1233C61.1916 41.3749 60.6981 41.5384 60.2111 41.6135C59.4724 41.7279 58.8809 41.656 58.4331 41.3978C57.9853 41.1396 57.7173 40.7245 57.6291 40.1591C57.5245 39.4858 57.7859 38.9138 58.4135 38.4464C58.9626 38.0412 59.7045 37.7666 60.636 37.6228C60.721 37.6097 60.855 37.5999 61.0315 37.5901C61.208 37.5836 61.3387 37.5738 61.4172 37.5607C61.4989 37.5476 61.5185 37.3842 61.4694 37.0672C61.4335 36.8482 61.3224 36.6652 61.1328 36.5213C60.9236 36.3612 60.6752 36.3024 60.3909 36.3481C60.0019 36.4102 59.7339 36.6259 59.5836 36.9953C59.5738 37.0279 59.5542 37.077 59.5247 37.1391L57.7533 37.6653C57.7369 37.6588 57.7238 37.6457 57.7173 37.6228C57.7238 37.6163 57.7304 37.6097 57.7336 37.5967C58.0572 36.1651 58.8384 35.3545 60.0771 35.1617C61.8584 34.8839 62.8683 35.4951 63.1004 36.9953L63.0939 36.9887ZM53.9129 40.5154C54.2528 41.0677 54.8019 41.2834 55.5536 41.1658C55.9654 41.1004 56.4524 40.9174 57.0146 40.6101C57.0342 40.6232 57.0898 40.8291 57.1813 41.2246C57.2663 41.5972 57.3186 41.8391 57.3349 41.9502C57.3349 42.0417 57.129 42.1594 56.7237 42.2934C56.3969 42.4012 56.1354 42.4699 55.9393 42.4993C54.7888 42.679 53.8475 42.4862 53.1121 41.924C52.465 41.424 52.0727 40.7213 51.9289 39.8159C51.7949 38.9596 51.844 38.1425 52.0727 37.3679C52.3898 36.3024 53.0108 35.6977 53.9292 35.5539C55.4621 35.3153 56.3773 36.1487 56.6747 38.0575C56.7041 38.2373 56.7074 38.5085 56.6878 38.8648C56.6616 39.293 56.6028 39.5414 56.508 39.6165L53.8213 39.9401C53.7298 39.9499 53.6906 39.9924 53.7037 40.0676C53.72 40.1656 53.7887 40.3127 53.9096 40.5088L53.9129 40.5154ZM44.3102 35.3316C44.5815 35.1813 45.2189 35.0277 46.2157 34.8708C47.8924 34.6093 49.1475 34.8283 49.981 35.5245C50.5856 36.0278 50.9451 36.6619 51.0628 37.4234C51.2328 38.5183 50.8994 39.5087 50.0594 40.3944C50.0365 40.4238 50.0267 40.4434 50.03 40.4598C50.0398 40.5154 50.4385 40.9141 51.2262 41.6593C52.0139 42.4045 52.4127 42.8065 52.4225 42.8653C52.4225 42.885 52.4192 42.9013 52.3996 42.9176L49.9711 43.3883L47.6015 41.3259C47.5689 41.29 47.5296 41.2769 47.4839 41.2834C47.4054 41.2965 47.3695 41.3357 47.376 41.4044L47.68 43.4863C47.6833 43.5125 47.68 43.5354 47.6604 43.5517L45.6961 44.0583C45.6732 44.0452 45.6601 44.0289 45.6568 44.0093L44.271 35.3905C44.271 35.3709 44.2808 35.3513 44.3135 35.3349L44.3102 35.3316ZM49.0919 37.8287C49.154 38.2503 49.0658 38.636 48.8207 38.9825C48.5723 39.3453 47.8892 39.6002 47.376 39.7603L47.3401 39.7669C47.2518 39.78 47.2028 39.7505 47.1897 39.6754L46.791 36.7174C46.7812 36.6423 46.8237 36.5965 46.925 36.5802C47.1113 36.5508 47.6048 36.5508 47.7977 36.5769C48.5527 36.6913 48.9841 37.1097 49.0919 37.832V37.8287ZM55.1875 38.8942L53.6841 39.1786C53.5958 39.1916 53.5435 39.1622 53.5305 39.0871C53.4782 38.7471 53.5076 38.4138 53.6187 38.0902C53.7691 37.662 54.0403 37.4169 54.4293 37.3548C54.9424 37.2763 55.2431 37.528 55.3346 38.1163C55.4098 38.6001 55.3608 38.8583 55.1843 38.8942H55.1875ZM61.6557 38.8354L61.7832 40.1035C61.793 40.2114 61.5381 40.3062 61.0184 40.3846C60.3092 40.4957 59.9202 40.3127 59.845 39.8355C59.8026 39.5675 59.8908 39.342 60.1065 39.1524C60.3092 38.9792 60.5902 38.8648 60.953 38.8092C61.4139 38.7373 61.6492 38.7439 61.6557 38.8321V38.8354ZM84.8288 32.6254L85.172 34.6845C85.1851 34.7629 85.0413 34.825 84.7406 34.8741C83.9366 34.9983 83.4822 34.7237 83.3744 34.0472C83.3156 33.6778 83.3973 33.3608 83.613 33.096C83.8483 32.8084 84.2046 32.6287 84.6883 32.5535C84.7667 32.5404 84.8158 32.5666 84.8288 32.6287V32.6254ZM67.7938 36.201L68.1501 38.7896C68.1632 38.9106 67.9115 39.0086 67.3918 39.0903C66.4767 39.2309 65.9504 38.8681 65.8132 38.0019C65.6465 36.943 66.2446 36.3089 67.6108 36.0965C67.7187 36.0801 67.7775 36.1128 67.7906 36.1978L67.7938 36.201Z" fill="#D9DDE8"/>
<path d="M8.17181 37.3417L85.666 27.3828L90.6569 0H0.134766L8.17181 37.3417Z" fill="#BDC7D6"/>
<path d="M26.3961 10.1942C25.2554 10.1779 24.6769 10.946 24.6736 11.7859C24.6998 12.8547 25.6411 13.1718 26.0137 13.2012C26.3895 13.2339 27.5564 13.1391 27.7917 11.9363C28.027 10.7302 26.968 10.24 26.3928 10.1975L26.3961 10.1942ZM27.0138 14.7733C26.6183 14.5151 26.0888 14.4693 25.7424 14.4301C24.2324 14.4464 24.5592 15.1557 24.618 15.293C24.6736 15.427 24.6409 16.7082 24.6409 16.7082C24.6409 16.7082 24.569 20.042 24.5723 20.359C24.5723 20.6793 24.4644 22.0226 24.5984 22.4083C24.7292 22.794 24.8566 22.8528 25.4744 22.9443C26.0921 23.0391 26.7883 23.0391 26.8831 22.7025C26.9811 22.3625 26.8308 22.173 26.7981 21.8919C26.6837 21.0977 26.8504 18.4437 26.8798 17.7639C26.9125 17.0775 27.0857 15.8094 27.1184 15.6231C27.1478 15.4335 27.4812 15.0838 27.0138 14.7765V14.7733Z" fill="white"/>
<path d="M35.1457 20.7937C35.0934 19.7184 35.0771 16.9239 35.0771 16.9239C35.0771 16.9239 35.1228 15.7538 35.1294 15.61C35.1424 15.4695 35.5412 14.9727 35.0281 14.6654C34.5116 14.3517 33.8155 14.5543 33.6488 14.5772C33.4854 14.5968 33.3219 14.3876 33.3219 14.3876C33.3219 14.3876 33.237 14.2569 32.7075 13.9366C31.5374 13.345 30.8085 13.5411 30.2366 13.7797C28.6808 14.5674 28.0369 17.0939 28.0369 17.0939C28.0369 17.0939 27.4551 19.5092 27.8277 20.6466C28.2036 21.7873 29.1253 22.3789 30.1124 22.7057C31.0929 23.0391 32.0113 22.6534 32.2336 22.526C32.4558 22.4018 33.0376 22.0226 33.0376 22.0226C33.0376 22.0226 33.1128 22.8855 33.0768 23.294C33.0376 23.6961 33.3742 25.7748 32.3414 26.301C31.3151 26.8239 30.3542 25.6408 30.2725 25.5525C30.1908 25.461 30.0601 25.3041 30.1483 25.0459C30.2366 24.7877 30.2039 24.5883 30.0927 24.4641C29.9783 24.3432 29.6613 24.1177 28.671 24.4674C27.6872 24.8204 27.746 25.1799 27.7722 25.4447C27.7983 25.7127 28.0631 26.3402 28.3539 26.618C29.6384 28.079 30.5993 28.2882 31.995 28.2457C32.5996 28.2228 34.09 27.4449 34.7045 26.4546C34.9725 26.0264 35.1 25.5035 35.149 24.9806C35.3026 23.245 35.1947 21.8592 35.1424 20.7904L35.1457 20.7937ZM32.9101 19.1856C32.897 19.9864 31.874 21.1271 30.8151 21.0552C30.1124 21.0094 29.9064 19.9374 30.0078 18.7183C30.1091 17.4959 30.7039 15.5119 31.8021 15.6754C31.8021 15.6754 32.4885 15.7244 32.7696 16.6232C32.8382 16.7997 32.9788 19.0353 32.9101 19.1856Z" fill="white"/>
<path d="M36.3297 8.08936C36.3297 8.08936 36.3362 7.65466 36.2578 7.55988C36.1761 7.46509 35.8721 7.1644 36.2643 6.84083C36.6598 6.52052 37.7155 6.45842 38.1927 6.62511C38.6732 6.79507 38.8268 7.08923 38.7679 7.4749C38.7124 7.8573 38.696 8.38025 38.6437 8.79534C38.5914 9.21043 38.4738 11.1649 38.4738 11.1649L38.33 15.1165L38.3627 15.8355C38.3627 15.8355 39.7746 14.3778 41.3892 14.5772C42.288 14.7504 43.1672 15.3779 43.1672 15.3779C43.1672 15.3779 44.0268 15.8094 44.2099 17.6495C44.3471 19.0288 44.285 20.4603 44.285 20.4603C44.285 20.4603 44.3046 21.8494 44.2425 22.2024C44.1804 22.5587 43.8078 22.6175 43.8078 22.6175C43.8078 22.6175 43.2784 22.794 42.4188 22.6992C41.5592 22.6077 41.7553 21.918 41.8729 21.4964C41.935 21.1761 41.9383 18.9144 41.9122 18.4535C41.886 17.9959 41.7095 16.4173 40.8499 16.4271C39.9903 16.4336 39.4216 17.3423 39.1634 17.8521C38.9052 18.362 38.7451 18.6202 38.6634 18.9961C38.562 19.4929 38.562 20.1269 38.5392 20.4211C38.5163 20.712 38.4934 21.9834 38.6339 22.7678C38.7745 23.0751 38.8497 22.9084 38.8693 23.196C38.8889 23.4836 38.6013 23.6405 37.4704 23.6372C36.3395 23.6372 36.4212 22.7482 36.4049 22.5423C36.3853 22.3364 36.3722 20.8754 36.3722 20.8754L36.3003 16.7016L36.248 13.077L36.3395 9.88372V8.0959L36.3297 8.08936Z" fill="white"/>
<path d="M46.4159 6.67088C47.1056 6.72317 47.7593 7.04348 47.7887 7.52393C47.7887 7.88019 47.6677 7.91614 47.6449 8.0763C47.6155 8.22337 47.5599 9.24639 47.5207 9.65167C47.4814 10.0602 47.439 13.3842 47.439 13.3842L47.4488 17.3651L47.5174 20.3067L47.6416 23.4281C47.6416 23.4281 47.7102 23.7941 47.9161 24.0785C48.1286 24.3596 48.1351 24.5557 47.9456 24.6864C47.7593 24.8139 47.3278 24.9969 46.5369 24.9152C45.4223 24.7975 45.3178 24.2615 45.3308 24.0229C45.3406 23.7843 45.3733 22.6796 45.3733 22.6796L45.3374 19.3883C45.3374 19.3883 45.272 15.4204 45.2458 14.8746C45.2197 14.3288 45.2589 10.9754 45.2589 10.9754C45.2589 10.9754 45.2328 8.2005 45.2328 7.96844C45.2328 7.73638 45.0138 7.61872 45.0628 7.20036C45.1086 6.78527 45.723 6.61531 46.4159 6.67088Z" fill="white"/>
<path d="M49.5077 12.4657C50.1254 12.5344 50.9098 12.4396 51.1419 11.3218C51.4131 9.99154 50.3869 9.66143 49.7266 9.6647C48.4291 9.67123 48.246 10.7041 48.3016 11.41C48.3539 12.116 48.8899 12.4004 49.5077 12.469V12.4657ZM51.1549 21.5487C51.0602 21.3656 50.9948 21.1434 50.9556 20.6891C50.9163 20.2315 50.8542 18.3489 50.8739 17.8357C50.8902 17.3193 50.9752 16.0218 51.0046 15.6165C51.0373 15.2079 51.3347 14.6327 51.0438 14.3059C50.7562 13.979 49.8149 13.7829 49.305 13.8058C48.7919 13.8221 48.4127 13.8973 48.3866 14.2307C48.3572 14.5575 48.4912 14.8713 48.4912 14.8713C48.4912 14.8713 48.5762 15.4433 48.5663 15.927C48.5533 16.4074 48.5892 18.9633 48.5892 18.9633C48.5892 18.9633 48.5892 21.297 48.6121 21.5552C48.635 21.8167 48.3768 22.235 49.8508 22.3167C51.3249 22.3985 51.253 21.7415 51.1582 21.5552L51.1549 21.5487Z" fill="white"/>
<path d="M70.0989 14.6065C70.0989 14.6065 70.2689 14.5967 70.295 14.3777C70.331 14.0672 70.7494 10.3903 70.7494 10.3903C70.7494 10.3903 70.7036 9.42936 71.3311 9.28228C71.9554 9.1352 72.3934 9.1352 72.8771 9.34438C73.3608 9.55029 73.521 10.083 73.2889 10.4295C73.0569 10.7759 72.9261 11.7009 72.8738 11.9526C72.815 12.2042 72.5502 14.2307 72.5502 14.2307L72.5404 14.3385L73.7465 14.2895C73.7465 14.2895 74.6486 14.0803 75.0277 14.4072C75.4003 14.734 75.6324 14.9464 75.6487 15.2962C75.6651 15.6459 75.6422 15.9172 75.25 15.927C74.8578 15.9368 73.2726 16.0283 73.2726 16.0283C73.2726 16.0283 72.5078 16.0708 72.4522 16.1492C72.3934 16.2309 72.2855 18.0907 72.2888 19.3294C72.2953 20.5714 72.9948 21.0159 73.3772 20.9211C73.7563 20.8231 74.1452 20.0942 74.3348 19.9863C74.5244 19.8785 74.6126 19.751 75.2336 20.287C75.8252 20.7969 75.75 21.1041 75.3709 21.65C75.214 21.8722 74.3544 22.7939 72.6614 22.4311C70.3768 21.9409 70.0957 20.64 70.0401 19.9504C69.9813 19.2542 70.014 18.1593 70.0695 17.8161C70.1218 17.4762 70.1708 16.6166 70.1284 16.414C70.112 16.3225 69.4812 16.5512 68.8798 16.3519C68.2817 16.1525 68.1836 15.6622 68.1673 15.4531C68.1477 15.2439 68.0889 14.9105 68.2719 14.8419C68.4582 14.77 70.1022 14.6098 70.1022 14.6098L70.0989 14.6065Z" fill="white"/>
<path d="M62.5292 15.6884C62.5292 15.6884 63.8496 14.2111 65.6571 14.6C67.6279 15.0249 68.1182 16.6003 68.1443 17.7998C68.1672 19.0026 68.079 20.7969 68.079 21.1434C68.079 21.4898 67.9711 22.1991 67.9711 22.1991C67.9711 22.1991 67.9515 22.6207 66.7912 22.5129C65.8336 22.4246 65.6211 22.4834 65.559 22.0193C65.4904 21.5552 65.6636 21.4702 65.729 20.3688C65.7878 19.2575 65.827 18.6823 65.827 18.6823C65.827 18.6823 65.9447 16.5055 65.1799 16.365C64.2811 16.1983 63.4901 17.1527 63.2613 17.4468C63.0325 17.7442 62.7155 18.3162 62.6305 19.4961C62.5455 20.6825 62.5423 21.4768 62.5423 21.4768C62.5423 21.4768 62.4704 22.1926 62.5325 22.2841C62.5946 22.3723 62.905 22.7482 62.4932 23.0031C62.0781 23.2581 61.346 23.2613 60.7577 23.0456C60.1694 22.8299 60.2282 22.5227 60.2086 22.003C60.189 21.4833 60.359 18.2345 60.359 18.2345L60.4668 12.0408L60.5616 8.09259C60.5616 8.09259 60.6074 7.64482 60.4701 7.31144C60.3328 6.97806 60.4014 6.32765 61.7219 6.46165C63.16 6.60546 63.1796 6.89635 63.111 7.27222C63.0391 7.64809 62.9737 7.46506 62.9345 7.88015C62.892 8.2887 62.637 12.2108 62.637 12.2108L62.5292 15.6949V15.6884Z" fill="white"/>
<path d="M59.2935 23.526C59.2575 22.6337 59.2477 20.4864 59.2477 20.4864L59.2019 18.3456C59.2019 18.3456 59.2608 16.3257 59.2869 16.0217C59.3098 15.721 59.4046 15.5151 59.5484 15.2667C59.6922 15.0216 59.1594 14.7372 58.6823 14.6523C58.2051 14.564 57.8848 14.6523 57.7213 14.7307C57.5971 14.7895 57.3422 14.5052 57.3422 14.5052C57.3422 14.5052 56.8356 14.1032 55.8845 13.9496C53.9169 13.6391 52.9985 14.8451 52.2892 17.1003C51.5081 19.7706 51.8807 20.7642 52.1977 21.3427C52.5147 21.918 53.6979 22.8364 54.8517 23.0031C56.0087 23.1698 57.0709 22.3592 57.0579 22.3723C57.1592 22.9312 57.0905 24.8595 57.0905 24.8595C57.0905 24.8595 57.048 26.1702 56.061 26.3173C55.0739 26.4676 54.7961 25.3858 54.6556 25.0818C54.515 24.7778 54.5869 24.5719 54.6163 24.2451C54.649 23.9215 54.3777 23.8136 53.9561 23.8071C53.5378 23.8038 52.6978 23.9542 52.3709 24.3693C52.0441 24.7876 52.1977 24.9413 52.2794 25.1145C52.3611 25.291 52.4951 25.5394 52.6324 25.8335C53.0998 27.1997 54.6 28.0855 55.659 28.0364C56.7212 27.9907 57.8096 27.5952 58.5188 26.7879C59.2281 25.9773 59.3327 24.415 59.2902 23.5228L59.2935 23.526ZM56.9075 19.6268C56.8258 19.9308 56.2146 21.0682 55.2275 21.1989C54.2437 21.3198 53.9855 19.8327 54.247 18.3652C54.5118 16.9009 55.2602 15.7635 55.7897 15.8028C56.3192 15.8452 56.9663 16.195 56.999 17.2899C57.0284 18.3848 56.999 19.2183 56.9075 19.6268Z" fill="white"/>
<path d="M5.42648 10.753C5.42648 10.753 4.86758 11.2825 4.84471 11.6976C4.82183 12.1127 5.21404 12.4363 5.55722 12.9429C5.60298 13.0311 6.56063 14.2601 7.49212 15.1818C8.42362 16.1034 10.4304 17.2507 11.1691 17.5089C11.2116 17.5481 11.1756 17.7017 11.1756 17.7017C11.1756 17.7017 11.0547 19.1006 10.888 20.5027C10.7213 21.9082 10.6625 22.5978 10.6625 22.5978C10.6625 22.5978 10.4566 24.3627 11.4534 24.6798C11.8489 24.8007 12.3032 24.9739 13.0354 24.768C13.7675 24.5621 13.5354 24.1732 13.5354 24.1732C13.5354 24.1732 13.3753 23.9052 13.2119 23.5326C13.0452 23.1632 13.2936 20.6629 13.2936 20.6629L13.4014 19.3849L13.5256 18.3129C13.5256 18.3129 13.4766 18.2541 13.725 18.2966C13.9767 18.3423 15.8822 18.4665 15.8822 18.4665C15.8822 18.4665 17.3366 18.5384 18.7224 18.2966C19.1636 18.1952 19.7945 17.9991 19.7945 17.9991C19.7945 17.9991 19.8533 17.9991 19.8467 18.2704C19.8337 18.5417 19.9611 19.6431 19.9709 20.0255C19.9808 20.4112 20.0723 21.748 20.0886 21.9931C20.1115 22.2383 20.2063 23.3299 20.2063 23.3299C20.2063 23.3299 20.3043 24.7484 20.5952 25.0818C20.8861 25.4119 21.7032 25.3237 21.7032 25.3237C21.7032 25.3237 22.0202 25.34 22.602 25.0589C23.1838 24.7811 22.9746 24.2876 22.9746 24.2876C22.9746 24.2876 22.9354 24.1993 22.8145 24.0424C22.6935 23.879 22.6053 23.3495 22.553 22.9279C22.504 22.5063 22.4321 21.7513 22.4321 21.7513L22.2621 19.4209L22.151 17.9959C22.151 17.9959 22.1183 17.0349 22.1771 16.9402C22.236 16.8486 22.7393 16.4924 22.7393 16.4924C22.7393 16.4924 23.7427 15.6361 23.9355 15.0674C24.1251 14.4987 24.0401 14.1914 24.0401 14.1914C24.0401 14.1914 23.9584 13.5802 23.5041 13.2011C23.344 13.0638 23.0563 13.1782 22.9681 13.3416C22.8766 13.5051 22.8243 13.6391 22.7622 13.7142C22.7033 13.7927 22.3438 14.198 22.3013 14.2372C22.2621 14.2764 22.1869 14.4006 22.1314 14.3418C22.0791 14.2862 22.0202 13.1357 22.0268 12.9429C22.0301 12.7566 21.9581 10.6909 21.9581 10.6909C21.9581 10.6909 21.9745 9.25284 21.9581 8.80507C21.9451 8.35729 22.0627 6.43546 22.0922 6.19033C22.1248 6.0694 22.2392 6.0792 22.3013 5.69026C22.3667 5.30132 21.6607 4.93526 20.7848 4.85682C20.3109 4.81433 19.9906 4.8176 19.7716 4.94833C19.5232 5.08887 19.5166 5.31766 19.5068 5.46474C19.4807 5.73275 19.6441 5.89944 19.6735 6.1936C19.6997 6.48449 19.6343 7.05646 19.6343 7.05646L19.6441 8.08601V9.92287L19.6637 12.5311L19.7127 14.3025C19.7127 14.3025 19.7716 15.6753 19.7879 15.7308C19.801 15.7864 19.7814 15.8256 19.7487 15.8485C19.7193 15.8779 18.8531 16.4041 16.4182 16.4336C15.2383 16.4237 14.2055 16.2636 13.8002 16.0936C13.8002 16.0152 13.9276 14.966 13.9276 14.966C13.9276 14.966 14.4506 11.1681 14.6205 10.3412C14.7905 9.51758 14.9997 8.18733 15.1533 7.51077C15.3069 6.83094 15.5194 6.60869 15.5847 6.50083C15.6566 6.39624 15.9671 5.81119 15.1991 5.54645C14.1041 5.49416 13.3851 5.89291 13.3851 5.89291C13.3851 5.89291 12.7477 6.22955 12.8 6.73616C12.8556 7.23949 12.7968 7.59902 12.7772 7.71015C12.7575 7.82454 12.5516 8.45861 12.4013 9.40646C12.2477 10.3543 12.1496 11.1093 12.1496 11.1093L11.8718 12.7991L11.6169 14.3091L11.46 15.319C11.46 15.319 10.6396 15.1589 9.15902 13.7142C7.67842 12.2663 7.17182 11.3414 7.02147 10.972C7.00186 10.8969 7.04435 10.4981 6.42662 10.3739C5.78601 10.302 5.42322 10.753 5.42322 10.753H5.42648Z" fill="white"/>
<path d="M81.0249 12.8711C81.0249 12.8711 82.463 12.9299 83.3945 13.9823C84.0548 14.9171 84.1136 15.9303 84.1136 15.9303C84.1136 15.9303 84.0776 16.2571 83.4599 16.3127C82.8422 16.365 82.3552 16.5154 81.9074 15.9957C81.4629 15.4793 81.5315 14.7864 80.8942 14.8975C80.2536 15.0119 79.1227 15.6786 79.0377 16.3487C78.9593 17.0056 80.198 17.3488 81.0642 17.6266C82.3454 18.0384 84.3718 18.2868 84.0744 20.0028C83.7802 21.7219 81.44 22.4018 79.5738 22.1828C79.1358 22.1338 78.737 22.088 78.3743 21.99C77.0636 21.6468 76.2596 21.1042 76.2498 20.4048C76.1092 19.7838 77.2957 19.4406 77.6813 19.4537C78.0638 19.4667 78.0311 19.4308 78.3971 19.8851C78.7632 20.3394 79.1325 20.4113 80.0215 20.4865C80.9105 20.5649 81.3289 20.2185 81.3289 20.2185C81.3289 20.2185 81.7571 19.8949 81.1165 19.6105C80.4726 19.3327 77.2565 18.6627 76.7302 17.5645C76.2008 16.4631 76.593 15.172 77.4068 14.4661C78.2239 13.7568 79.126 12.7567 81.0282 12.8711H81.0249Z" fill="white"/>
<path d="M82.5547 9.44572H82.1887V10.4197H81.8651V9.44572H81.499V9.17444H82.558V9.44572H82.5547ZM84.1432 10.423H83.8359V9.57645H83.8294L83.5189 10.423H83.3326L83.0221 9.57645H83.0156V10.423H82.7083V9.17771H83.1463L83.4274 9.88369L83.7085 9.17771H84.1464V10.423H84.1432Z" fill="white"/>
</g>
<defs>
<clipPath id="clip0_70_525">
<rect width="95.4509" height="48" fill="white" transform="translate(0.134766)"/>
</clipPath>
</defs>
</svg>
