<svg width="276" height="52" viewBox="0 0 276 52" fill="none" xmlns="http://www.w3.org/2000/svg">
<g clip-path="url(#clip0_60_2631)">
<path d="M12.2901 43.3995C8.96301 43.3995 6.17768 42.499 3.94178 40.7056C1.64484 38.9046 0.507812 36.3787 0.507812 33.1124V18.3076C0.507812 15.1177 1.64484 12.5917 3.94178 10.7755C6.29214 8.95159 9.06984 8.0282 12.2901 8.0282C15.5104 8.0282 18.1737 8.95159 20.5317 10.7755C22.8515 12.5612 24.0191 15.0872 24.0191 18.3076V19.1547H15.1899V15.3619C15.1899 14.5454 14.9076 13.8433 14.3353 13.2709C13.7477 12.691 13.0685 12.401 12.2901 12.401C11.4507 12.401 10.7563 12.691 10.184 13.2709C9.61928 13.8433 9.32167 14.5454 9.32167 15.3619V36.0658C9.32167 36.8594 9.61928 37.5463 10.184 38.1186C10.7563 38.691 11.4507 38.9733 12.2901 38.9733C13.0685 38.9733 13.7477 38.6833 14.3353 38.1186C14.9076 37.5463 15.1899 36.8594 15.1899 36.0658V31.6091H24.0191V33.1124C24.0191 36.3787 22.8591 38.9046 20.5317 40.7056C18.3034 42.499 15.5333 43.3995 12.2901 43.3995Z" fill="#231F20"/>
<path d="M40.2273 8.03586C43.3789 8.03586 46.1337 8.95926 48.4841 10.7831C50.8115 12.5689 51.9715 15.0949 51.9715 18.3153V42.3846H43.1423V15.362C43.1423 14.5454 42.8524 13.8433 42.28 13.271C41.7077 12.691 41.0133 12.401 40.2197 12.401C39.426 12.401 38.7011 12.691 38.1211 13.271C37.5488 13.8433 37.2588 14.5454 37.2588 15.362V42.3769H28.4297V0.259521H37.2588V8.34112C37.7319 8.22665 38.2203 8.1427 38.724 8.10455C39.22 8.05876 39.7236 8.02823 40.212 8.02823L40.2273 8.03586Z" fill="#231F20"/>
<path d="M68.4089 43.3995C65.0665 43.3995 62.3041 42.499 60.0529 40.7056C57.7636 38.9046 56.6113 36.3786 56.6113 33.1124V9.05078H65.4557V35.6231C65.4557 36.4168 65.7304 37.096 66.2951 37.6683C66.8751 38.2483 67.5771 38.5383 68.4089 38.5383C69.2407 38.5383 69.8817 38.2483 70.454 37.6683C71.0264 37.096 71.3164 36.4168 71.3164 35.6231V9.05078H80.1378V33.1124C80.1378 36.3786 78.9779 38.9046 76.6505 40.7056C74.4069 42.499 71.6597 43.3995 68.4013 43.3995H68.4089Z" fill="#231F20"/>
<path d="M109.555 42.3769H100.711V15.713C100.711 14.9193 100.429 14.2401 99.864 13.6601C99.2917 13.0801 98.5973 12.7902 97.8036 12.7902C97.01 12.7902 96.2851 13.0801 95.7051 13.6601C95.1328 14.2325 94.8428 14.9117 94.8428 15.713V42.3769H86.0137V18.3076C86.0137 15.1177 87.1736 12.5917 89.4629 10.7755C91.8209 8.95159 94.5986 8.0282 97.8036 8.0282C101.009 8.0282 103.702 8.95159 106.06 10.7755C108.38 12.5612 109.555 15.0872 109.555 18.3076V42.3769Z" fill="#231F20"/>
<path d="M130.556 52H125.039C125.703 50.0693 126.298 48.108 126.802 46.1773C127.298 44.2313 127.694 42.2548 127.984 40.2096L125.649 40.4309C122.322 40.4309 119.545 39.538 117.301 37.737C115.019 35.9436 113.859 33.4024 113.859 30.1438V18.2999C113.859 15.11 115.012 12.5841 117.301 10.7678C119.674 8.9439 122.437 8.02051 125.649 8.02051C128.862 8.02051 131.563 8.9439 133.906 10.7678C136.241 12.5535 137.401 15.0795 137.401 18.2999V31.6014C137.401 35.4476 136.676 39.042 135.234 42.3692C134.532 44.1321 133.792 45.7957 133.006 47.3601C132.227 48.9246 131.411 50.4661 130.556 51.9924V52ZM128.564 33.5092C128.618 30.4796 128.633 27.4499 128.618 24.4355C128.572 21.4212 128.564 18.3991 128.564 15.3619C128.564 14.5453 128.282 13.8432 127.702 13.2709C127.13 12.6909 126.435 12.4009 125.649 12.4009C124.863 12.4009 124.138 12.6909 123.566 13.2709C122.978 13.8432 122.696 14.5453 122.696 15.3619V33.1124C122.696 33.9213 122.978 34.631 123.566 35.2034C124.138 35.7834 124.833 36.0657 125.649 36.0657C127.328 36.0657 128.305 35.2034 128.564 33.5092Z" fill="#231F20"/>
<path d="M152.816 43.3994C149.488 43.3994 146.711 42.4989 144.475 40.7056C142.178 38.9046 141.033 36.3786 141.033 33.12V18.3152C141.033 15.1253 142.178 12.5993 144.475 10.7831C146.825 8.95916 149.61 8.03577 152.816 8.03577C156.021 8.03577 158.722 8.95916 161.072 10.7831C163.392 12.5688 164.56 15.0948 164.56 18.3152V18.7654H155.723V15.3695C155.723 14.5529 155.433 13.8509 154.868 13.2785C154.288 12.6985 153.602 12.4085 152.808 12.4085C152.014 12.4085 151.282 12.6985 150.709 13.2785C150.137 13.8509 149.847 14.5529 149.847 15.3695V36.0733C149.847 36.8365 150.129 37.5157 150.686 38.1033C151.259 38.6909 151.953 38.9809 152.8 38.9809C153.594 38.9809 154.281 38.6909 154.861 38.1262C155.425 37.5538 155.715 36.8746 155.715 36.0733V32.3645H164.552V33.12C164.552 36.3786 163.385 38.9046 161.065 40.7056C158.829 42.4989 156.074 43.3994 152.808 43.3994H152.816Z" fill="#231F20"/>
<path d="M180.723 8.03586C183.882 8.03586 186.629 8.95926 188.98 10.7831C191.299 12.5689 192.467 15.0949 192.467 18.3153V42.3846H183.638V15.362C183.638 14.5454 183.355 13.8433 182.783 13.271C182.203 12.691 181.516 12.401 180.715 12.401C179.914 12.401 179.197 12.691 178.632 13.271C178.052 13.8433 177.77 14.5454 177.77 15.362V42.3769H168.94V0.259521H177.77V8.34112C178.243 8.22665 178.723 8.1427 179.227 8.10455C179.708 8.05876 180.211 8.02823 180.715 8.02823L180.723 8.03586Z" fill="#231F20"/>
<path d="M212.384 52H206.866C207.546 50.0693 208.133 48.1233 208.629 46.2002C209.133 44.2695 209.53 42.2929 209.82 40.2554C209.407 40.324 209.011 40.3622 208.629 40.3851C208.255 40.4156 207.874 40.4309 207.484 40.4309C204.165 40.4309 201.387 39.5304 199.136 37.737C196.854 35.936 195.702 33.4024 195.702 30.1438V9.05078H204.539V33.1201C204.539 33.929 204.821 34.6387 205.401 35.2034C205.974 35.7834 206.676 36.0658 207.492 36.0658C209.171 36.0658 210.14 35.2034 210.415 33.5093V9.05078H219.244V31.609C219.244 35.4552 218.511 39.0496 217.069 42.3769C216.367 44.1397 215.627 45.8034 214.841 47.3678C214.055 48.9322 213.246 50.4737 212.391 52H212.384Z" fill="#231F20"/>
<path d="M246.693 23.1382C245.884 23.1382 245.251 23.4435 244.793 24.0464C244.327 24.6416 244.091 25.4048 244.091 26.3053C244.091 27.2058 244.327 27.9536 244.823 28.5489C245.304 29.1365 245.915 29.4265 246.64 29.4265C247.365 29.4265 248.006 29.1365 248.509 28.5412C249.013 27.946 249.257 27.1905 249.257 26.2442C249.257 25.3971 249.028 24.6645 248.57 24.054C248.105 23.4435 247.487 23.1306 246.701 23.1306L246.693 23.1382Z" fill="#4155A4"/>
<path d="M250.119 0C236.109 0 224.746 11.3707 224.746 25.3742C224.746 39.3778 236.109 50.7485 250.119 50.7485C264.13 50.7485 275.5 39.393 275.5 25.3742C275.5 11.3555 264.138 0 250.119 0ZM237.078 28.5107C237.635 29.0526 238.329 29.3197 239.184 29.3197C239.848 29.3197 240.497 29.1899 241.115 28.9152L241.374 30.1133C240.672 30.4491 239.848 30.6094 238.894 30.6094C237.627 30.6094 236.589 30.2125 235.803 29.4341C235.017 28.6557 234.628 27.6331 234.628 26.3892C234.628 25.0766 235.048 24.0082 235.895 23.1993C236.742 22.3599 237.864 21.9554 239.222 21.9554C240.054 21.9554 240.787 22.1004 241.405 22.4133L241.069 23.6343C240.542 23.3596 239.947 23.2222 239.237 23.2222C238.329 23.2222 237.604 23.5122 237.07 24.0922C236.528 24.6645 236.254 25.3971 236.254 26.2824C236.254 27.2134 236.528 27.9613 237.078 28.5107ZM250.356 28.5336C249.99 29.2052 249.471 29.7165 248.807 30.0752C248.128 30.4338 247.403 30.617 246.632 30.617C245.426 30.617 244.434 30.2202 243.648 29.4265C242.862 28.6328 242.465 27.6102 242.465 26.3587C242.465 25.0232 242.877 23.9472 243.686 23.1535C244.495 22.3599 245.525 21.963 246.754 21.963C247.983 21.963 248.99 22.3599 249.753 23.1306C250.531 23.9319 250.913 24.9469 250.913 26.1908C250.913 27.076 250.722 27.8544 250.356 28.526V28.5336ZM265.389 30.1515H263.863V25.8016C263.863 24.9927 263.527 24.3516 263.214 23.9167C262.909 23.474 262.36 23.2604 261.772 23.2604C261.261 23.2604 260.925 23.4588 260.536 23.8327C260.147 24.2295 260.055 24.7332 260.055 25.3361V30.1438H258.529V25.5269C258.529 24.8248 258.193 24.2753 257.88 23.8632C257.567 23.4588 257.056 23.2604 256.507 23.2604C255.957 23.2604 255.629 23.474 255.224 23.9167C254.82 24.3669 254.721 24.8858 254.721 25.4735V30.1438H253.195V24.4203C253.195 23.4969 252.828 22.5125 252.783 22.5125H254.171L254.286 23.6801C254.904 22.6575 255.804 22.0546 256.987 22.0546C257.529 22.0546 258.002 22.1538 258.445 22.4514C258.864 22.7491 259.193 23.1459 259.414 23.6648C260.093 22.5506 261.039 21.9783 262.253 21.9783C263.077 21.9783 263.924 22.2835 264.458 22.9093C264.977 23.5275 265.404 24.428 265.404 25.6261V30.1515H265.389Z" fill="#4155A4"/>
</g>
<defs>
<clipPath id="clip0_60_2631">
<rect width="275" height="52" fill="white" transform="translate(0.5)"/>
</clipPath>
</defs>
</svg>
