<svg width="105" height="48" viewBox="0 0 105 48" fill="none" xmlns="http://www.w3.org/2000/svg">
<g clip-path="url(#clip0_70_568)">
<path d="M102.883 30.2067C102.86 30.1773 102.837 30.1479 102.818 30.1185L103.56 29.1151C104.684 27.592 104.527 25.4773 103.187 24.1405C102.02 22.9737 100.654 22.0684 99.1179 21.4441C97.6013 20.8264 96.0162 20.5159 94.4081 20.5159C92.8 20.5159 91.1364 20.8721 89.682 21.5781C88.9694 21.9246 88.319 22.3396 87.7307 22.8201C86.9888 22.2514 86.1848 21.784 85.3121 21.4278C84.5407 21.1107 83.7498 20.8819 82.9425 20.7348C84.5898 19.1987 86.1259 16.7408 86.1259 12.8972C86.1259 10.4459 85.4134 8.19066 84.008 6.18712C82.6974 4.31758 80.9586 2.83045 78.8439 1.76821C76.7619 0.722321 74.5459 0.192837 72.2515 0.192837C71.3657 0.192837 70.5062 0.281084 69.6956 0.451042C69.1792 0.199374 68.6072 0.0653684 68.0222 0.0653684C67.9764 0.0653684 67.9306 0.0653684 67.8849 0.0653684L63.7634 0.212447C62.3449 0.264742 61.1291 1.08512 60.5113 2.26501L60.0603 1.67343C59.3706 0.768078 58.3149 0.218984 57.1775 0.169958L53.0593 0C53.007 0 52.9547 0 52.9024 0C51.9121 0 50.9577 0.385673 50.242 1.07531C50.17 1.14722 50.0981 1.21912 50.0328 1.29756C49.3627 0.715784 48.4966 0.369331 47.5651 0.362795C47.5651 0.362795 43.29 0.320305 43.277 0.320305C41.8192 0.320305 40.4857 1.15048 39.8451 2.46112L39.5117 3.14095C39.3352 2.48727 38.9855 1.88588 38.4887 1.40542C37.7729 0.709247 36.8153 0.320305 35.8217 0.320305C35.7955 0.320305 35.7694 0.320305 35.7465 0.320305L31.4976 0.405284C30.6609 0.421626 29.8895 0.705978 29.2685 1.17663C28.6148 0.653684 27.7846 0.339916 26.8793 0.339916H22.6304C20.519 0.339916 18.8063 2.05257 18.8063 4.16397V20.2642C18.8063 20.3982 18.8128 20.5289 18.8259 20.6597H17.1263C16.1556 20.6597 15.2699 21.0225 14.5966 21.6173C13.0506 20.9113 11.387 20.5518 9.64819 20.5518C7.43547 20.5518 5.06587 21.1826 2.60802 22.4312C1.29084 23.1045 0.47374 24.4739 0.516229 25.9545L0.941124 40.718C0.999955 42.7869 2.693 44.4309 4.76191 44.4309H9.01085C10.0404 44.4309 11.0275 44.0158 11.7465 43.2771C12.4656 42.5385 12.8578 41.5416 12.8316 40.5121L12.8186 39.9564C12.982 39.9172 13.1421 39.8714 13.3023 39.8257V40.584C13.3023 42.6954 15.0149 44.408 17.1263 44.408H21.3753C22.2414 44.408 23.0422 44.1204 23.6828 43.6334C24.3463 44.2054 25.2124 44.5518 26.157 44.5584C26.157 44.5584 30.419 44.5812 30.4255 44.5812C31.2622 44.5812 32.0728 44.3067 32.733 43.8066L38.7796 47.2973C39.5738 47.7581 40.4825 48 41.4009 48C42.3193 48 43.2247 47.7581 44.0222 47.2973L50.1668 43.7478C50.8368 44.2707 51.6637 44.5584 52.52 44.5584C52.5658 44.5584 52.6116 44.5584 52.6573 44.5584L56.7788 44.408C58.1221 44.359 59.2791 43.6236 59.923 42.545L60.1747 42.8849C60.897 43.8589 62.0344 44.4309 63.247 44.4309H67.3685C67.4894 44.4309 67.6103 44.4243 67.7313 44.4145C67.8522 44.4243 67.9699 44.4309 68.0908 44.4309H72.2123C73.3497 44.4309 74.3694 43.9341 75.0689 43.1464C76.7488 44.0975 78.5759 44.5812 80.5173 44.5812C82.194 44.5812 83.8315 44.2152 85.384 43.4896C85.9952 43.2052 86.5672 42.8751 87.1064 42.5058C87.6915 42.8882 88.319 43.2314 88.9891 43.5255C90.6167 44.238 92.3 44.6008 93.9865 44.6008C95.7612 44.6008 97.4445 44.2054 98.9871 43.4242C100.569 42.6202 101.863 41.4926 102.831 40.0708C103.87 38.5445 104.396 36.8384 104.396 34.9982C104.396 33.1581 103.89 31.5664 102.89 30.2067H102.883Z" fill="#BDC7D6"/>
<path d="M13.1557 25.1636C14.2474 25.6865 15.1201 26.4088 15.7803 27.3305C16.4372 28.2522 16.7673 29.285 16.7673 30.4323C16.7673 31.5795 16.4765 32.5273 15.8979 33.449C15.3162 34.3707 14.5219 35.0996 13.5087 35.6356C12.4955 36.1749 11.3875 36.4429 10.1848 36.4429C9.80235 36.4429 9.37745 36.4069 8.91007 36.3383L9.01466 40.6069H4.76571L4.34082 25.8434C6.26592 24.8661 8.0374 24.3792 9.652 24.3792C10.8973 24.3792 12.0674 24.6406 13.1557 25.1668V25.1636ZM9.82196 32.6417C10.2763 32.6417 10.711 32.5437 11.1293 32.3443C11.5477 32.1449 11.8843 31.8769 12.1393 31.537C12.3942 31.1971 12.5217 30.8277 12.5217 30.4323C12.5217 29.7394 12.2667 29.1608 11.7569 28.7C11.247 28.2392 10.6521 28.0104 9.97231 28.0104C9.54741 28.0104 9.13559 28.115 8.74011 28.3274L8.82509 32.4489C9.15193 32.5763 9.48204 32.6384 9.82523 32.6384L9.82196 32.6417Z" fill="white"/>
<path d="M26.1347 34.7662L21.3759 34.2563V40.5872H17.127V24.487H21.3759V30.0302L26.1118 30.5172L26.0693 24.5491L30.3183 24.4641L30.4229 40.7572L26.1739 40.7343L26.1314 34.7662H26.1347Z" fill="white"/>
<path d="M67.4934 24.2092L67.366 40.6069H63.2445L56.554 31.5795L56.639 40.5872L52.5175 40.7376L52.3672 24.1471L56.4887 24.3171L63.3066 33.2594L63.372 24.3595L67.4934 24.2125V24.2092Z" fill="white"/>
<path d="M68.2154 24.4641H72.3368L72.2094 40.6101H68.0879L68.2154 24.4641Z" fill="white"/>
<path d="M76.618 39.6197C75.4217 38.8615 74.4739 37.8483 73.7712 36.5834C73.0717 35.3152 72.7188 33.9523 72.7188 32.4946C72.7188 31.0369 73.0815 29.6445 73.8006 28.4058C74.5229 27.1671 75.5034 26.1833 76.7422 25.4544C77.9809 24.7256 79.3308 24.3595 80.7885 24.3595C81.8507 24.3595 82.8737 24.5621 83.8575 24.9642C84.8413 25.3662 85.6944 25.9806 86.4167 26.801C87.139 27.6214 87.6489 28.6215 87.9463 29.7949L84.2497 30.9192C84.0373 30.3113 83.6124 29.772 82.975 29.3046C82.3377 28.8372 81.586 28.6019 80.7231 28.6019C79.6478 28.6019 78.7522 28.932 78.0365 29.589C77.3207 30.2459 76.9644 31.2003 76.9644 32.4456C76.9644 33.2823 77.1344 34.0079 77.4743 34.6223C77.8142 35.2368 78.2685 35.7042 78.834 36.0245C79.3994 36.3415 80.0171 36.5017 80.6806 36.5017C81.2755 36.5017 81.8278 36.3742 82.3377 36.1193C82.8476 35.8643 83.2692 35.5506 83.6026 35.1747C83.936 34.7988 84.1517 34.4426 84.2497 34.1027L87.711 35.2924C87.541 36.2827 87.1031 37.1978 86.3938 38.0313C85.6846 38.868 84.8086 39.5282 83.7595 40.0185C82.7103 40.5088 81.6285 40.7506 80.5107 40.7506C79.1085 40.7506 77.8077 40.3715 76.6114 39.6132L76.618 39.6197Z" fill="white"/>
<path d="M90.5222 40.0218C89.3749 39.5185 88.4336 38.8517 87.6982 38.015L90.5647 34.8708C91.019 35.3807 91.5517 35.7827 92.1694 36.0703C92.7872 36.3612 93.4049 36.505 94.0292 36.505C94.5946 36.505 95.0555 36.4004 95.4084 36.188C95.7614 35.9755 95.9379 35.7271 95.9379 35.446C95.9379 35.1649 95.768 34.9558 95.4281 34.8316C95.0881 34.7041 94.6502 34.6387 94.1109 34.6387C93.0617 34.6387 92.0975 34.4197 91.2118 33.9818C90.3261 33.5438 89.6201 32.9359 89.0873 32.1645C88.5578 31.3932 88.2898 30.5271 88.2898 29.5629C88.2898 28.5987 88.5676 27.6803 89.12 26.886C89.6724 26.0918 90.4143 25.4708 91.3491 25.0165C92.2838 24.5622 93.3036 24.3367 94.4083 24.3367C95.513 24.3367 96.6178 24.5524 97.68 24.9838C98.7422 25.4152 99.677 26.0362 100.484 26.8435L98.0853 30.0924C96.755 29.1151 95.4934 28.6281 94.3037 28.6281C93.7808 28.6281 93.3265 28.7196 92.9441 28.9027C92.5617 29.0857 92.3688 29.3079 92.3688 29.5596C92.3688 29.8276 92.5943 30.0303 93.0486 30.1643C93.503 30.2983 94.039 30.3669 94.6632 30.3669C95.7974 30.3669 96.8073 30.5434 97.6996 30.8964C98.5919 31.2494 99.2913 31.7756 99.8012 32.4685C100.311 33.1614 100.566 34.0047 100.566 34.995C100.566 36.0572 100.265 37.0312 99.6639 37.917C99.0625 38.8027 98.2585 39.4989 97.2518 40.0087C96.2452 40.5186 95.1568 40.7736 93.9801 40.7736C92.8035 40.7736 91.6661 40.5219 90.5189 40.0185L90.5222 40.0218Z" fill="white"/>
<path d="M32.9033 37.8516V28.0398L41.3979 32.9457V42.7575L32.9033 37.8516Z" fill="#BDC7D6"/>
<path d="M32.9033 28.0398L41.3979 23.1339L49.8958 28.0398L41.3979 32.9457L32.9033 28.0398Z" fill="#D9DDE8"/>
<path d="M41.3984 32.9457L49.8963 28.0398V37.8516L41.3984 42.7575V32.9457Z" fill="#E4E7EF"/>
<path d="M31.6386 14.4464L26.8798 13.9366V20.2675H22.6309V4.16399H26.8798V9.70723L31.6157 10.1942L31.5733 4.22609L35.8222 4.14111L35.9268 20.4342L31.6778 20.4113L31.6354 14.4432L31.6386 14.4464Z" fill="white"/>
<path d="M47.3134 16.7409L41.9172 16.718L40.5575 20.0943L36.3086 18.3522L43.2769 4.14111L47.5258 4.1836L52.5167 19.2674L48.2677 20.2871L47.3134 16.7409ZM46.1661 12.4919L45.1464 8.66787L43.6168 12.469L46.1661 12.4919Z" fill="white"/>
<path d="M68.0257 3.8862L67.8982 20.2839H63.7767L57.0863 11.2565L57.1712 20.2642L53.0498 20.4146L52.8994 3.8241L57.0209 3.99405L63.8388 12.9364L63.9042 4.03654L68.0257 3.88946V3.8862Z" fill="white"/>
<path d="M77.1287 5.18377C78.6779 5.96165 79.9297 7.02715 80.8776 8.38028C81.8254 9.73341 82.2993 11.2369 82.2993 12.894C82.2993 15.4303 81.3776 17.3194 79.5375 18.5647C77.6974 19.8099 75.2167 20.4342 72.1019 20.4342C70.8566 20.4342 69.6244 20.3623 68.4053 20.2218L68.5752 4.82097C69.2256 4.53662 69.8401 4.33071 70.4121 4.20651C70.9841 4.07904 71.5985 4.01367 72.2489 4.01367C73.9485 4.01367 75.5729 4.40261 77.1254 5.1805L77.1287 5.18377ZM77.6908 12.237C77.6908 11.5147 77.4882 10.8839 77.0862 10.3479C76.6842 9.80858 76.158 9.39676 75.5141 9.10587C74.8702 8.81498 74.2067 8.67117 73.5269 8.67117C73.1739 8.67117 72.8765 8.70059 72.6346 8.75615V15.9565C76.0043 16.0284 77.6908 14.7897 77.6908 12.2403V12.237Z" fill="white"/>
<path d="M41.3978 44.176C41.1527 44.176 40.9076 44.1139 40.6886 43.9864L32.1907 39.0805C31.7527 38.8289 31.4814 38.3615 31.4814 37.8549V28.0431C31.4814 27.5365 31.7527 27.0691 32.1907 26.8174C32.6287 26.5657 33.1679 26.5657 33.6059 26.8174L42.1038 31.7233C42.5418 31.975 42.8131 32.4424 42.8131 32.949V42.7608C42.8131 43.2674 42.5418 43.7347 42.1038 43.9864C41.8848 44.1139 41.6397 44.176 41.3946 44.176H41.3978ZM34.3184 37.0345L39.9826 40.3062V33.7661L34.3184 30.4944V37.0378V37.0345Z" fill="white"/>
<path d="M41.3978 34.3642C41.1527 34.3642 40.9076 34.3021 40.6886 34.1746L32.1907 29.2687C31.7527 29.0171 31.4814 28.5497 31.4814 28.0431C31.4814 27.5365 31.7527 27.0691 32.1907 26.8174L40.6886 21.9115C41.1266 21.6599 41.6658 21.6599 42.1038 21.9115L50.6017 26.8174C51.0397 27.0691 51.3109 27.5365 51.3109 28.0431C51.3109 28.5497 51.0397 29.0171 50.6017 29.2687L42.1038 34.1746C41.8848 34.3021 41.6397 34.3642 41.3946 34.3642H41.3978ZM35.7337 28.0398L41.3978 31.3115L47.062 28.0398L41.3978 24.7681L35.7337 28.0398Z" fill="white"/>
<path d="M41.398 44.176C41.1529 44.176 40.9077 44.1139 40.6887 43.9864C40.2508 43.7347 39.9795 43.2674 39.9795 42.7608V32.949C39.9795 32.4424 40.2508 31.975 40.6887 31.7233L49.1866 26.8174C49.6246 26.5657 50.1639 26.5657 50.6019 26.8174C51.0398 27.0691 51.3111 27.5365 51.3111 28.0431V37.8549C51.3111 38.3615 51.0398 38.8289 50.6019 39.0805L42.104 43.9864C41.885 44.1139 41.6398 44.176 41.3947 44.176H41.398ZM42.8165 33.7661V40.3062L48.4807 37.0345V30.4944L42.8165 33.7661Z" fill="white"/>
</g>
<defs>
<clipPath id="clip0_70_568">
<rect width="103.877" height="48" fill="white" transform="translate(0.516602)"/>
</clipPath>
</defs>
</svg>
