<svg width="121" height="48" viewBox="0 0 121 48" fill="none" xmlns="http://www.w3.org/2000/svg">
<g clip-path="url(#clip0_70_463)">
<path d="M78.5341 5.60207C78.8212 6.54044 79.1119 7.42628 79.399 8.2631L77.8129 8.80931C77.5328 7.91997 77.2456 6.98161 76.9585 5.99072C76.0097 5.37449 74.9558 4.67772 73.7968 3.90392C73.1351 3.45575 72.939 3.02508 73.2121 2.61542C73.5272 2.13924 74.0209 2.13924 74.6932 2.61892C75.593 3.27018 76.4438 3.86891 77.2421 4.41862C77.5748 3.29118 77.8689 2.3073 78.128 1.46348C78.3626 0.679177 78.7687 0.371058 79.3429 0.542624C79.7351 0.658169 79.8296 1.04332 79.6266 1.70507C79.2204 3.0636 78.8563 4.3626 78.5376 5.60558L78.5341 5.60207Z" fill="#E4E7EF"/>
<path d="M80.0682 4.79683C80.1312 4.07555 80.4253 3.48382 80.954 3.02164C81.4827 2.56297 82.1375 2.36689 82.9183 2.43342C83.6781 2.49994 84.2698 2.78355 84.697 3.28424C85.1241 3.78494 85.3027 4.39767 85.2397 5.12946C85.1801 5.82272 84.8895 6.39694 84.3678 6.84862C83.8461 7.30029 83.1704 7.49287 82.3405 7.41934C81.6963 7.36332 81.1396 7.10772 80.6704 6.65254C80.2012 6.19737 79.9981 5.57763 80.0682 4.79683ZM81.4477 4.86335C81.4127 5.27651 81.5142 5.59864 81.7558 5.83673C81.9974 6.07132 82.2565 6.20437 82.5296 6.22538C82.8482 6.23938 83.1389 6.13434 83.405 5.91376C83.6676 5.69317 83.8146 5.40256 83.8461 5.04192C83.8846 4.61476 83.7866 4.28563 83.552 4.05454C83.3174 3.82345 83.0548 3.6939 82.7677 3.66939C82.4946 3.64488 82.2145 3.73242 81.9309 3.9355C81.6473 4.13857 81.4862 4.44669 81.4512 4.86685L81.4477 4.86335Z" fill="#E4E7EF"/>
<path d="M86.1147 2.00273C86.1638 1.60708 86.4194 1.43551 86.878 1.49503C87.3822 1.55806 87.6133 1.75413 87.5748 2.08326L87.3437 3.97399C87.2947 4.38365 87.3262 4.68476 87.4418 4.88084C87.5573 5.07341 87.7254 5.18896 87.9495 5.22397C88.2296 5.26599 88.4712 5.20997 88.6707 5.05591C88.8738 4.90185 88.9964 4.63925 89.0419 4.2716L89.252 2.55594C89.3045 2.07276 89.5881 1.86618 90.1063 1.9362C90.5895 1.99573 90.8031 2.25483 90.7435 2.71701C90.4704 4.69527 90.3059 6.06079 90.2498 6.82059L88.8143 6.64552L88.8633 6.24637C88.5727 6.46695 88.0895 6.53348 87.4138 6.45295C86.8956 6.38992 86.4859 6.12032 86.1883 5.64413C85.8872 5.16795 85.7961 4.5202 85.9117 3.70439L86.1183 2.00973L86.1147 2.00273Z" fill="#E4E7EF"/>
<path d="M95.603 8.20366L94.297 7.78L94.9797 5.67919C95.0778 5.38158 95.1128 5.11898 95.0883 4.88439C95.0638 4.6533 94.9587 4.48173 94.7731 4.37669C94.4195 4.19462 94.1009 4.15961 93.8173 4.27865C93.5302 4.3942 93.3516 4.57276 93.2746 4.80736L92.4798 7.21628L91.1562 6.78562L92.4482 2.81159C92.5813 2.39843 92.8859 2.26538 93.3516 2.41944C93.6562 2.51747 93.7683 2.77307 93.6877 3.17923C94.3775 2.90962 95.0953 3.00416 95.8376 3.46634C96.0826 3.6309 96.2822 3.883 96.4433 4.22263C96.6044 4.56576 96.5938 5.05245 96.4188 5.6897L95.603 8.20366Z" fill="#E4E7EF"/>
<path d="M102.483 5.61262C102.858 5.8192 102.91 6.15533 102.644 6.62101C101.881 7.93752 101.289 8.97041 100.866 9.7162C100.579 10.2379 100.197 10.623 99.7207 10.8716C99.2446 11.1237 98.6773 11.1307 98.0121 10.8927C97.2208 10.553 96.6291 10.1434 96.2334 9.65668L97.0177 8.64829C97.3503 9.09646 97.739 9.43259 98.1871 9.65668C98.4568 9.78273 98.7264 9.82474 98.989 9.78973C99.2551 9.75471 99.4581 9.61116 99.5982 9.35556L99.7558 9.06845C99.3041 9.07545 98.8874 8.97391 98.5093 8.76383C97.893 8.4242 97.4974 7.95852 97.3188 7.3773C97.1403 6.79257 97.1928 6.24286 97.4799 5.73167C97.809 5.13644 98.3027 4.74428 98.9574 4.55871C99.6122 4.37314 100.242 4.45017 100.852 4.7863C101.205 4.98238 101.489 5.24848 101.696 5.57761C101.871 5.39904 102.133 5.40954 102.487 5.60562L102.483 5.61262ZM100.607 7.42282C100.796 7.07968 100.831 6.76806 100.715 6.48796C100.596 6.20785 100.411 5.99777 100.158 5.85421C99.9168 5.72116 99.6437 5.69315 99.3391 5.77368C99.0345 5.85421 98.8104 6.01878 98.6703 6.27437C98.5093 6.56499 98.4848 6.8521 98.5968 7.1287C98.7089 7.40531 98.8699 7.60139 99.0765 7.72043C99.3951 7.8955 99.6997 7.94452 99.9904 7.86749C100.281 7.79046 100.488 7.6434 100.607 7.42632V7.42282Z" fill="#E4E7EF"/>
<path d="M42.5892 5.64416C42.2496 4.93338 42.3021 4.4677 42.7537 4.25062C43.3035 4.00202 43.7306 4.21211 44.0317 4.88436L45.8209 8.8724L46.8048 5.7492C46.8958 5.46909 47.0289 5.31503 47.211 5.29052C47.393 5.26601 47.5716 5.37806 47.7432 5.63015L49.6024 8.27717L50.4532 4.03354C50.6038 3.33327 50.9329 3.02165 51.4336 3.10568C51.9553 3.19671 52.1339 3.62388 51.9763 4.38717L50.6038 11.0818L49.8055 11.1938L47.6696 8.23516L46.5527 11.7015L45.5128 11.8485L42.5857 5.64066L42.5892 5.64416Z" fill="#E4E7EF"/>
<path d="M52.4456 8.07411C52.3581 7.35283 52.5226 6.71559 52.9463 6.15537C53.3665 5.59516 53.9652 5.26953 54.7425 5.17149C55.4988 5.07696 56.136 5.23102 56.6577 5.63367C57.1794 6.03283 57.4841 6.59654 57.5716 7.32482C57.6556 8.01459 57.4911 8.63783 57.0779 9.18754C56.6647 9.74075 56.0415 10.0664 55.2152 10.1679C54.5744 10.2449 53.9757 10.1119 53.4225 9.76176C52.8693 9.41163 52.5436 8.85141 52.4491 8.07061L52.4456 8.07411ZM53.8111 7.85003C53.8602 8.25968 54.0282 8.5573 54.3153 8.73587C54.5989 8.91794 54.879 8.99147 55.1522 8.95645C55.4673 8.90393 55.7299 8.73937 55.9435 8.46977C56.1535 8.20016 56.2376 7.88504 56.1956 7.5244C56.143 7.10074 55.9785 6.79962 55.7019 6.62105C55.4253 6.44248 55.1416 6.37246 54.8545 6.40747C54.5814 6.44248 54.3258 6.58604 54.0912 6.84164C53.8567 7.09724 53.7621 7.43337 53.8146 7.85003H53.8111Z" fill="#E4E7EF"/>
<path d="M58.2442 8.64835C58.1461 7.84304 58.3317 7.12876 58.8009 6.50202C59.2701 5.87528 59.9423 5.51114 60.8107 5.4026C61.6545 5.29756 62.3688 5.46912 62.95 5.9173C63.5312 6.36547 63.8708 6.99571 63.9724 7.80802C64.0669 8.58182 63.8813 9.27509 63.4192 9.89133C62.957 10.5076 62.2602 10.8717 61.3359 10.9872C60.6181 11.0748 59.9528 10.9242 59.3331 10.5356C58.7133 10.1469 58.3527 9.51668 58.2442 8.64835ZM59.7673 8.40325C59.8233 8.86193 60.0123 9.19106 60.331 9.39414C60.6496 9.59721 60.9612 9.67775 61.2693 9.63923C61.623 9.57971 61.9171 9.39764 62.1517 9.09652C62.3863 8.7954 62.4808 8.44177 62.4318 8.03911C62.3723 7.56293 62.1902 7.2268 61.8786 7.02722C61.567 6.82765 61.2518 6.75062 60.9297 6.78913C60.6251 6.82765 60.338 6.98871 60.0754 7.27232C59.8128 7.55943 59.7112 7.93407 59.7673 8.39975V8.40325Z" fill="#E4E7EF"/>
<path d="M67.3999 10.7701L66.0869 10.0908L69.0946 3.82339C69.2486 3.50827 69.4552 3.35071 69.7178 3.35071C70.0399 3.35071 70.2745 3.50827 70.4216 3.82339L73.4292 10.0208L72.1057 10.7701L71.2199 8.90385L68.2262 9.08942L67.4069 10.7701H67.3999ZM68.783 7.7309L70.6247 7.62586L69.7493 5.64409L68.783 7.7309Z" fill="#E4E7EF"/>
<path d="M8.67515 8.74628L7.91186 11.3373C7.64925 12.0516 7.2501 12.3877 6.7214 12.3422C6.18919 12.3002 5.82155 12.0831 5.61497 11.6909L4.43501 8.73578L2.02258 8.50819C1.55691 8.51519 1.20327 8.33312 0.965177 7.96198C0.727085 7.59084 0.828625 7.13216 1.26629 6.57895L3.19904 4.59718L3.11851 1.73658C2.98896 1.22888 3.08349 0.896256 3.40212 0.742197C3.72074 0.588137 4.10239 0.654663 4.55056 0.941774L6.89296 2.43685L9.26688 1.37244C9.70104 1.13785 10.0827 1.16586 10.4083 1.45997C10.7339 1.75409 10.8705 2.15674 10.811 2.66444L10.0652 4.87029L12.1345 6.92908C12.4636 7.26871 12.5371 7.63285 12.3656 8.018C12.1905 8.40315 11.7914 8.57822 11.1681 8.5362L8.67515 8.73928V8.74628Z" fill="#E4E7EF"/>
<path d="M9.64148 22.5312L8.57707 23.3925C8.26195 23.6131 7.99934 23.6411 7.78926 23.4696C7.57918 23.298 7.48815 23.1019 7.51616 22.8778L7.8733 21.3057L6.93143 20.5179C6.73536 20.3884 6.64082 20.2098 6.64782 19.9857C6.65483 19.7616 6.82989 19.6006 7.16952 19.4955L8.54555 19.2224L9.33336 18.0039C9.42439 17.7554 9.56095 17.6433 9.73952 17.6713C9.91458 17.6993 10.0581 17.8359 10.1597 18.0845L10.7059 19.3835L12.0014 19.6216C12.25 19.6496 12.4005 19.7686 12.4531 19.9857C12.5056 20.2028 12.4461 20.4094 12.2745 20.6054L11.3291 21.3127L11.5987 22.7693C11.6372 23.0039 11.5672 23.1789 11.3816 23.291C11.1996 23.403 10.9825 23.3575 10.7339 23.1614L9.63448 22.5277L9.64148 22.5312Z" fill="#E4E7EF"/>
<path d="M114.846 22.5557L113.502 21.7538C113.138 21.5053 113.008 21.2321 113.11 20.9415C113.211 20.6509 113.386 20.4759 113.635 20.4163L115.462 20.1782L115.935 18.8582C115.998 18.5956 116.152 18.4241 116.394 18.3435C116.635 18.263 116.881 18.3855 117.126 18.7112L117.959 20.0802L119.577 20.4478C119.878 20.4478 120.053 20.5494 120.091 20.749C120.133 20.9485 120.039 21.1551 119.815 21.3652L118.638 22.4646L118.894 23.9492C118.964 24.2258 118.894 24.4359 118.68 24.5759C118.47 24.716 118.225 24.7335 117.945 24.6285L116.814 23.8932L115.361 24.758C115.123 24.8946 114.909 24.8841 114.717 24.73C114.524 24.5759 114.486 24.3273 114.601 23.9842L114.846 22.5557Z" fill="#E4E7EF"/>
<path d="M109.518 10.6826L107.351 10.0419C106.752 9.82129 106.472 9.48867 106.51 9.04399C106.549 8.59932 106.731 8.2912 107.06 8.11964L109.532 7.13576L109.725 5.11548C109.718 4.72683 109.872 4.43272 110.183 4.23314C110.491 4.03356 110.877 4.1176 111.339 4.48524L112.998 6.10636L115.393 6.03984C115.817 5.93129 116.094 6.01183 116.223 6.27793C116.353 6.54403 116.297 6.86265 116.055 7.2373L114.802 9.19805L115.691 11.1868C115.887 11.551 115.862 11.8696 115.617 12.1427C115.372 12.4158 115.033 12.5278 114.609 12.4788L112.764 11.8521L111.038 13.5817C110.754 13.8548 110.449 13.9214 110.127 13.7743C109.805 13.6273 109.662 13.2946 109.697 12.7694L109.528 10.6826H109.518Z" fill="#E4E7EF"/>
<path d="M28.8679 45.1849C27.1382 45.1989 25.6082 43.9174 25.3175 42.1037C25.0059 40.1675 24.8484 39.1976 24.5332 37.2578C21.27 37.8426 19.6419 38.1402 16.3856 38.7424C16.186 38.7809 15.9829 38.7984 15.7834 38.7984C15.0271 38.8054 14.2813 38.5638 13.6545 38.0982C12.8597 37.5099 12.324 36.6171 12.1735 35.6227C11.7463 32.8391 11.5327 31.4491 11.0986 28.662C10.9445 27.6746 11.1826 26.6732 11.7568 25.8819C12.331 25.0906 13.1959 24.5794 14.1587 24.4569C15.4963 24.2888 16.165 24.2048 17.5025 24.0367C16.7778 23.2769 16.1265 22.4366 15.5628 21.5158C14.5509 19.8701 13.8856 18.0424 13.581 16.0817C13.2834 14.1454 13.3744 12.2302 13.8576 10.392C14.3303 8.60278 15.1216 6.95715 16.214 5.50409C17.31 4.04753 18.686 2.82906 20.3071 1.88369C21.9492 0.924324 23.784 0.325593 25.7517 0.098005C26.452 0.017474 27.1523 -0.0140381 27.842 0.0034686C29.092 0.0349808 30.3315 0.231056 31.5254 0.584693C33.3461 1.1239 35.0198 1.96773 36.4939 3.09516C37.9609 4.21559 39.2004 5.57412 40.1843 7.13922C41.2102 8.77085 41.8579 10.5635 42.1205 12.4683C42.3866 14.401 42.2466 16.3023 41.7109 18.1195C41.3782 19.2539 40.9161 20.3253 40.3348 21.3232C42.2571 21.1061 43.2199 21.0011 45.1457 20.7875C45.2997 20.77 45.4538 20.763 45.6044 20.7665C47.355 20.7945 48.8816 22.0795 49.1582 23.8477C49.4979 26.001 49.6694 27.0794 50.0091 29.2327C50.3172 31.197 48.9867 33.0387 47.0294 33.3678C44.0007 33.8755 40.9686 34.3867 37.9434 34.9119C38.2655 36.9392 38.4301 37.9511 38.7487 39.9714C38.9028 40.9377 38.6647 41.9286 38.094 42.7199C37.5232 43.5112 36.6654 44.0364 35.713 44.18C33.1746 44.5581 31.9071 44.7507 29.3721 45.1394C29.204 45.1639 29.036 45.1779 28.8714 45.1814L28.8679 45.1849Z" fill="#BDC7D6"/>
<path d="M55.051 39.2361C53.2723 39.2256 51.5707 38.8685 49.9916 38.1647C48.451 37.482 47.0854 36.5401 45.9265 35.3601C44.771 34.1802 43.8432 32.7866 43.1744 31.218C42.4882 29.6074 42.1415 27.8743 42.1485 26.0781C42.1555 24.2994 42.5197 22.5907 43.234 21.0011C43.9202 19.471 44.8656 18.109 46.0455 16.9535C47.2325 15.7911 48.633 14.8702 50.2121 14.2155C51.8438 13.5362 53.598 13.2176 55.4187 13.2666C57.2429 13.3121 58.983 13.7218 60.5901 14.4781C61.4725 14.8948 62.2988 15.3919 63.0656 15.9627C63.2477 15.6545 63.4753 15.3744 63.7484 15.1293C64.4416 14.5026 65.359 14.1735 66.3044 14.2015C66.3639 14.2015 66.4269 14.205 66.4864 14.212C68.9654 14.4046 70.2049 14.4991 72.6838 14.6952C73.6502 14.7722 74.55 15.2169 75.1768 15.9347C75.807 16.6524 76.1151 17.5803 76.0381 18.5151C75.9786 19.2084 75.9506 19.555 75.8945 20.2448C76.2832 20.2973 76.4793 20.3218 76.8679 20.3744C78.7762 20.63 80.1417 22.2826 79.9841 24.1418C79.8511 25.7209 79.7845 26.5122 79.6515 28.0913C79.4939 29.9646 77.8623 31.4036 75.9401 31.3686C75.5514 31.3616 75.3553 31.3581 74.9667 31.3511C74.8301 32.9617 74.7636 33.767 74.6306 35.3776C74.473 37.2509 72.8589 38.7039 70.9506 38.6829C68.9724 38.6619 67.985 38.6514 66.0067 38.6339C64.6237 38.6234 63.4332 37.8321 62.859 36.6801C62.0222 37.2859 61.1118 37.8006 60.1455 38.2172C58.5524 38.9 56.8437 39.2431 55.0615 39.2326L55.051 39.2361Z" fill="#BDC7D6"/>
<path d="M90.2462 47.9999C89.6509 47.9964 89.0487 47.9369 88.457 47.8284C87.0529 47.5728 85.775 47.058 84.6475 46.2983C83.5621 45.563 82.6412 44.6456 81.9165 43.5707C81.1917 42.4958 80.684 41.2948 80.4109 40.0133C80.1273 38.6828 80.1343 37.2998 80.4319 35.9098C80.7225 34.5442 81.2827 33.2802 82.0915 32.1528C82.2141 31.9812 82.3436 31.8132 82.4732 31.6521C81.0796 31.316 79.7946 30.7488 78.6497 29.968C77.3822 29.1031 76.3108 28.0352 75.474 26.7992C74.6372 25.5633 74.0454 24.1767 73.7163 22.6852C73.3802 21.1481 73.3767 19.5549 73.7163 17.9583C74.0419 16.4072 74.6792 14.9682 75.614 13.6902C76.5174 12.4577 77.6238 11.4143 78.9053 10.5985C80.1903 9.77918 81.6293 9.20496 83.1769 8.88984C84.1013 8.70077 85.0537 8.62724 86.0025 8.66225C86.6993 8.69026 87.4066 8.77779 88.1068 8.92135C90.2777 9.37302 92.1754 10.3324 93.7475 11.7644C94.1607 12.1391 94.5423 12.5347 94.889 12.9479C95.9709 13.1195 96.5136 13.207 97.5955 13.3786C97.8896 12.9584 98.2818 12.6013 98.7474 12.3352C99.3707 11.978 100.085 11.81 100.796 11.838C101.069 11.8485 101.338 11.8905 101.605 11.957C104.073 12.5978 105.305 12.9199 107.767 13.5606C108.709 13.8057 109.504 14.394 109.973 15.1958C110.445 15.9976 110.55 16.9429 110.277 17.8253C108.737 22.7517 107.217 27.6851 105.708 32.622C105.232 34.1836 103.709 35.22 102.077 35.185C101.871 35.1815 101.661 35.157 101.45 35.1185C101.177 35.0659 101.041 35.0379 100.768 34.9854C100.841 35.234 100.904 35.4896 100.957 35.7452C101.233 37.0792 101.216 38.4377 100.901 39.7892C100.582 41.1653 99.9904 42.4293 99.1466 43.5427C98.3448 44.6001 97.3784 45.5 96.2755 46.2177C95.1516 46.946 93.9086 47.4642 92.5816 47.7583C91.8113 47.9264 91.0235 48.0104 90.2462 48.0034V47.9999Z" fill="#BDC7D6"/>
<g style="mix-blend-mode:multiply" opacity="0.3">
<path d="M44.8787 26.1551C44.8052 25.7314 44.6792 25.5318 44.2695 25.5739C34.5007 26.6908 25.9575 27.8497 16.1992 29.0962C15.751 29.1802 15.695 29.5444 15.7615 29.982C16.0591 31.9288 16.1957 32.8251 16.5038 34.8489C16.5668 35.2691 16.8084 35.3216 17.127 35.2656C20.7474 34.6143 24.3643 33.9736 27.9882 33.3433C28.0092 33.3398 28.0303 33.3363 28.0478 33.3363C28.1213 33.3363 28.1983 33.3609 28.2578 33.4064C28.3349 33.4624 28.3909 33.5499 28.4049 33.648C28.9056 36.7642 29.1682 38.3923 29.6444 41.3649C29.7004 41.7536 29.893 41.7816 30.2221 41.7361C31.8222 41.498 33.6184 41.2354 34.4447 41.1128C34.7353 41.0708 34.8894 40.8818 34.8579 40.5911C34.7213 39.2956 34.3152 35.4792 34.0246 32.6886C33.9931 32.489 34.1226 32.3034 34.3187 32.2684C38.2402 31.5962 41.1008 30.9414 45.0293 30.2972C45.4775 30.2061 45.46 29.7475 45.4285 29.5339C45.2289 28.2804 45.0923 27.4191 44.8893 26.1551H44.8787Z" fill="black"/>
</g>
<path d="M29.3018 40.9342C29.0112 40.9342 28.6471 40.8117 28.5595 40.2375C28.0868 37.2718 27.8242 35.6402 27.32 32.524C23.7802 33.1332 20.1248 33.781 16.4624 34.4392C16.3678 34.4567 16.2873 34.4637 16.2103 34.4637C15.7761 34.4637 15.489 34.1941 15.4155 33.7179L14.6732 28.8511C14.5261 27.8707 15.0688 27.6186 15.405 27.5556C17.9469 27.2299 20.3874 26.9148 22.7858 26.6032C29.7115 25.7034 36.252 24.856 43.4998 24.0297C43.5523 24.0227 43.5978 24.0227 43.6433 24.0227C44.3541 24.0227 44.4662 24.667 44.5082 24.912C44.5082 24.912 44.8653 27.1389 45.0509 28.2944C45.1489 28.9036 44.8793 29.3658 44.3681 29.4708C42.2533 29.8174 40.4991 30.1571 38.6434 30.5177C37.0853 30.8188 35.4712 31.1304 33.647 31.4456C33.9446 34.2607 34.3508 38.0736 34.4873 39.3726C34.5363 39.8523 34.2492 40.2199 33.766 40.29C32.9397 40.4125 31.147 40.6751 29.5469 40.9132C29.4559 40.9272 29.3718 40.9342 29.2983 40.9342H29.3018Z" fill="#E4E7EF"/>
<path d="M43.8817 24.6144C43.8081 24.1908 43.6821 23.9912 43.2724 24.0332C33.5037 25.1501 24.9604 26.3091 15.2021 27.5556C14.754 27.6396 14.6979 28.0037 14.7645 28.4414C15.0621 30.3882 15.1986 31.2845 15.5067 33.3083C15.5698 33.7284 15.8114 33.781 16.13 33.7249C19.7469 33.0737 23.3673 32.4329 26.9912 31.8027C27.0122 31.7992 27.0332 31.7957 27.0507 31.7957C27.1242 31.7957 27.2012 31.8202 27.2608 31.8657C27.3378 31.9217 27.3938 32.0093 27.4078 32.1073C27.912 35.2235 28.1711 36.8516 28.6473 39.8243C28.7033 40.2129 28.8959 40.241 29.225 40.1954C30.8251 39.9573 32.6213 39.6947 33.4477 39.5722C33.7383 39.5302 33.8923 39.3411 33.8608 39.0505C33.7243 37.755 33.3181 33.9385 33.0275 31.1479C32.996 30.9484 33.1255 30.7628 33.3216 30.7278C37.2431 30.0555 40.1037 29.4008 44.0322 28.7565C44.4804 28.6655 44.4629 28.2068 44.4314 27.9932C44.2318 26.7397 44.0918 25.8784 43.8922 24.6144H43.8817Z" fill="white"/>
<g style="mix-blend-mode:multiply" opacity="0.3">
<path d="M19.4873 20.1082C20.2015 21.2706 21.1014 22.2615 22.1588 23.0458C23.2162 23.8336 24.4242 24.4113 25.7442 24.7615C26.574 24.9821 27.4353 25.0976 28.3002 25.1046C28.8079 25.1081 29.3296 25.0766 29.8513 25.0066C31.2588 24.8175 32.5578 24.3763 33.7133 23.6971C34.8722 23.0178 35.8631 22.153 36.6579 21.1341C37.4562 20.1117 38.0514 18.9422 38.4226 17.6572C38.7937 16.3757 38.8883 15.0312 38.6957 13.6587C38.5066 12.3177 38.0514 11.0572 37.3337 9.91926C36.6159 8.77432 35.709 7.78343 34.6411 6.97112C33.5767 6.15881 32.3617 5.54957 31.0347 5.15742C30.1874 4.90883 29.3051 4.77227 28.4157 4.75126C27.9185 4.74076 27.4038 4.76527 26.8926 4.82479C25.4676 4.99286 24.1476 5.42703 22.9676 6.11679C21.7877 6.80656 20.7898 7.6889 19.9985 8.7358C19.2072 9.7827 18.6329 10.9697 18.2898 12.2617C17.9467 13.5467 17.8802 14.8912 18.0867 16.2567C18.3003 17.6502 18.7695 18.9492 19.4838 20.1117L19.4873 20.1082ZM25.8842 12.7238C26.4935 11.936 27.2988 11.4774 28.2827 11.3548C28.4472 11.3338 28.6118 11.3268 28.7728 11.3303C29.5151 11.3443 30.2329 11.6034 30.8982 12.1041C31.714 12.7133 32.1972 13.4976 32.3302 14.436C32.4703 15.4059 32.2252 16.2882 31.6089 17.062C30.9997 17.8288 30.2224 18.2805 29.3086 18.396C29.1195 18.4205 28.9339 18.431 28.7518 18.4275C27.9885 18.417 27.2708 18.1719 26.6195 17.6993C25.8037 17.1075 25.3205 16.3127 25.1735 15.3358C25.0334 14.394 25.2715 13.5151 25.8807 12.7238H25.8842Z" fill="black"/>
</g>
<path d="M27.5715 24.2923C26.6751 24.2853 25.7823 24.1663 24.9245 23.9352C23.5589 23.571 22.309 22.9723 21.2165 22.16C20.1206 21.3442 19.1928 20.3218 18.454 19.1208C17.7152 17.9129 17.2285 16.5718 17.0079 15.1328C16.7908 13.7182 16.8644 12.3247 17.218 10.9872C17.5751 9.64967 18.1704 8.4207 18.9897 7.33878C19.809 6.25337 20.8454 5.33951 22.0639 4.62524C23.2823 3.91096 24.6514 3.46279 26.1289 3.28772C26.5701 3.2352 27.0148 3.21069 27.4524 3.21069C27.5365 3.21069 27.617 3.21069 27.701 3.21069C28.6219 3.2317 29.5322 3.37526 30.4111 3.63086C31.7801 4.03351 33.0336 4.66375 34.1365 5.50408C35.2394 6.3444 36.1708 7.3668 36.9166 8.54675C37.6589 9.7267 38.1351 11.0327 38.3311 12.4262C38.5307 13.8478 38.4362 15.2448 38.0475 16.5788C37.6624 17.9094 37.0461 19.1208 36.2198 20.1782C35.3935 21.2356 34.3676 22.1285 33.1736 22.8323C31.9762 23.536 30.6282 23.9912 29.1751 24.1873C28.6639 24.2573 28.1562 24.2888 27.659 24.2888H27.575L27.5715 24.2923ZM27.9846 10.511C27.8586 10.511 27.729 10.518 27.5995 10.5355C26.7137 10.6441 25.9889 11.0572 25.4427 11.7645C24.8965 12.4718 24.6829 13.2596 24.8054 14.0999C24.935 14.9752 25.3726 15.6895 26.1044 16.2217C26.6926 16.6489 27.3404 16.873 28.0267 16.88H28.0722C28.2227 16.88 28.3768 16.8695 28.5344 16.8484C29.3537 16.7434 30.0469 16.3408 30.6002 15.6475C31.1534 14.9542 31.3705 14.1664 31.2444 13.3016C31.1254 12.4648 30.6877 11.7575 29.9524 11.2078C29.3467 10.7561 28.7024 10.5215 28.0372 10.5075H27.9811L27.9846 10.511Z" fill="#E4E7EF"/>
<path d="M18.4898 18.5641C19.2041 19.7266 20.1039 20.7174 21.1613 21.5017C22.2187 22.2896 23.4267 22.8673 24.7467 23.2174C25.5765 23.438 26.4379 23.5535 27.3027 23.5605C27.8104 23.564 28.3321 23.5325 28.8503 23.4625C30.2578 23.2734 31.5568 22.8323 32.7123 22.153C33.8712 21.4737 34.8621 20.6089 35.6569 19.59C36.4552 18.5676 37.0505 17.3982 37.4216 16.1132C37.7927 14.8317 37.8873 13.4872 37.6947 12.1146C37.5056 10.7736 37.0505 9.51313 36.3327 8.37519C35.6149 7.23025 34.708 6.23937 33.6401 5.42705C32.5757 4.61474 31.3608 4.0055 30.0337 3.61335C29.1864 3.36476 28.3041 3.22821 27.4147 3.2072C26.9175 3.19669 26.4028 3.2212 25.8917 3.28073C24.4666 3.44879 23.1466 3.88296 21.9666 4.57272C20.7867 5.26249 19.7888 6.14483 18.9975 7.19173C18.2062 8.23864 17.632 9.42559 17.2888 10.7176C16.9457 12.0026 16.8792 13.3471 17.0858 14.7126C17.2993 16.1062 17.7685 17.4052 18.4828 18.5676L18.4898 18.5641ZM24.8833 11.1798C25.4925 10.392 26.2978 9.93329 27.2817 9.81074C27.4462 9.78973 27.6108 9.78273 27.7754 9.78623C28.5177 9.80024 29.2354 10.0593 29.9007 10.56C30.7165 11.1693 31.1997 11.9536 31.3327 12.8919C31.4728 13.8618 31.2277 14.7441 30.615 15.5179C30.0022 16.2847 29.2284 16.7364 28.3146 16.852C28.1255 16.8765 27.9399 16.887 27.7544 16.8835C26.9911 16.873 26.2733 16.6279 25.622 16.1552C24.8062 15.5635 24.323 14.7687 24.176 13.7918C24.0359 12.8499 24.274 11.9711 24.8833 11.1798Z" fill="white"/>
<g style="mix-blend-mode:multiply" opacity="0.3">
<path d="M76.4049 24.8736C75.0114 24.6915 74.2061 24.5865 72.711 24.3904C72.5219 24.3659 72.3819 24.1978 72.3994 24.0122C72.5324 22.3246 72.6095 21.3897 72.732 19.8631C72.746 19.6811 72.7425 19.2784 72.3293 19.2539C70.7957 19.1384 69.5563 19.0508 68.1452 18.9458C67.6095 18.9038 67.3154 19.1454 67.3364 19.7791C67.2944 24.807 67.2139 30.0066 67.2139 35.031C67.2139 35.4652 67.5255 35.4652 67.676 35.4687C68.9365 35.4862 69.7488 35.4967 71.0093 35.5142C71.1564 35.5142 71.454 35.5562 71.5135 35.0345C71.7131 32.524 71.8286 31.12 72.0422 28.4625C72.0562 28.2734 72.2208 28.1298 72.4134 28.1333C73.8874 28.1613 74.7453 28.1788 76.0933 28.2069C76.2333 28.2069 76.4679 28.1578 76.5029 27.8252C76.5765 26.9149 76.6325 26.2636 76.706 25.3533C76.7305 25.0626 76.6605 24.9121 76.4014 24.8771L76.4049 24.8736Z" fill="black"/>
</g>
<path d="M66.9443 34.6493C66.2055 34.6388 66.125 34.0856 66.125 33.851C66.125 30.4862 66.1635 26.9989 66.1985 23.6271C66.216 21.9394 66.2335 20.2588 66.2475 18.5957C66.2335 18.207 66.3316 17.8989 66.5347 17.6853C66.7202 17.4927 66.9793 17.3982 67.3015 17.3982C67.347 17.3982 67.396 17.3982 67.445 17.4052C68.0788 17.4542 68.6775 17.4962 69.2867 17.5417C70.029 17.5943 70.7818 17.6503 71.6291 17.7133C71.9057 17.7308 72.0738 17.8604 72.1648 17.9654C72.3189 18.144 72.3889 18.4031 72.3644 18.7147L72.0318 22.8638L75.7257 23.3365C75.9813 23.368 76.405 23.5256 76.3419 24.2048L76.1389 26.6768C76.0898 27.1144 75.7922 27.391 75.3756 27.391L71.6781 27.3175L71.5766 28.5605L71.1459 33.8825C71.0864 34.4112 70.8063 34.6984 70.3546 34.6984C70.3546 34.6984 68.2048 34.6704 66.9408 34.6528L66.9443 34.6493Z" fill="#E4E7EF"/>
<path d="M75.4074 23.3295C74.0104 23.1474 73.2086 23.0424 71.7135 22.8463C71.5209 22.8218 71.3844 22.6537 71.3984 22.4682C71.5349 20.7805 71.6085 19.8457 71.731 18.3191C71.745 18.137 71.7415 17.7343 71.3284 17.7098C69.7913 17.5943 68.5553 17.5068 67.1443 17.4017C66.6085 17.3597 66.3144 17.6013 66.3354 18.235C66.2934 23.263 66.2129 28.4625 66.2129 33.4869C66.2129 33.9211 66.5245 33.9211 66.6751 33.9246C67.9391 33.9421 68.7479 33.9526 70.0084 33.9701C70.1554 33.9701 70.453 34.0121 70.5125 33.4904C70.7156 30.98 70.8277 29.5759 71.0448 26.9184C71.0588 26.7293 71.2233 26.5858 71.4159 26.5893C72.89 26.6173 73.7478 26.6348 75.0958 26.6628C75.2359 26.6628 75.4705 26.6138 75.5055 26.2811C75.579 25.3708 75.635 24.7195 75.7086 23.8092C75.7331 23.5186 75.6665 23.368 75.4074 23.333V23.3295Z" fill="white"/>
<g style="mix-blend-mode:multiply" opacity="0.3">
<path d="M62.6593 20.7909C61.8399 19.9506 60.8701 19.2644 59.7776 18.7532C58.6922 18.242 57.5088 17.9689 56.2588 17.9408C55.0088 17.9128 53.8113 18.1334 52.7014 18.5956C51.588 19.0613 50.6006 19.709 49.7673 20.5213C48.9375 21.3337 48.2652 22.2965 47.775 23.3819C47.2883 24.4604 47.0362 25.6298 47.0257 26.8483C47.0152 28.0913 47.2498 29.2817 47.7225 30.3846C48.1917 31.4911 48.8429 32.4714 49.6482 33.2943C50.4571 34.1171 51.4199 34.7823 52.5088 35.269C53.5943 35.7557 54.7742 36.0043 56.0067 36.0148C57.2427 36.0253 58.4191 35.7942 59.508 35.332C60.6005 34.8664 61.5808 34.2256 62.4247 33.4273C63.265 32.629 63.9478 31.6801 64.4484 30.6017C64.9491 29.5233 65.2152 28.3574 65.2398 27.1354C65.2643 25.9344 65.0437 24.779 64.585 23.6936C64.1263 22.6081 63.4751 21.6313 62.6558 20.7909H62.6593ZM60.1628 28.599C59.9317 29.0716 59.6271 29.4953 59.2489 29.8559C58.8708 30.2201 58.4331 30.5072 57.9464 30.7068C57.4563 30.9098 56.9416 31.0114 56.4164 31.0044C55.8701 30.9974 55.3449 30.8818 54.8618 30.6647C54.3821 30.4512 53.9514 30.15 53.5838 29.7754C53.2161 29.4008 52.9255 28.9631 52.7189 28.4799C52.5123 27.9932 52.4108 27.468 52.4178 26.9183C52.4248 26.3931 52.5369 25.8819 52.7539 25.4022C52.971 24.926 53.2721 24.4989 53.6503 24.1312C54.0249 23.7706 54.4626 23.4765 54.9493 23.2664C55.443 23.0493 55.9752 22.9478 56.5284 22.9583C57.0606 22.9688 57.5753 23.0913 58.0655 23.3259C58.5452 23.557 58.9723 23.8616 59.34 24.2363C59.7041 24.6109 59.9982 25.0416 60.2153 25.5213C60.4324 26.0115 60.5409 26.5227 60.5304 27.0479C60.5199 27.5941 60.3974 28.1123 60.1628 28.5954V28.599Z" fill="black"/>
</g>
<path d="M55.2818 35.199C53.9968 35.1885 52.7713 34.9259 51.6369 34.4217C50.5024 33.9175 49.5046 33.2242 48.6642 32.3699C47.8239 31.5121 47.1516 30.4967 46.6615 29.3482C46.1713 28.1963 45.9297 26.9603 45.9367 25.6683C45.9472 24.3973 46.2098 23.1823 46.7175 22.0549C47.2252 20.931 47.9219 19.9296 48.7868 19.0858C49.6516 18.2384 50.6775 17.5662 51.8329 17.083C52.9219 16.6278 54.0948 16.3967 55.3168 16.3967C55.3903 16.3967 55.4673 16.3967 55.5409 16.3967C56.8399 16.4247 58.0724 16.7118 59.2068 17.2441C60.3377 17.7763 61.3426 18.4835 62.1934 19.3554C63.0443 20.2272 63.7165 21.2391 64.1962 22.37C64.6759 23.501 64.9035 24.7089 64.879 25.9589C64.8545 27.2334 64.5744 28.4484 64.0527 29.5688C63.5345 30.6857 62.8272 31.6766 61.9518 32.5064C61.0765 33.3363 60.0611 34.0015 58.9267 34.4812C57.8168 34.9539 56.6158 35.192 55.3658 35.192H55.2818V35.199ZM55.7299 22.1459C55.2538 22.1459 54.7951 22.2405 54.3714 22.4261C53.9268 22.6221 53.5241 22.8882 53.181 23.2209C52.8378 23.5535 52.5612 23.9421 52.3652 24.3798C52.1691 24.814 52.064 25.2762 52.0605 25.7488C52.0535 26.246 52.1481 26.7222 52.3336 27.1634C52.5227 27.6045 52.7853 28.0037 53.1214 28.3468C53.4576 28.69 53.8497 28.9631 54.2874 29.1591C54.7286 29.3552 55.2012 29.4603 55.6984 29.4673H55.7405C56.1991 29.4673 56.6508 29.3762 57.085 29.1977C57.5296 29.0121 57.9288 28.7495 58.2754 28.4204C58.6186 28.0877 58.9022 27.7026 59.1123 27.2649C59.3223 26.8308 59.4344 26.3616 59.4414 25.8714C59.4484 25.4022 59.3538 24.94 59.1578 24.4989C58.9617 24.0577 58.6921 23.662 58.356 23.3189C58.0198 22.9758 57.6277 22.6957 57.1865 22.4821C56.7453 22.272 56.2797 22.1599 55.8 22.1494H55.7335L55.7299 22.1459Z" fill="#E4E7EF"/>
<path d="M61.6614 19.2504C60.8421 18.4101 59.8722 17.7238 58.7798 17.2126C57.6944 16.7014 56.5074 16.4283 55.261 16.4003C54.011 16.3723 52.8135 16.5929 51.7036 17.0551C50.5902 17.5207 49.6028 18.1685 48.773 18.9808C47.9396 19.7931 47.2709 20.756 46.7807 21.8414C46.294 22.9198 46.0419 24.0893 46.0314 25.3077C46.0244 26.5507 46.2555 27.7412 46.7282 28.8441C47.1974 29.9505 47.8486 30.9309 48.6539 31.7537C49.4627 32.5766 50.4256 33.2418 51.5145 33.7285C52.5999 34.2152 53.7799 34.4638 55.0124 34.4743C56.2483 34.4848 57.4248 34.2537 58.5137 33.7915C59.6061 33.3258 60.59 32.6851 61.4303 31.8868C62.2707 31.0885 62.9534 30.1396 63.4506 29.0612C63.9513 27.9828 64.2174 26.8168 64.2419 25.5949C64.2664 24.3939 64.0458 23.2385 63.5872 22.153C63.1285 21.0676 62.4772 20.0907 61.6579 19.2504H61.6614ZM59.165 27.0549C58.9339 27.5276 58.6293 27.9513 58.2511 28.3119C57.873 28.676 57.4353 28.9632 56.9486 29.1627C56.4584 29.3658 55.9437 29.4674 55.4185 29.4604C54.8688 29.4533 54.3471 29.3378 53.8639 29.1207C53.3842 28.9071 52.9536 28.606 52.5859 28.2314C52.2183 27.8567 51.9277 27.4191 51.7211 26.9359C51.5145 26.4492 51.413 25.924 51.4165 25.3743C51.4235 24.8491 51.5355 24.3379 51.7526 23.8582C51.9697 23.382 52.2708 22.9548 52.649 22.5872C53.0236 22.2266 53.4613 21.9324 53.948 21.7224C54.4416 21.5088 54.9738 21.4037 55.5271 21.4142C56.0593 21.4248 56.574 21.5473 57.0607 21.7819C57.5403 22.013 57.9675 22.3176 58.3351 22.6922C58.6993 23.0669 58.9934 23.4976 59.2105 23.9772C59.4276 24.4674 59.5361 24.9786 59.5256 25.5038C59.5151 26.05 59.3926 26.5682 59.158 27.0514L59.165 27.0549Z" fill="white"/>
<g style="mix-blend-mode:multiply" opacity="0.3">
<path d="M96.7478 35.087C96.2962 34.4147 95.7114 33.823 95.0112 33.3398C94.3144 32.8566 93.5231 32.5275 92.6688 32.363C92.2941 32.2894 91.916 32.2474 91.5483 32.2404C91.0546 32.2299 90.5609 32.2789 90.0813 32.384C89.2409 32.5695 88.4531 32.8952 87.7459 33.3503C87.0386 33.8055 86.4294 34.3867 85.9287 35.08C85.4315 35.7698 85.0883 36.5471 84.9063 37.3874C84.7207 38.2487 84.7102 39.096 84.8818 39.9014C85.0533 40.7137 85.372 41.4665 85.8236 42.1422C86.2788 42.818 86.86 43.3992 87.5463 43.8649C88.2326 44.3306 89.0204 44.6457 89.8957 44.8068C90.2668 44.8768 90.6415 44.9118 91.0091 44.9188C91.4853 44.9258 91.9685 44.8768 92.4412 44.7717C93.2815 44.5897 94.0658 44.2675 94.7696 43.8124C95.4733 43.3572 96.0896 42.783 96.6008 42.1037C97.1085 41.4314 97.4656 40.6612 97.6582 39.8103C97.8473 38.9805 97.8578 38.1507 97.6862 37.3384C97.5146 36.5191 97.196 35.7628 96.7443 35.0905L96.7478 35.087ZM93.5301 39.019C93.3935 39.6213 93.0539 40.0974 92.5182 40.4336C92.112 40.6892 91.6744 40.8117 91.2192 40.8047C91.0791 40.8047 90.9356 40.7872 90.792 40.7627C90.1758 40.6471 89.6926 40.3355 89.3565 39.8313C89.0204 39.3306 88.9153 38.7704 89.0484 38.1682C89.1814 37.566 89.514 37.0863 90.0357 36.7361C90.4419 36.4665 90.8831 36.3335 91.3487 36.344C91.4853 36.344 91.6254 36.3615 91.7654 36.386C92.3816 36.505 92.8683 36.8272 93.215 37.3419C93.5616 37.8566 93.6666 38.4203 93.5301 39.019Z" fill="black"/>
</g>
<path d="M90.2808 44.096C89.8921 44.0925 89.4965 44.0504 89.1043 43.9804C88.18 43.8088 87.3431 43.4727 86.6184 42.9825C85.8901 42.4888 85.2773 41.8761 84.7977 41.1618C84.318 40.4475 83.9818 39.6492 83.7998 38.7949C83.6177 37.9371 83.6282 37.0407 83.8243 36.1304C84.0169 35.241 84.381 34.4182 84.9062 33.6899C85.4314 32.9582 86.0757 32.3454 86.8214 31.8657C87.5637 31.3861 88.39 31.0464 89.2724 30.8503C89.7311 30.7488 90.2072 30.6963 90.6799 30.6963C90.7289 30.6963 90.778 30.6963 90.8235 30.6963C91.2121 30.7068 91.6078 30.7488 92.0034 30.8258C92.9103 31.0009 93.7471 31.351 94.4859 31.8622C95.2247 32.3734 95.8409 32.9932 96.3171 33.7074C96.7933 34.4182 97.1294 35.22 97.3115 36.0849C97.4936 36.9497 97.4831 37.832 97.2835 38.7109C97.0769 39.6107 96.6987 40.43 96.163 41.1408C95.6238 41.8516 94.9796 42.4573 94.2373 42.9335C93.4985 43.4132 92.6722 43.7528 91.7899 43.9454C91.3172 44.0469 90.834 44.0995 90.3543 44.0995H90.2773L90.2808 44.096ZM90.5819 35.5282C90.2037 35.5282 89.8466 35.6402 89.514 35.8608C89.0728 36.1549 88.7892 36.5611 88.6772 37.0687C88.5651 37.5799 88.6456 38.0316 88.9293 38.4518C89.2094 38.8684 89.6155 39.131 90.1302 39.2291C90.2493 39.2501 90.3718 39.2641 90.4944 39.2676C90.897 39.2676 91.2577 39.1591 91.5938 38.949C92.0455 38.6654 92.3326 38.2662 92.4446 37.762C92.5602 37.2543 92.4726 36.7991 92.182 36.365C91.8914 35.9343 91.4817 35.6647 90.9635 35.5667C90.8445 35.5457 90.7254 35.5317 90.6099 35.5282H90.5714H90.5819Z" fill="#E4E7EF"/>
<path d="M95.7501 33.5429C95.2984 32.8707 94.7137 32.2789 94.0134 31.7958C93.3166 31.3126 92.5253 30.9834 91.671 30.8189C91.2963 30.7454 90.9182 30.7033 90.5506 30.6963C90.0569 30.6858 89.5632 30.7349 89.0835 30.8399C88.2432 31.0255 87.4554 31.3511 86.7481 31.8063C86.0408 32.2614 85.4316 32.8427 84.9309 33.5359C84.4372 34.2257 84.0906 35.003 83.9085 35.8433C83.7194 36.7047 83.7124 37.552 83.884 38.3573C84.0556 39.1696 84.3742 39.9224 84.8258 40.5982C85.281 41.2739 85.8622 41.8551 86.5485 42.3208C87.2313 42.7865 88.0226 43.1016 88.8979 43.2627C89.2691 43.3327 89.6437 43.3677 90.0113 43.3747C90.4875 43.3817 90.9707 43.3327 91.4434 43.2277C92.2837 43.0456 93.068 42.7235 93.7718 42.2683C94.4756 41.8131 95.0918 41.2389 95.603 40.5596C96.1107 39.8874 96.4678 39.1171 96.6604 38.2663C96.8495 37.4364 96.86 36.6066 96.6884 35.7943C96.5169 34.975 96.1982 34.2187 95.7466 33.5464L95.7501 33.5429ZM92.5323 37.4785C92.3958 38.0807 92.0561 38.5569 91.5204 38.893C91.1143 39.1486 90.6766 39.2711 90.2214 39.2641C90.0814 39.2641 89.9378 39.2466 89.7943 39.2221C89.178 39.1066 88.6948 38.795 88.3587 38.2908C88.0226 37.7901 87.9175 37.2299 88.0506 36.6276C88.1836 36.0254 88.5163 35.5457 89.038 35.1956C89.4441 34.926 89.8853 34.7929 90.351 34.8034C90.4875 34.8034 90.6276 34.8209 90.7676 34.8454C91.3839 34.9645 91.8741 35.2866 92.2172 35.8013C92.5638 36.316 92.6689 36.8797 92.5323 37.4785Z" fill="white"/>
<g style="mix-blend-mode:multiply" opacity="0.3">
<path d="M106.468 17.7483C104.675 17.2862 103.754 17.0481 101.93 16.5789C101.594 16.5019 101.44 16.7785 101.419 16.8625C101.303 17.3527 101.254 17.5593 101.125 18.1195C101.086 18.284 100.929 18.3996 100.754 18.3926C100.74 18.3926 100.722 18.3926 100.708 18.3891C98.4007 18.0284 97.2032 17.8394 94.9799 17.4927C94.7033 17.4437 94.6823 17.5838 94.6718 17.6433C94.6157 17.9619 94.5772 18.1755 94.5107 18.5431C94.4827 18.7007 94.3461 18.8197 94.1816 18.8338C94.1676 18.8338 94.1501 18.8338 94.1361 18.8338C93.989 18.8303 93.856 18.7357 93.8069 18.5992C93.3553 17.3387 92.6025 16.2217 91.5696 15.2799C90.5402 14.345 89.2937 13.7183 87.8616 13.4207C87.389 13.3226 86.9198 13.2666 86.4576 13.2491C85.8414 13.2281 85.2251 13.2771 84.6264 13.3997C83.5725 13.6167 82.5991 14.0054 81.7308 14.5621C80.8589 15.1188 80.1062 15.8261 79.4864 16.6699C78.8702 17.5067 78.45 18.4521 78.2329 19.4745C78.0053 20.5389 78.0018 21.5893 78.2224 22.5977C78.443 23.6096 78.8387 24.5445 79.4024 25.3778C79.9661 26.2111 80.6909 26.9324 81.5557 27.5241C82.4135 28.1123 83.4044 28.5185 84.4968 28.7321C84.9765 28.8266 85.4597 28.8791 85.9324 28.8896C86.8953 28.9106 87.8476 28.7601 88.7755 28.438C90.1585 27.9583 91.335 27.1845 92.2768 26.1411C92.3504 26.0605 92.4554 26.015 92.564 26.0185C92.6165 26.0185 92.6655 26.0325 92.7145 26.0535C92.8616 26.1236 92.9421 26.2811 92.9036 26.4352C92.8266 26.7853 92.7775 26.9919 92.711 27.2895C92.655 27.4891 92.8125 27.5241 92.8826 27.5416C95.0359 28.0178 96.1844 28.2699 98.4007 28.7601C98.5898 28.8021 98.7088 28.9807 98.6703 29.1627C98.5232 29.8385 98.2852 30.9624 98.2852 30.9659C98.2782 31.071 98.3062 31.211 98.4707 31.253C98.4707 31.253 100.785 31.7117 102.186 31.9848C102.322 32.0128 102.581 32.0794 102.728 31.6802C104.083 27.195 105.396 22.8848 106.772 18.4066C106.856 18.13 106.891 17.8604 106.468 17.7413V17.7483ZM89.3917 21.7119C89.3077 22.09 89.1466 22.4401 88.912 22.7518C88.681 23.0564 88.3973 23.319 88.0682 23.5256C87.7391 23.7321 87.389 23.8792 87.0178 23.9632C86.7972 24.0122 86.5696 24.0368 86.3421 24.0298C86.181 24.0263 86.0164 24.0052 85.8519 23.9737C85.0431 23.8127 84.4058 23.3855 83.9576 22.7062C83.5095 22.027 83.3659 21.2987 83.5305 20.5389C83.6145 20.1573 83.7721 19.8071 84.0067 19.4955C84.2342 19.1909 84.5108 18.9318 84.826 18.7217C85.1481 18.5081 85.5122 18.3611 85.9114 18.284C86.139 18.2385 86.3701 18.221 86.5942 18.228C86.7657 18.235 86.9338 18.2525 87.1018 18.2875C87.4975 18.3681 87.8581 18.5221 88.1698 18.7462C88.4744 18.9633 88.737 19.2329 88.9471 19.548C89.1606 19.8667 89.3112 20.2133 89.3882 20.5774C89.4688 20.9486 89.4688 21.3302 89.3847 21.7119H89.3917ZM100.106 22.6257C99.9343 23.4205 99.8503 23.8162 99.6822 24.6075C99.6472 24.7755 99.4861 24.8946 99.3111 24.8876C99.2971 24.8876 99.283 24.8876 99.269 24.8876C97.1787 24.59 96.1318 24.4429 94.0415 24.1488C93.9295 24.1348 93.8349 24.0683 93.7789 23.9772C93.7229 23.8827 93.7194 23.7707 93.7614 23.6726C93.9015 23.354 94.0135 23.0109 94.094 22.6607C94.1956 22.2091 94.2481 21.7924 94.2411 21.4212C94.2411 21.3127 94.2901 21.2112 94.3777 21.1446C94.4477 21.0921 94.5317 21.0641 94.6192 21.0676C94.6438 21.0676 94.6683 21.0676 94.6893 21.0746C96.7516 21.5333 97.781 21.7644 99.8363 22.2231C100.025 22.2651 100.144 22.4436 100.106 22.6257Z" fill="black"/>
</g>
<path d="M101.622 31.197C101.531 31.197 101.454 31.183 101.401 31.1725C100.978 31.0885 97.6794 30.4373 97.6549 30.4338C97.3537 30.3567 97.1752 30.0976 97.1962 29.772C97.1962 29.7545 97.1962 29.737 97.5883 27.9163L92.0772 26.7258C92.0107 26.7118 91.8006 26.6663 91.6816 26.4667C91.629 26.3792 91.5765 26.2286 91.6325 26.0221L91.8216 25.1852C90.8342 26.3022 89.6053 27.1075 88.1662 27.6082C87.2629 27.9233 86.328 28.0808 85.3931 28.0808C85.3266 28.0808 85.2636 28.0808 85.1971 28.0808C84.7069 28.0703 84.2027 28.0143 83.6985 27.9163C82.557 27.6922 81.5241 27.2685 80.6243 26.6523C79.721 26.0361 78.9647 25.2798 78.3764 24.4114C77.7847 23.5396 77.3715 22.5627 77.1405 21.5053C76.9094 20.4444 76.9129 19.3415 77.151 18.228C77.382 17.1531 77.8232 16.1623 78.4675 15.2869C79.1117 14.4081 79.8995 13.6693 80.8099 13.0881C81.7167 12.5103 82.7321 12.1007 83.828 11.8766C84.3567 11.7681 84.9029 11.712 85.4527 11.712C85.5507 11.712 85.6487 11.712 85.7468 11.7155C86.23 11.733 86.7201 11.7926 87.2103 11.8941C88.7054 12.2022 90.0114 12.857 91.0898 13.8374C92.1682 14.8177 92.9526 15.9837 93.4252 17.3037L93.5618 16.5754L93.5933 16.4038C93.6423 16.1132 93.8524 15.9452 94.15 15.9452C94.199 15.9452 94.2551 15.9487 94.3216 15.9627C94.3216 15.9627 97.9175 16.5264 100.043 16.859L100.347 15.609C100.4 15.385 100.649 15.0313 101.097 15.0313C101.16 15.0313 101.226 15.0383 101.293 15.0558L105.838 16.2288C106.097 16.3023 106.279 16.4284 106.38 16.6139C106.517 16.8625 106.468 17.1251 106.401 17.3527C105.102 21.5753 103.817 25.7945 102.357 30.6263C102.168 31.1375 101.821 31.2111 101.632 31.2111L101.622 31.197ZM93.8734 20.2518C93.8839 20.6335 93.8314 21.0781 93.7228 21.5613C93.6388 21.936 93.5198 22.2966 93.3692 22.6362C95.3965 22.8953 96.4399 23.0424 98.4077 23.3225L98.5967 23.3505L98.7858 22.5172L99.0309 21.3723L95.1234 20.5249L93.8839 20.2483C93.8839 20.2483 93.8804 20.2483 93.8769 20.2483L93.8734 20.2518ZM85.7748 17.4087C85.6032 17.4087 85.4281 17.4262 85.2566 17.4578C84.9064 17.5243 84.5843 17.6538 84.3042 17.8394C84.0241 18.025 83.779 18.2561 83.5759 18.5292C83.3764 18.7988 83.2363 19.1034 83.1628 19.4325C83.0192 20.0908 83.1453 20.728 83.5374 21.3232C83.9296 21.922 84.4898 22.2931 85.2006 22.4367C85.3441 22.4647 85.4877 22.4822 85.6277 22.4857H85.6943C85.8693 22.4857 86.0444 22.4682 86.2125 22.4297C86.5416 22.3561 86.8567 22.2266 87.1473 22.041C87.4379 21.8589 87.69 21.6279 87.8931 21.3548C88.0962 21.0851 88.2362 20.784 88.3098 20.4549C88.3833 20.1258 88.3833 19.8002 88.3133 19.478C88.2432 19.1559 88.1137 18.8513 87.9246 18.5712C87.7355 18.2911 87.5045 18.053 87.2348 17.8604C86.9652 17.6678 86.6536 17.5348 86.307 17.4613C86.1564 17.4297 86.0059 17.4122 85.8588 17.4087H85.7713H85.7748Z" fill="#E4E7EF"/>
<path d="M105.466 16.2043C103.674 15.7421 102.753 15.504 100.929 15.0348C100.593 14.9578 100.438 15.2344 100.417 15.3184C100.302 15.8086 100.253 16.0152 100.123 16.5754C100.085 16.74 99.9238 16.8555 99.7522 16.8485C99.7382 16.8485 99.7207 16.8485 99.7067 16.845C97.3993 16.4844 96.2019 16.2953 93.9785 15.9487C93.7019 15.8996 93.6809 16.0397 93.6704 16.0992C93.6144 16.4178 93.5758 16.6314 93.5093 16.9991C93.4813 17.1566 93.3448 17.2757 93.1767 17.2897C93.1627 17.2897 93.1487 17.2897 93.1312 17.2897C92.9841 17.2862 92.8511 17.1916 92.8021 17.0551C92.3504 15.7946 91.5976 14.6777 90.5647 13.7358C89.5353 12.801 88.2888 12.1742 86.8568 11.8766C86.3876 11.7786 85.9149 11.7225 85.4527 11.705C84.8365 11.684 84.2202 11.733 83.6215 11.8556C82.5676 12.0727 81.5942 12.4613 80.7259 13.018C79.8541 13.5748 79.0978 14.282 78.4815 15.1259C77.8653 15.9627 77.4451 16.908 77.228 17.9304C77.0005 18.9948 76.997 20.0452 77.2175 21.0536C77.4381 22.0655 77.8338 23.0004 78.3975 23.8337C78.9612 24.667 79.686 25.3883 80.5508 25.98C81.4122 26.5683 82.3995 26.9744 83.492 27.188C83.9716 27.2825 84.4548 27.3351 84.9275 27.3456C85.8869 27.3666 86.8427 27.216 87.7671 26.8939C89.1501 26.4142 90.3266 25.6404 91.2685 24.597C91.342 24.5165 91.447 24.471 91.5556 24.4745C91.6046 24.4745 91.6571 24.4885 91.7061 24.5095C91.8532 24.5795 91.9302 24.7371 91.8952 24.8911C91.8182 25.2412 91.7692 25.4478 91.7026 25.7454C91.6466 25.945 91.8007 25.98 91.8742 25.9975C94.0275 26.4737 95.1725 26.7258 97.3923 27.216C97.5814 27.258 97.7004 27.4366 97.6619 27.6187C97.5184 28.2944 97.2768 29.4184 97.2768 29.4219C97.2698 29.5269 97.2978 29.667 97.4623 29.709C97.4623 29.709 99.7767 30.1676 101.177 30.4408C101.314 30.4688 101.573 30.5353 101.72 30.1361C103.075 25.6509 104.388 21.3407 105.764 16.8625C105.848 16.5859 105.883 16.3163 105.459 16.1973L105.466 16.2043ZM88.3939 20.1713C88.3098 20.5494 88.1488 20.8996 87.9142 21.2112C87.6831 21.5158 87.3995 21.7784 87.0738 21.985C86.7447 22.1916 86.3911 22.3386 86.0234 22.4227C85.8028 22.4717 85.5753 22.4962 85.3477 22.4892C85.1866 22.4857 85.022 22.4647 84.8575 22.4332C84.0487 22.2721 83.4114 21.8449 82.9633 21.1657C82.5151 20.4864 82.3715 19.7581 82.5361 18.9983C82.6201 18.6167 82.7777 18.2666 83.0123 17.9549C83.2399 17.6503 83.5165 17.3912 83.8316 17.1811C84.1537 16.9676 84.5179 16.8205 84.917 16.7435C85.1446 16.7015 85.3757 16.6805 85.5998 16.6875C85.7713 16.6945 85.9394 16.712 86.1075 16.747C86.5031 16.8275 86.8638 16.9816 87.1754 17.2057C87.48 17.4227 87.7426 17.6923 87.9527 18.0075C88.1663 18.3261 88.3168 18.6727 88.3939 19.0369C88.4744 19.408 88.4744 19.7896 88.3903 20.1713H88.3939ZM99.108 21.0851C98.9364 21.88 98.8559 22.2756 98.6843 23.0669C98.6493 23.235 98.4882 23.354 98.3132 23.347C98.2992 23.347 98.2852 23.347 98.2712 23.347C96.1809 23.0494 95.1339 22.9023 93.0436 22.6082C92.9316 22.5942 92.8371 22.5277 92.781 22.4367C92.725 22.3421 92.718 22.2301 92.7635 22.1321C92.9036 21.8134 93.0156 21.4703 93.0962 21.1202C93.1977 20.6685 93.2502 20.2518 93.2432 19.8807C93.2432 19.7721 93.2922 19.6706 93.3798 19.6041C93.4498 19.5516 93.5338 19.5235 93.6214 19.527C93.6459 19.527 93.6669 19.527 93.6914 19.5376C95.7537 19.9962 96.7831 20.2273 98.8384 20.686C99.0275 20.728 99.1465 20.9066 99.108 21.0886V21.0851Z" fill="white"/>
</g>
<defs>
<clipPath id="clip0_70_463">
<rect width="119.259" height="48" fill="white" transform="translate(0.842773)"/>
</clipPath>
</defs>
</svg>
