<svg width="144" height="48" viewBox="0 0 144 48" fill="none" xmlns="http://www.w3.org/2000/svg">
<g clip-path="url(#clip0_70_510)">
<path d="M5.66676 38.2478C5.13564 37.3551 3.80974 37.4568 3.42176 38.4211L0.89802 44.7079C0.89802 44.7079 0.894254 44.7192 0.890487 44.7267C0.788784 44.9941 0.728516 45.2917 0.728516 45.6006C0.728516 46.9189 1.86608 48 3.19199 48H9.26779C10.2396 48 10.8423 46.9453 10.3489 46.1129L5.67052 38.2478H5.66676Z" fill="#BDC7D6"/>
<path d="M34.5314 1.50294C34.1923 0.655419 33.375 0.0452013 32.4144 0H22.1123L40.7503 46.4293C41.1307 47.3785 42.0536 48 43.0819 48H49.5721C51.3086 48 52.4989 46.2522 51.8547 44.6438L34.5314 1.50294Z" fill="#E4E7EF"/>
<path d="M47.9675 23.3314H21.3025L18.1422 31.2077C18.0329 31.4827 17.9727 31.7841 17.9727 32.0967C17.9727 33.4226 19.05 34.4961 20.3796 34.4961H50.5213C52.2578 34.4961 53.4481 32.7484 52.804 31.1399L50.2991 24.9022C49.9187 23.9529 48.9958 23.3314 47.9675 23.3314Z" fill="#D9DDE8"/>
<path d="M20.4021 0C19.3889 0 18.5225 0.625284 18.1647 1.50671L8.50666 25.5839L6.25413 31.1964C6.25413 31.1964 6.25413 31.2002 6.25413 31.204C6.09969 31.5882 6.03943 32.0251 6.11099 32.4809C6.2918 33.6411 7.31636 34.4999 8.49536 34.4999C8.5029 34.4999 8.50666 34.4999 8.5142 34.4999H16.8275H20.3871C19.0574 34.4999 17.9801 33.4263 17.9801 32.1004C17.9801 31.7878 18.0404 31.4865 18.1496 31.2115L20.4059 25.5915L30.0601 1.49918V1.51048C30.4142 0.625285 31.2806 0 32.2976 0H20.4021Z" fill="#BDC7D6"/>
<path d="M30.0603 1.51048V1.49918L26.3877 10.6524L29.0508 17.2895L34.9571 2.56517L34.5315 1.50294C34.1924 0.655419 33.3751 0.0452013 32.4145 0H32.2978C31.2807 0 30.4144 0.625285 30.0603 1.51048Z" fill="url(#paint0_linear_70_510)"/>
<path d="M25.706 34.4962C24.3763 34.4962 23.299 33.4226 23.299 32.0967C23.299 31.7841 23.3593 31.4827 23.4685 31.2078L25.7248 25.5877L26.6288 23.3352H21.3026L21.0653 23.9304L18.1461 31.2115C18.0368 31.4865 17.9766 31.7878 17.9766 32.1005C17.9766 33.4264 19.0539 34.4999 20.3835 34.4999H22.1501H25.7097L25.706 34.4962Z" fill="url(#paint1_linear_70_510)"/>
<path d="M40.7505 46.4293C41.1309 47.3785 42.0538 48 43.0821 48H49.5722C51.3087 48 52.499 46.2522 51.8549 44.6438L47.783 34.4999H35.9629L40.7542 46.4293H40.7505Z" fill="url(#paint2_linear_70_510)"/>
<path d="M69.7174 3.32984H66.1917L59.3174 18.6983H62.9749L64.3423 15.4061H71.5029L72.8702 18.6983H76.6182L69.7212 3.32984H69.7174ZM65.4874 12.7053L67.932 6.82164L70.3766 12.7053H65.4836H65.4874ZM99.0493 9.52242C100.13 9.52242 101.076 10.0272 101.716 11.1459L104.383 9.71829C103.524 7.78594 101.562 6.70864 99.0719 6.70864C95.2147 6.70864 92.4612 9.23238 92.4612 12.792C92.4612 16.3516 95.2147 18.8753 99.0719 18.8753C101.562 18.8753 103.524 17.7792 104.383 15.8883L101.716 14.4381C101.076 15.5794 100.13 16.0615 99.0493 16.0615C97.3091 16.0615 95.9417 14.8524 95.9417 12.7882C95.9417 10.724 97.3091 9.51489 99.0493 9.51489V9.52242ZM90.0995 18.6983V11.9369C90.0995 8.33588 87.9825 6.71241 85.1838 6.71241C83.5754 6.71241 82.1855 7.26235 81.2626 8.27185V6.88944H77.978V18.702H81.417V12.8598C81.417 10.6864 82.6073 9.67686 84.261 9.67686C85.7827 9.67686 86.6642 10.5545 86.6642 12.4643V18.6983H90.1032H90.0995ZM127.278 18.8753C131.044 18.8753 133.779 16.3516 133.779 12.792C133.779 9.23238 131.048 6.70864 127.278 6.70864C123.507 6.70864 120.753 9.23238 120.753 12.792C120.753 16.3516 123.507 18.8753 127.278 18.8753ZM127.278 9.52242C128.995 9.52242 130.298 10.7504 130.298 12.7957C130.298 14.8411 128.999 16.0691 127.278 16.0691C125.556 16.0691 124.238 14.8411 124.238 12.7957C124.238 10.7504 125.56 9.52242 127.278 9.52242ZM139.354 8.44512V6.88568H136.069V18.6983H139.508V13.1197C139.508 10.8596 140.763 9.82753 142.661 9.82753C142.925 9.82753 143.147 9.85013 143.433 9.87273V6.71241C141.603 6.71241 140.194 7.30379 139.358 8.44889L139.354 8.44512ZM114.96 12.4643V18.6983H118.399V11.9369C118.399 8.33588 116.282 6.71241 113.484 6.71241C111.962 6.71241 110.64 7.19455 109.717 8.11741V2.40698H106.278V18.6983H109.717V12.856C109.717 10.6826 110.907 9.67309 112.561 9.67309C114.083 9.67309 114.964 10.5507 114.964 12.4605L114.96 12.4643Z" fill="#BDC7D6"/>
<path d="M76.6927 26.4616C77.6947 26.9136 78.4669 27.554 79.0093 28.3864C79.5517 29.2189 79.8229 30.202 79.8229 31.3396C79.8229 32.4771 79.5517 33.4452 79.0093 34.2814C78.4669 35.1214 77.6947 35.7618 76.6927 36.2062C75.6908 36.6507 74.508 36.873 73.1482 36.873H70.0519V41.0955H66.4961V25.7836H73.1482C74.508 25.7836 75.6908 26.0096 76.6927 26.4616ZM75.3857 33.2983C75.9432 32.8387 76.2219 32.1871 76.2219 31.3396C76.2219 30.492 75.9432 29.8178 75.3857 29.3582C74.8282 28.8987 74.0183 28.6689 72.9486 28.6689H70.0519V33.9838H72.9486C74.0183 33.9838 74.8282 33.7541 75.3857 33.2945V33.2983Z" fill="#BDC7D6"/>
<path d="M82.3242 24.8645H85.7482V41.0955H82.3242V24.8645Z" fill="#BDC7D6"/>
<path d="M97.9154 30.4544C98.8948 31.3208 99.3882 32.6316 99.3882 34.3794V41.0955H96.1827V39.6303C95.5386 40.7226 94.337 41.2726 92.5817 41.2726C91.6739 41.2726 90.8866 41.1181 90.2199 40.813C89.5532 40.5079 89.0446 40.0823 88.6943 39.5436C88.344 39.005 88.167 38.391 88.167 37.7054C88.167 36.6131 88.5813 35.7505 89.4063 35.1252C90.2312 34.4999 91.5119 34.1835 93.2371 34.1835H95.9604C95.9604 33.4415 95.7344 32.8689 95.2787 32.4659C94.8229 32.0666 94.1449 31.8632 93.2371 31.8632C92.608 31.8632 91.9903 31.9611 91.38 32.157C90.7736 32.3529 90.2576 32.6203 89.8319 32.9555L88.6039 30.5712C89.2481 30.1192 90.0202 29.7689 90.9205 29.5203C91.8208 29.2716 92.7474 29.1473 93.6966 29.1473C95.5273 29.1473 96.9323 29.5805 97.9116 30.4506L97.9154 30.4544ZM94.9924 38.568C95.4444 38.2968 95.7683 37.9013 95.9567 37.374V36.1724H93.6062C92.2012 36.1724 91.4968 36.6319 91.4968 37.551C91.4968 37.988 91.6701 38.3345 92.0129 38.5906C92.3556 38.8468 92.8303 38.9749 93.4292 38.9749C94.0281 38.9749 94.5328 38.8392 94.9886 38.5718L94.9924 38.568Z" fill="#BDC7D6"/>
<path d="M113.987 29.3281L108.654 41.8187C108.111 43.1748 107.441 44.1315 106.646 44.6853C105.847 45.239 104.887 45.5177 103.757 45.5177C103.143 45.5177 102.536 45.4235 101.934 45.2352C101.335 45.0469 100.841 44.7832 100.461 44.448L101.712 42.0184C101.975 42.2519 102.28 42.4327 102.623 42.5646C102.966 42.6964 103.309 42.7604 103.644 42.7604C104.111 42.7604 104.491 42.6474 104.785 42.4214C105.079 42.1954 105.343 41.8187 105.576 41.2952L105.621 41.1859L100.506 29.3281H104.039L107.354 37.3137L110.691 29.3281H113.984H113.987Z" fill="#BDC7D6"/>
<path d="M126.569 36.1761H117.634C117.796 36.9068 118.176 37.4831 118.775 37.905C119.374 38.3269 120.12 38.5378 121.017 38.5378C121.63 38.5378 122.177 38.4474 122.651 38.2628C123.126 38.082 123.57 37.792 123.981 37.4003L125.804 39.3703C124.693 40.6397 123.066 41.2725 120.93 41.2725C119.596 41.2725 118.417 41.0126 117.393 40.4965C116.368 39.9805 115.577 39.261 115.02 38.3419C114.462 37.4229 114.184 36.3795 114.184 35.2155C114.184 34.0516 114.459 33.0233 115.009 32.0966C115.558 31.17 116.312 30.4506 117.269 29.9307C118.225 29.4147 119.299 29.1548 120.485 29.1548C121.672 29.1548 122.689 29.4034 123.627 29.8968C124.565 30.3941 125.299 31.1022 125.834 32.0288C126.369 32.9555 126.637 34.029 126.637 35.257C126.637 35.3022 126.614 35.6073 126.573 36.1761H126.569ZM118.553 32.3904C118.026 32.8274 117.706 33.4263 117.585 34.1834H123.405C123.288 33.4414 122.964 32.8462 122.44 32.4017C121.913 31.9573 121.269 31.735 120.508 31.735C119.747 31.735 119.08 31.9535 118.553 32.3904Z" fill="#BDC7D6"/>
<path d="M133.847 29.5881C134.544 29.298 135.342 29.1511 136.25 29.1511V32.3001C135.869 32.27 135.613 32.2549 135.481 32.2549C134.502 32.2549 133.734 32.5299 133.176 33.0761C132.619 33.6223 132.34 34.4434 132.34 35.5358V41.0918H128.916V29.3206H132.189V30.8725C132.6 30.3038 133.15 29.8743 133.847 29.5805V29.5881Z" fill="#BDC7D6"/>
</g>
<defs>
<linearGradient id="paint0_linear_70_510" x1="27.1184" y1="4.78004" x2="30.7346" y2="8.23793" gradientUnits="userSpaceOnUse">
<stop stop-color="#D9DDE8"/>
<stop offset="0.11" stop-color="#D9DDE8" stop-opacity="0.85"/>
<stop offset="0.35" stop-color="#D9DDE8" stop-opacity="0.55"/>
<stop offset="0.57" stop-color="#D9DDE8" stop-opacity="0.32"/>
<stop offset="0.76" stop-color="#D9DDE8" stop-opacity="0.14"/>
<stop offset="0.91" stop-color="#D9DDE8" stop-opacity="0.04"/>
<stop offset="1" stop-color="#D9DDE8" stop-opacity="0"/>
</linearGradient>
<linearGradient id="paint1_linear_70_510" x1="18.0255" y1="27.5804" x2="23.073" y2="28.8422" gradientUnits="userSpaceOnUse">
<stop stop-color="#D9DDE8"/>
<stop offset="0.11" stop-color="#D9DDE8" stop-opacity="0.85"/>
<stop offset="0.35" stop-color="#D9DDE8" stop-opacity="0.55"/>
<stop offset="0.57" stop-color="#D9DDE8" stop-opacity="0.32"/>
<stop offset="0.76" stop-color="#D9DDE8" stop-opacity="0.14"/>
<stop offset="0.91" stop-color="#D9DDE8" stop-opacity="0.04"/>
<stop offset="1" stop-color="#D9DDE8" stop-opacity="0"/>
</linearGradient>
<linearGradient id="paint2_linear_70_510" x1="43.9937" y1="33.302" x2="43.9937" y2="38.7337" gradientUnits="userSpaceOnUse">
<stop stop-color="#D9DDE8"/>
<stop offset="0.11" stop-color="#D9DDE8" stop-opacity="0.85"/>
<stop offset="0.35" stop-color="#D9DDE8" stop-opacity="0.55"/>
<stop offset="0.57" stop-color="#D9DDE8" stop-opacity="0.32"/>
<stop offset="0.76" stop-color="#D9DDE8" stop-opacity="0.14"/>
<stop offset="0.91" stop-color="#D9DDE8" stop-opacity="0.04"/>
<stop offset="1" stop-color="#D9DDE8" stop-opacity="0"/>
</linearGradient>
<clipPath id="clip0_70_510">
<rect width="142.7" height="48" fill="white" transform="translate(0.728516)"/>
</clipPath>
</defs>
</svg>
