<svg width="150" height="48" viewBox="0 0 150 48" fill="none" xmlns="http://www.w3.org/2000/svg">
<g clip-path="url(#clip0_70_504)">
<path d="M4.92197 38.2462C4.39252 37.356 3.07084 37.4579 2.68649 38.4188L0.168641 44.7056C0.168641 44.7056 0.164719 44.7173 0.160797 44.7213C0.0588283 44.9958 0 45.2899 0 45.5998C0 46.9214 1.13343 48 2.4551 48H8.5105C9.47921 48 10.0793 46.945 9.5851 46.1135L4.92197 38.2462Z" fill="#BDC7D6"/>
<path d="M33.6812 1.50208C33.34 0.654955 32.5282 0.0470627 31.5673 0H21.3037L39.8739 46.4273C40.2543 47.3764 41.172 48 42.1956 48H48.6628C50.3963 48 51.5807 46.2508 50.9375 44.6429L33.6812 1.50208Z" fill="#E4E7EF"/>
<path d="M19.602 0C18.5941 0 17.7274 0.62358 17.3744 1.50601L7.75008 25.5864L5.50676 31.1986C5.50676 31.1986 5.50676 31.2025 5.50676 31.2065C5.35381 31.5908 5.29498 32.0261 5.36558 32.4811C5.54598 33.638 6.56567 34.5009 7.73832 34.5009C7.74224 34.5009 7.75008 34.5009 7.75401 34.5009H16.037H19.5824C18.2568 34.5009 17.1822 33.4263 17.1822 32.1007C17.1822 31.7869 17.2411 31.4849 17.3509 31.2104L19.5981 25.5903L29.2263 1.49816V1.50993C29.5793 0.62358 30.4421 0 31.454 0L19.602 0Z" fill="#BDC7D6"/>
<path d="M47.0664 23.3313H20.4995L17.3542 31.2065C17.2444 31.481 17.1855 31.783 17.1855 32.0967C17.1855 33.4223 18.2601 34.4969 19.5857 34.4969H49.6156C51.3491 34.4969 52.5335 32.7478 51.8903 31.1398L49.396 24.9001C49.0156 23.951 48.0979 23.3274 47.0743 23.3274L47.0664 23.3313Z" fill="#D9DDE8"/>
<path d="M75.8726 3.32972H72.3586L65.507 18.6996H69.1505L70.5114 15.4052H77.6492L79.0101 18.6996H82.7437L75.8726 3.32972ZM71.6566 12.707L74.0921 6.82413L76.5276 12.707H71.6526H71.6566ZM105.095 9.52239C106.169 9.52239 107.114 10.0283 107.75 11.146L110.405 9.71848C109.55 7.78499 107.593 6.71039 105.114 6.71039C101.271 6.71039 98.5254 9.23609 98.5254 12.7932C98.5254 16.3504 101.271 18.8761 105.114 18.8761C107.597 18.8761 109.55 17.778 110.405 15.8915L107.75 14.4444C107.114 15.5856 106.169 16.068 105.095 16.068C103.361 16.068 102 14.8601 102 12.7972C102 10.7343 103.361 9.52631 105.095 9.52631V9.52239ZM96.1801 18.6996V11.9383C96.1801 8.33798 94.0741 6.71432 91.2817 6.71432C89.6776 6.71432 88.2971 7.26338 87.3716 8.27523V6.8908H84.1007V18.7035H87.5245V12.8638C87.5245 10.6911 88.7089 9.67926 90.3561 9.67926C91.87 9.67926 92.7485 10.5578 92.7485 12.4677V18.7035H96.1723L96.1801 18.6996ZM133.222 18.8761C136.976 18.8761 139.701 16.3504 139.701 12.7932C139.701 9.23609 136.98 6.71039 133.222 6.71039C129.465 6.71039 126.724 9.23609 126.724 12.7932C126.724 16.3504 129.469 18.8761 133.222 18.8761ZM133.222 9.52239C134.936 9.52239 136.23 10.7539 136.23 12.7932C136.23 14.8326 134.936 16.0641 133.222 16.0641C131.509 16.0641 130.191 14.8326 130.191 12.7932C130.191 10.7539 131.509 9.52239 133.222 9.52239ZM145.255 8.44779V6.88688H141.984V18.6996H145.408V13.1227C145.408 10.8598 146.659 9.82829 148.549 9.82829C148.812 9.82829 149.032 9.85183 149.318 9.87144V6.71039C147.494 6.71039 146.09 7.3026 145.255 8.44387V8.44779ZM120.947 12.4638V18.6996H124.371V11.9383C124.371 8.33798 122.265 6.71432 119.476 6.71432C117.962 6.71432 116.645 7.19671 115.723 8.11835V2.40808H112.299V18.6996H115.723V12.8599C115.723 10.6872 116.907 9.67534 118.555 9.67534C120.068 9.67534 120.947 10.5538 120.947 12.4638ZM87.4147 29.1671C85.8107 29.1671 84.4302 29.7162 83.5046 30.728V29.3436H80.2337V41.1563H83.6575V35.3167C83.6575 33.1439 84.842 32.1321 86.4891 32.1321C88.003 32.1321 88.8815 33.0106 88.8815 34.9205V41.1563H92.3053V34.395C92.3053 30.7947 90.1993 29.171 87.4069 29.171L87.4147 29.1671ZM68.9936 34.7441H76.1314V31.9791H68.9936V28.6416H77.0727V25.7865H65.4561V41.1563H77.3551V38.3012H68.9897V34.7441H68.9936ZM118.374 41.1563H121.798V29.3436H118.374V41.1563ZM104.761 30.8575C103.859 29.7162 102.498 29.1671 100.851 29.1671C97.5802 29.1671 94.9447 31.4301 94.9447 34.8774C94.9447 38.3247 97.5802 40.5877 100.851 40.5877C102.388 40.5877 103.683 40.1053 104.585 39.117V39.6229C104.585 41.7525 103.53 42.8506 101.114 42.8506C99.6 42.8506 97.9528 42.3251 96.941 41.5132L95.5801 43.9723C96.9645 45.0469 99.1372 45.5959 101.377 45.5959C105.636 45.5959 108.009 43.5761 108.009 39.1836V29.3475H104.757V30.8614L104.761 30.8575ZM101.534 37.7757C99.7334 37.7757 98.4156 36.6109 98.4156 34.8774C98.4156 33.1439 99.7334 31.9791 101.534 31.9791C103.334 31.9791 104.628 33.1439 104.628 34.8774C104.628 36.6109 103.334 37.7757 101.534 37.7757ZM144.392 29.1671C142.878 29.1671 141.56 29.6495 140.639 30.5712V24.8609H137.215V41.1524H140.639V35.3127C140.639 33.14 141.823 32.1282 143.47 32.1282C144.984 32.1282 145.863 33.0067 145.863 34.9166V41.1524H149.286V34.3911C149.286 30.7908 147.18 29.1671 144.392 29.1671ZM127.685 32.8576C127.685 32.2419 128.344 31.7595 129.881 31.7595C130.956 31.7595 132.12 31.9791 133.285 32.638L134.426 30.2025C133.305 29.5436 131.505 29.171 129.881 29.171C126.434 29.171 124.414 30.7516 124.414 32.991C124.414 37.7129 131.552 35.7363 131.552 37.6698C131.552 38.3287 130.959 38.7444 129.379 38.7444C127.932 38.7444 126.328 38.2816 125.273 37.6031L124.131 40.0621C125.23 40.7877 127.249 41.3367 129.249 41.3367C132.783 41.3367 134.826 39.7758 134.826 37.5835C134.826 32.9282 127.689 34.8813 127.689 32.8615L127.685 32.8576ZM120.088 23.8765C118.813 23.8765 117.958 24.7119 117.958 25.7865C117.958 26.8611 118.813 27.6964 120.088 27.6964C121.363 27.6964 122.218 26.8611 122.218 25.7198C122.218 24.6648 121.363 23.8765 120.088 23.8765ZM111.479 41.1563H114.903V24.8648H111.479V41.1563Z" fill="#BDC7D6"/>
</g>
<defs>
<clipPath id="clip0_70_504">
<rect width="149.314" height="48" fill="white"/>
</clipPath>
</defs>
</svg>
